/* XPM */
static char *result[] = {
/* columns rows colors chars-per-pixel */
"64 64 194 2 ",
"   c #0E5967",
".  c #0B5568",
"X  c #105667",
"o  c #145B66",
"O  c #185C6A",
"+  c #205E66",
"@  c #1B6266",
"#  c #146F6D",
"$  c #196E6C",
"%  c #166067",
"&  c #1C736C",
"*  c #15706D",
"=  c #2A6462",
"-  c #23756A",
";  c #29766A",
":  c #22796A",
">  c #2C7969",
",  c #357C67",
"<  c #377B67",
"1  c #2F7F7A",
"2  c #2D6970",
"3  c #7E5451",
"4  c #5E725F",
"5  c #6A695A",
"6  c #6D7F5F",
"7  c #505C64",
"8  c #685F62",
"9  c #556764",
"0  c #557C61",
"q  c #5A7C61",
"w  c #5A7267",
"e  c #476A68",
"r  c #627761",
"t  c #A0000B",
"y  c #9F0527",
"u  c #9E0629",
"i  c #9F0A2A",
"p  c #9D1030",
"a  c #A10527",
"s  c #AA0729",
"d  c #A10C2D",
"f  c #A90C2C",
"g  c #A80428",
"h  c #B4032B",
"j  c #B80529",
"k  c #B60A2B",
"l  c #B9092B",
"z  c #B70027",
"x  c #AE1724",
"c  c #AE1C25",
"v  c #AF1C2B",
"b  c #A10F30",
"n  c #B50C31",
"m  c #A11031",
"M  c #A61935",
"N  c #B91932",
"B  c #B71632",
"V  c #B21627",
"C  c #9F2F3D",
"Z  c #B5273A",
"A  c #B3293B",
"S  c #AE253C",
"D  c #FD291E",
"F  c #E13C1C",
"G  c #EF331C",
"H  c #FF3A15",
"J  c #FA3819",
"K  c #CE1E26",
"L  c #CD122B",
"P  c #CE1829",
"I  c #CB0D33",
"U  c #C60D33",
"Y  c #CB163A",
"T  c #CA1237",
"R  c #D31D27",
"E  c #FC1F2F",
"W  c #F50B3E",
"Q  c #F91E36",
"!  c #F5113F",
"~  c #F71D36",
"^  c #C9212F",
"/  c #DB2825",
"(  c #D33525",
")  c #E12B22",
"_  c #FD2B22",
"`  c #FC212D",
"'  c #FC2722",
"]  c #FC3927",
"[  c #FD322C",
"{  c #F93A29",
"}  c #F92234",
"|  c #F62F37",
" . c #F93833",
".. c #E93F23",
"X. c #99413E",
"o. c #FF4507",
"O. c #FB430F",
"+. c #FE4B0A",
"@. c #FD5503",
"#. c #FE5A00",
"$. c #E3421A",
"%. c #FA4914",
"&. c #FE5A16",
"*. c #FE511C",
"=. c #D25F3C",
"-. c #D74E32",
";. c #FA4A2C",
":. c #FC4328",
">. c #F74138",
",. c #D7613A",
"<. c #F46229",
"1. c #8E3D44",
"2. c #953B43",
"3. c #B43542",
"4. c #F40F41",
"5. c #F51440",
"6. c #F31B45",
"7. c #F41D48",
"8. c #F61346",
"9. c #EF2C4A",
"0. c #ED304D",
"q. c #ED3151",
"w. c #F32749",
"e. c #8F424D",
"r. c #984A4B",
"t. c #81514F",
"y. c #984F50",
"u. c #A85755",
"i. c #8B7651",
"p. c #B1694F",
"a. c #AE6751",
"s. c #99546E",
"d. c #9A5570",
"f. c #CF4555",
"g. c #C94F5A",
"h. c #CF4C4D",
"j. c #2E8265",
"k. c #328664",
"l. c #368D63",
"z. c #3C8E61",
"x. c #3B8F69",
"c. c #378B68",
"v. c #3F9060",
"b. c #358079",
"n. c #528E5F",
"m. c #44915E",
"M. c #4A935C",
"N. c #6A9E47",
"B. c #659D4C",
"V. c #699E4A",
"C. c #61964E",
"Z. c #7A9C47",
"A. c #6C835F",
"S. c #6C8A5E",
"D. c #74855D",
"F. c #6DA245",
"G. c #67A04A",
"H. c #69A049",
"J. c #71A441",
"K. c #478764",
"L. c #448A64",
"P. c #4D8B63",
"I. c #4F8263",
"U. c #518766",
"Y. c #548965",
"T. c #429160",
"R. c #488B77",
"E. c #4E9275",
"W. c #439175",
"Q. c #539375",
"!. c #57917C",
"~. c #6B8460",
"^. c #699D62",
"/. c #739F61",
"(. c #74A061",
"). c #929349",
"_. c #8A8F50",
"`. c #858E4C",
"'. c #677E9C",
"]. c #5F8493",
"[. c #618594",
"{. c #74889F",
"}. c #6982A1",
"|. c #768BA3",
" X c #7592B2",
".X c #6A90A8",
"XX c #7CA4C3",
"oX c #8F9BA7",
"OX c #909CA7",
"+X c #909CA8",
"@X c #829AB5",
"#X c #85A9CE",
"$X c #87AAD0",
"%X c #8AABD0",
/* pixels */
"l.l.l.l.z.l.l.l.l.l.l.z.k.l.l.l.l.l.l.l.l.l.l.l.l.l.l.l.l.l.k.l.l.l.l.k.l.l.l.l.l.l.l.l.l.k.l.l.l.l.l.l.l.l.l.l.l.l.l.l.k.l.l.l.",
"l.l.l.l.l.l.l.l.l.l.l.l.z.l.l.l.l.l.l.l.l.l.l.l.l.l.l.l.l.l.l.l.v.v.z.l.l.l.l.l.l.l.l.l.l.z.l.l.l.z.l.l.l.l.l.l.l.l.l.z.l.l.l.l.",
"l.l.l.l.l.l.l.l.l.l.l.l.l.l.l.l.l.l.l.l.l.l.l.l.l.l.l.l.l.l.l.m.F.F.F.G.l.l.l.l.l.l.l.l.l.l.l.l.l.l.l.l.l.l.l.l.l.l.l.l.l.l.l.z.",
"l.l.l.l.l.l.l.l.l.l.l.l.l.l.l.l.l.l.l.l.l.l.l.l.z.L.l.l.l.l.l.m.F.F.J.F.v.v.l.l.l.l.l.l.l.l.l.l.l.l.l.l.l.l.l.l.l.l.l.l.l.l.l.l.",
"l.l.l.l.l.l.l.l.l.l.l.l.l.l.k.l.l.l.l.l.l.l.l.T.J.V.K.L.L.K.L.P.P.M.J.J.F.N.l.l.l.l.l.l.l.l.l.l.l.l.l.l.l.l.l.l.l.l.l.l.l.l.l.l.",
"l.l.l.l.l.l.l.l.l.l.l.l.l.z.z.v.z.v.l.l.l.l.z.M.Z.A A A A S -.<.<.S.F.F.J.N.l.l.l.l.k.l.l.l.l.l.l.l.k.l.l.l.l.l.l.l.l.l.l.l.l.l.",
"l.l.l.l.l.l.l.l.l.l.l.l.k.m.J.F.F.B.l.l.l.T.H.J.Z.Z z j j h F @.&.S.l.v.z.l.l.l.& & & & l.l.l.l.l.k.& & & & & & l.l.l.l.l.l.l.l.",
"l.l.l.l.l.l.l.l.l.l.l.l.l.m.F.F.J.H.v.l.l.T.J.J.Z.A j l k z F +.*.S.l.l.l.l.l.l.& & ; : c.l.l.l.l.k.> ; ; ; & & l.l.l.l.l.l.l.l.",
"l.l.l.l.l.l.l.l.l.l.l.l.l.z.z.M.F.J.F.G.l.m.J.H.P.A z k j k ) H ] A.l.l.l.l.l.k.  = G.B.- - c.l.& > N.N.J.C.; & l.l.l.l.l.l.l.l.",
"l.l.l.l.l.l.l.l.l.l.l.l.l.l.l.m.F.F.F.G.l.m.F.B.K.A n B k z ) :.:.A.l.l.l.l.l.k.  = F.B.> ; c.k.; , F.J.J.J.- $ l.l.l.l.l.l.l.l.",
"l.l.l.l.l.l.l.l.l.l.l.l.l.l.l.l.z.z.z.z.l.l.z.z.K.A n P G G p.~.A.L.l.l.l.k.& & $ & z.m.N.V.- > N.F.N.J.J.N.+ o k.l.l.l.l.l.l.l.",
"l.l.l.l.l.l.l.l.l.l.l.l.l.l.l.l.l.l.l.l.l.l.l.l.K.3.n K H H i.l.l.l.l.l.c.c.; - - : k.z.F.V.- ; F.F.J.J.J.N.+ o l.l.l.l.l.l.l.l.",
"l.l.l.l.l.l.l.l.l.l.l.I.4 Y.4 4 q q q q q q 0 U.r Z s P H H a.0 q q 4 0 e w `.).).`.w w ~.6 7 9 A.D.).).n.L.X o k.z.l.l.l.z.l.l.",
"l.l.l.l.l.l.l.l.l.l.l.y.v N N Z N N N N N N M p M k k K H H / B N N N N N B ( &.&.;. . .[ [ [ [ [ [ [ [ 6 j.o o l.l.l.l.l.l.l.l.",
"l.l.l.l.l.l.l.l.l.l.l.r.z l l l l l l j l n f i a k h K H H / h l l l l h g ( #.#.*.' _ ' D ' ' _ ' D _ 8   @ & k.z.l.l.l.l.l.l.",
"l.l.l.l.z.z.v.v.4 t.t.C s s s s s s s f f B a y a k j P _ ' K y s s g V $.$... .>.| ~ ~ Q Q } } } Q Q Q h.u.a.> l.l.l.l.l.l.l.l.",
"v.l.l.m.F.F.F.G.5 i a y y y y y y y y m p i y y a l k L Q E L y y y y c @.@.;.8.8.5.5.5.5.5.5.5.8.8.! ! ` D  .P.l.l.l.l.l.l.l.l.",
"l.l.l.M.F.J.J.G.5 p y y y y y y y i m m d y y a a k k L E E L y y u y x @.@.;.8.5.5.5.5.5.5.5.! ! 5.5.! } _  .P.l.l.v.v.z.z.l.l.",
"l.l.l.l.l.M.J.J.i.t a i y y y y y m m i y a y y a k k L E ` L y y y u x O.o.{ 4.5.5.5.5.5.5.5.5.! ! 5.! 5.! 0.Y.c.v.H.F.F.H.z.l.",
"l.l.l.l.l.m.F.F.i.i y y y y a d p m i y y y y y a k k L ` ` P y y y u x O.o.] 4.5.5.5.5.5.5.5.5.~ ! ! 6.5.6.q.Y.l.m.F.J.J.G.z.l.",
"l.l.l.l.l.l.v.v.5 i a y y y y d c i y y y y y y a k k L ~ ~ L y y y y x O.o.] 4.5.5.5.! 5.5.5.5.8.6.5.6.7.6.9.Y.H.F.J.F.m.z.l.l.",
"l.l.l.l.l.l.l.l.5 i y y a y y y i y a y y i y y a k k L 5.! U y y y y x O.o.] 4.5.5.5.5.5.5.5.5.! ! 5.~ 7.5.9.Y.H.F.F.H.l.l.l.l.",
"l.l.l.l.l.l.l.l.5 i a y y y y y y y y y y y a y a k k I ! 5.T i y y y x O.o.] 5.5.5.5.5.5.5.6.~ 6.! ! ! 6.! 9.U.v.z.z.z.l.l.l.l.",
"l.l.l.l.l.l.l.l.5 i y y y y y y y y a i y y y y a k k I 5.5.T p i y y x O.o.] 5.5.5.! 5.5.5.5.! ! ! ! 6.5.! 9.U.l.l.l.l.l.l.l.l.",
"l.l.l.l.l.l.l.l.6 i i y y y i y y y y y y y y a a k k L ! ! Y i u u y x J o.{ ! 5.5.5.5.5.5.! ! ! ! 5.! 5.4.9.U.l.l.l.l.l.z.l.l.",
"l.l.l.l.l.l.l.l.5 i y y y y a y y y y i y y y y a k k I 6.7.Y i y u y x O.o.{ ! 5.5.5.5.5.5.! 6.! 6.5.5.5.5.9.U.l.l.l.l.l.l.l.l.",
"l.l.l.l.l.l.l.l.5 m i y y y y y y y y y y a y i i k k Y w.6.U y u y y x O.o.{ W 5.5.! ! ! 5.5.! ! ! 5.5.5.8.9.U.l.l.l.l.l.l.l.l.",
"l.l.l.l.l.l.l.l.5 p i y a y y y y y y y y y y a a k k Y 7.! U y y y y x O.o.] ! 5.6.~ ! 6.6.6.! ! 6.5.! ! ! 9.U.l.l.l.l.l.l.l.l.",
"l.l.l.l.l.l.l.l.5 d y y y y a y y y y y y y y y y f f k U U f y y y y x O.o.] 4.! 6.! ! 6.7.6.! ! 5.5.5.~ 5.9.U.l.l.l.l.z.l.l.l.",
"l.l.l.l.l.l.l.l.5 d y y y y y y y y y y y y y i m p p y y i y y y y u x O.o.] 4.5.! ! w.7.6.! 5.~ 6.5.5.! ! 9.Y.l.l.l.l.l.l.l.l.",
"l.l.l.l.l.l.v.l.5 i y y y y y y y y y y y y y i b d y y y y y y y y y x O.o.] 4.5.6.7.6.~ 5.5.5.5.5.5.5.! ! 0.Y.l.l.l.l.l.l.l.l.",
"l.l.l.l.l.l.l.l.5 i y y y y i y y y i y y i m m d y y y y y y y y y u x O.o.] 4.5.7.7.6.5.5.5.5.! 5.5.! ! ! 9.P.l.l.l.l.l.l.l.l.",
"l.l.l.l.l.l.l.l.5 i y y y y y y y y a y d i d i y y a y y y y y y y y x H o.{ ! 6.5.6.! ! ! 5.5.5.5.5.5.! ! 9.Y.l.l.v.l.l.l.l.l.",
"l.l.l.l.l.l.l.l.5 i y y y y y y y y y y d m d y i y y y y y a y y y u x O.o...6.7.5.! ! 6.~ 5.5.5.5.5.! ! ! 9.Y.l.l.l.l.l.l.l.l.",
"l.l.l.l.l.l.l.l.5 i y y y y y y u a y y i i y y y y y y i y y y y y u x O.%.>.6.~ 6.! ! 5.5.5.5.! ! 5.5.! ! 9.U.l.l.l.l.l.l.l.l.",
"l.l.l.l.l.l.l.l.5 i y y y y y y y y y y y a y y y a y y a y y a y y y x %.%.{ 5.! ! 6.! 5.5.5.5.! 6.! 5.8.! 9.U.l.l.l.l.l.l.l.l.",
"l.l.l.l.l.l.l.l.5 i y y y y y y y y a y y y y y y y y y y y i y y y y c %.%.] W ! 6.! ! 5.5.5.5.! ~ 5.5.5.4.9.U.l.l.l.l.l.l.l.l.",
"l.l.l.l.l.l.l.l.5 y y y y y y y y y y y y y y y y t t t t t t t t y u V %.o.{ W ! ! ! ! ! ! ! ! 5.5.4.5.! W w.U.l.l.l.l.l.l.l.l.",
"l.l.l.l.l.l.l.l.4 X.C X.X.X.X.e.1.1.1.1.1.1.1.1.1.s.s.s.d.d.d.d.s.e.1.r.=.,.h.h.f.f.f.f.f.f.f.f.f.f.f.f.f.f.g.K.l.l.l.l.l.l.l.l.",
"l.l.l.l.l.l.l.l.l.m.J.J.F.B.l.l.l.l.l.l.l.l.c.l.x.XX$X%X$X$X$X$X#XW.l.l.l.l.l.l.l.l.l.l.l.l.l.l.l.l.l.l.l.l.l.l.v.v.l.l.l.l.l.l.",
"l.l.l.v.J.G.l.l.l.m.F.H.v.v.l.l.l.k.& & & & & : x.XX$X$X$X$X#X%X#X1 l.l.l.l.l.l.l.l.l.l.l.l.l.l.l.l.l.l.l.l.l.z.G.G.v.l.l.l.l.l.",
"l.l.l.M.J.G.l.l.l.m.F.G.l.l.l.l.l.k.; - ; - & : c.XX$X$X$X#X$X$X#X1 c.l.l.l.l.l.l.l.l.l.l.l.l.l.l.l.l.l.l.l.l.m.F.F.v.l.l.l.l.l.",
"l.l.l.M.J.F.J.G.l.l.v.v.l.l.l.k.& , N.F.H.B.l.k.O XX$X$X$X$X$X$X#X^.- - l.l.l.l.l.l.l.l.l.l.l.l.l.l.l.l.l.v.H.F.F.F.v.l.l.l.l.l.",
"l.l.l.M.F.F.J.G.l.l.l.l.l.l.l.l.# , F.F.F.V.L.l.  XX$X$X#X$X$X$X#X^.& & l.l.l.l.l.l.l.l.v.v.v.v.v.v.l.l.l.v.F.J.F.H.z.l.l.v.z.z.",
"l.l.l.l.l.M.J.G.l.l.l.l.l.l.l.k.& & ; > v.m.F.B.X XX#X%X%X$X$X$X#X2   % l.l.l.l.l.l.l.v.G.H.F.F.F.G.l.l.l.v.F.F.m.z.l.v.H.H.J.H.",
"l.l.l.l.l.M.F.G.l.l.l.l.l.l.l.k.& & & - l.v.F.B.% XX%X%X$X$X$X$XXX2 o % l.l.l.z.l.l.c.v.H.F.J.J.J.F.m.l.l.m.F.H.l.l.l.m.J.J.H.J.",
"l.l.l.l.l.l.l.v.l.l.l.l.l.l.l.l.l.l.l.k.l.l.v.z.k..X X X@X@X@X@X@XR.c.l.l.l.l.l.l.l.l.l.v.m.F.J.J.J.J.H.l.l.v.v.l.v.H.F.J.F.m.v.",
"l.l.l.l.l.l.l.l.l.l.l.l.l.l.l.l.l.k.l.l.l.l.l.l.l.'.'.|.OXoXoXoX+XE.l.l.l.l.l.l.l.l.l.v.l.v.H.F.F.F.F.H.l.l.l.l.l.z.H.H.J.H.l.l.",
"l.l.l.l.l.l.l.l.l.l.l.l.l.k.& * & & & : l.l.l.l.l.].[.|.+XoXoXOX+XE.l.l.l.l.l.l.l.l.l.l.l.l.v.v.z.v.l.v.l.l.l.l.l.l.v.l.v.v.l.l.",
"l.l.l.l.l.k.l.l.l.k.l.l.l.c.; > ; ; $ - l.l.l.l.l.[.}.|.+XoXoXoX+XQ.l.l.l.l.l.l.l.l.l.l.l.l.l.l.l.l.l.l.l.l.z.l.l.l.l.l.l.l.l.l.",
"l.l.v.l.l.c.& * & & & & * < H.F.N.C.X @ l.l.l.l.c.[.}.|.OXoXOXoX+X(.l.l.l.l.l.l.l.l.l.l.l.l.l.l.l.l.l.l.l.l.l.l.l.l.l.l.l.l.l.l.",
"l.l.l.l.c.k.- - - & & & * , J.J.J.V.X @ l.l.l.l.l.[.}.|.OXoXoXoX+X(.l.l.l.l.l.l.l.l.l.l.l.l.l.l.l.l.l.l.l.l.l.l.l.l.l.l.l.l.l.l.",
"l.l.l.l.* k.V.V.H.C.c.j.. = J.F.T.l.X @ l.l.l.l.c.[.}.|.OXOXoXoXOXQ.v.l.l.l.l.l.l.l.l.l.l.l.l.l.l.l.l.l.l.l.l.l.l.l.l.l.l.l.l.l.",
"l.l.l.l.# k.J.F.J.H.l.k.. = F.H.c.k.X o l.l.l.l.l.[.}.|.OXoXoXoXOXE.l.l.v.l.l.l.l.l.l.l.l.l.l.l.l.l.l.l.l.l.l.l.l.l.l.l.l.l.l.l.",
"l.l.l.l.* & > k.v.M.F.C.X @ v.l.o % * & l.l.l.l.l.[.'.|.OXoXoXoXOXE.l.l.l.l.l.l.l.l.l.l.l.l.l.l.l.l.l.l.l.l.l.l.l.l.l.l.l.l.l.l.",
"l.l.l.l.& & * : l.m.J.C.o @ l.k.O % & : l.l.l.l.l.].}.|.OXoXOXoXOXE.l.l.l.l.l.l.l.l.l.l.l.l.l.l.l.l.l.z.l.l.l.l.l.v.l.l.l.l.l.l.",
"l.l.l.l.l.l.l.l.l.l.v.l.l.l.l.l.l.l.l.l.l.l.l.l.l.]..X|.+X+X+X+XOXW.l.l.l.l.l.l.l.l.l.l.l.l.l.l.l.l.l.l.l.l.l.l.l.l.l.l.l.l.l.l.",
"l.l.l.l.l.l.l.l.l.l.l.l.l.l.l.l.l.l.l.l.l.l.l.l.l.[.[.|.+X+X+X+XOXQ.l.l.l.l.l.l.l.l.l.l.l.l.l.l.l.l.l.l.l.l.l.l.l.l.l.l.l.l.l.l.",
"l.l.l.l.l.l.l.l.l.l.l.l.l.l.l.l.l.l.l.l.l.l.l.l.l.[.[..X+X+X+X+XOXQ.x.l.l.l.l.l.l.l.l.l.l.l.l.v.l.l.l.l.l.l.l.l.l.l.l.l.l.v.l.l.",
"l.l.l.l.l.l.l.l.l.l.l.l.l.l.l.l.l.l.l.l.l.l.l.l.l.W.].W.Q.E.Q.Q.Q.x.v.l.l.l.l.l.l.l.l.l.l.l.l.l.l.l.l.l.l.l.l.l.l.l.l.l.l.l.l.l.",
"l.l.l.l.l.l.l.l.l.l.l.l.l.l.l.l.l.l.l.l.l.l.l.l.z.l.l.l.l.l.l.l.l.l.l.l.l.l.l.l.l.l.l.l.l.l.l.l.l.l.l.l.l.l.l.v.l.l.l.l.l.l.l.l.",
"l.l.l.l.l.l.l.l.v.l.l.l.l.l.l.l.l.l.l.l.l.l.l.l.l.l.l.l.l.l.l.l.v.l.l.l.l.l.l.l.l.l.l.l.l.l.l.l.l.l.l.l.l.l.l.l.l.l.l.l.l.l.l.l.",
"l.l.l.l.l.l.l.l.l.l.l.l.l.l.l.l.l.l.l.l.l.l.l.l.l.l.l.l.l.l.l.l.l.l.l.l.l.l.l.l.l.l.l.l.l.l.l.l.v.l.l.l.l.l.l.l.l.l.l.l.l.l.l.l.",
"l.l.l.l.l.l.l.l.l.l.l.l.l.l.l.l.l.l.v.l.l.l.l.l.l.l.l.l.l.l.l.l.l.l.l.l.l.l.l.l.l.l.l.l.v.l.l.l.l.l.l.l.l.l.l.l.l.l.l.l.l.l.l.l."
};
