/* XPM */
static char *result[] = {
/* columns rows colors chars-per-pixel */
"64 64 210 2 ",
"   c #0C5667",
".  c #105667",
"X  c #145B67",
"o  c #1A5D66",
"O  c #255D64",
"+  c #335B65",
"@  c #1B6266",
"#  c #166D6C",
"$  c #1C736C",
"%  c #15706D",
"&  c #2A6462",
"*  c #23756A",
"=  c #2A766A",
"-  c #23796A",
";  c #2C7969",
":  c #357C67",
">  c #397E66",
",  c #336B62",
"<  c #765C52",
"1  c #795B52",
"2  c #6D5054",
"3  c #646B56",
"4  c #577D6D",
"5  c #5E767E",
"6  c #5A7A7C",
"7  c #4E7C6F",
"8  c #767461",
"9  c #9D1E2E",
"0  c #98132F",
"q  c #9B1D34",
"w  c #A11627",
"e  c #A21C2D",
"r  c #A51E32",
"t  c #9F212E",
"y  c #9E2534",
"u  c #92393D",
"i  c #983B3A",
"p  c #8E383D",
"a  c #A3242F",
"s  c #A5282F",
"d  c #A22634",
"f  c #AD2B36",
"g  c #AD2B38",
"h  c #A22D38",
"j  c #B42534",
"k  c #B32A35",
"l  c #B42738",
"z  c #B42B39",
"x  c #B82A38",
"c  c #B82D35",
"v  c #AB3339",
"b  c #B4393E",
"n  c #B63337",
"m  c #BA3E27",
"M  c #CA343F",
"N  c #CC3B3A",
"B  c #C4343A",
"V  c #BC4228",
"C  c #DB5C2C",
"Z  c #D8582D",
"A  c #CF4635",
"S  c #CB4038",
"D  c #C7443C",
"F  c #C35D3C",
"G  c #D55531",
"H  c #D14E2F",
"J  c #EB5E2E",
"K  c #E84B3B",
"L  c #ED5136",
"P  c #E95935",
"I  c #F15433",
"U  c #DF6538",
"Y  c #DE6434",
"T  c #D96129",
"R  c #EC612E",
"E  c #EC6B2C",
"W  c #F56722",
"Q  c #F56928",
"!  c #FA7824",
"~  c #E66132",
"^  c #EA6231",
"/  c #E5683B",
"(  c #F16934",
")  c #ED7936",
"_  c #9F3842",
"`  c #AD3C45",
"'  c #B33B45",
"]  c #B13A48",
"[  c #D83A43",
"{  c #CB3340",
"}  c #E33C44",
"|  c #E83C46",
" . c #845C55",
".. c #9D5656",
"X. c #AD5358",
"o. c #B44A4A",
"O. c #8C6546",
"+. c #806055",
"@. c #806058",
"#. c #9D7B53",
"$. c #947856",
"%. c #A3625D",
"&. c #A77B57",
"*. c #905F64",
"=. c #8A656D",
"-. c #98677C",
";. c #98697C",
":. c #C95B40",
">. c #DF5E41",
",. c #E65B45",
"<. c #E35C4B",
"1. c #E84642",
"2. c #C76846",
"3. c #DC6B41",
"4. c #E97246",
"5. c #3E855F",
"6. c #2E8265",
"7. c #328664",
"8. c #368D63",
"9. c #3C8E61",
"0. c #3E9060",
"q. c #47885E",
"w. c #44915E",
"e. c #4B935C",
"r. c #6A9E47",
"t. c #659C4C",
"y. c #699E49",
"u. c #67944C",
"i. c #729444",
"p. c #6DA245",
"a. c #69A049",
"s. c #67A04A",
"d. c #71A441",
"f. c #498A61",
"g. c #418E69",
"h. c #418D62",
"j. c #578668",
"k. c #598668",
"l. c #5C8A66",
"z. c #419060",
"x. c #4E916A",
"c. c #55926A",
"v. c #5B8E7A",
"b. c #668C69",
"n. c #638F7F",
"m. c #7C9976",
"M. c #6C8C68",
"N. c #879955",
"B. c #93834B",
"V. c #A08152",
"C. c #849574",
"Z. c #B59D74",
"A. c #8DA87D",
"S. c #90A97E",
"D. c #D8935F",
"F. c #D0815C",
"G. c #EE834D",
"H. c #D69565",
"J. c #D49A66",
"K. c #DA9569",
"L. c #D78D6A",
"P. c #E1976E",
"I. c #DAA26D",
"U. c #D4A374",
"Y. c #D6AB7C",
"T. c #CDA270",
"R. c #E3A36E",
"E. c #E5A572",
"W. c #E9A575",
"Q. c #E5AB79",
"!. c #5E7780",
"~. c #667189",
"^. c #667286",
"/. c #757E8F",
"(. c #757F90",
"). c #646F87",
"_. c #5F8C82",
"`. c #628E80",
"'. c #69828A",
"]. c #7B8E8D",
"[. c #67938B",
"{. c #7B9789",
"}. c #77859C",
"|. c #7A96A2",
" X c #878E97",
".X c #888E97",
"XX c #878E99",
"oX c #898E99",
"OX c #859A9D",
"+X c #B7B588",
"@X c #818DA0",
"#X c #8B9BB4",
"$X c #CEA684",
"%X c #D7AA85",
"&X c #D5BA8B",
"*X c #D8B487",
"=X c #D4BF93",
"-X c #DBB996",
";X c #E4AD83",
":X c #E5BA8B",
">X c #E5B686",
",X c #E0BC95",
"<X c #D4C194",
"1X c #DDC99E",
"2X c #DAC398",
"3X c #E9C29F",
"4X c #DFCBA0",
"5X c #EBD5AA",
"6X c #ECD5AA",
"7X c #E0CBA0",
/* pixels */
"8.8.8.8.9.9.8.8.8.8.8.8.8.5.7.8.8.8.8.8.8.8.8.8.8.8.8.8.8.8.8.8.7.8.8.7.8.8.8.8.8.8.8.8.8.7.9.8.7.9.8.8.8.8.8.8.9.8.8.8.8.8.7.8.",
"8.8.8.8.8.8.8.8.8.8.8.8.8.8.8.8.8.8.8.8.9.8.8.8.8.8.8.8.8.8.8.8.0.0.0.8.8.8.8.8.8.8.8.8.8.9.8.8.8.8.8.8.8.8.8.8.8.8.8.8.8.8.8.8.",
"8.8.8.8.8.8.8.8.8.8.8.8.8.8.8.8.8.8.8.8.8.8.8.8.8.8.8.8.8.8.8.0.p.p.d.t.8.8.8.8.8.8.8.8.8.8.8.8.8.8.8.8.8.8.8.8.8.8.8.8.8.8.8.8.",
"8.8.8.8.8.8.8.8.8.8.8.8.8.8.8.8.8.8.8.8.8.8.8.8.9.5.8.8.8.8.8.w.p.d.d.r.0.9.8.8.8.8.8.8.8.8.8.8.8.8.8.8.8.8.8.8.8.8.8.8.8.8.8.8.",
"8.8.8.8.8.8.8.8.8.8.8.8.8.8.8.8.8.8.8.8.8.5.> q.i.i.e.e.9.8.8.8.9.w.d.d.d.t.8.8.8.8.8.8.8.8.8.8.8.8.8.8.8.8.8.8.8.8.8.8.8.8.8.8.",
"8.8.8.8.8.8.8.8.8.8.8.8.8.9.9.9.9.0.8.8.h...z v v v Y ) B.8.8.8.8.0.p.p.d.r.8.8.8.7.8.8.8.8.8.8.8.8.7.8.8.8.7.8.8.8.8.8.8.8.8.8.",
"8.8.8.8.8.8.8.8.8.8.8.8.8.w.d.d.p.s.8.8.g.X.j c x c E ! B.8.8.8.8.8.9.9.0.9.8.8.$ $ $ $ 8.8.8.8.8.8.$ $ $ $ $ * 8.8.8.8.8.8.8.8.",
"8.8.8.8.8.8.8.8.8.8.8.8.8.0.p.p.d.a.8.0.g.X.x n k n R Q V.8.8.8.8.8.8.8.8.8.8.7.$ $ = ; 8.8.8.8.8.7.= = = * $ $ 8.8.8.8.8.8.8.9.",
"8.8.8.8.8.8.8.8.8.8.8.8.8.8.9.e.d.d.p.y.9.X.j z x c P J V.8.8.8.8.8.8.8.8.8.8.8.. & t.t.* $ 8.8.$ ; y.r.r.t.* $ 8.8.8.8.8.8.8.8.",
"8.8.8.8.8.8.8.8.8.8.8.8.8.8.8.w.p.p.p.y.g.X.j c x x / / $.8.8.8.8.8.8.8.8.8.8.7.. & a.y.; = 7.8.= : d.d.d.r.* $ 8.8.8.8.8.8.8.8.",
"8.8.8.8.8.8.8.8.8.8.8.8.8.8.8.8.9.9.9.9.g.X.l N P G C.b.x.8.8.8.8.8.8.8.8.7.* $ # $ 8.w.r.y.* ; y.p.d.d.d.r.O X 8.8.8.8.8.8.8.8.",
"8.8.8.8.8.0.8.8.8.8.8.8.8.8.8.8.8.8.8.8.g.X.j A R 4.l.8.8.8.8.8.8.8.8.8.8.7.* = * * 8.h.p.y.* = a.p.d.d.p.r.o X 7.8.8.8.8.8.8.8.",
"8.8.8.8.8.8.8.8.g.k.k.k.j.j.j.j.k.j.k.j.b.X.j A R / M.b.k.k.k.j.l.l.M.b.j.k.N.N.N.N.4 4 b.b.o o 9.w.d.p.z.9.X X 8.0.8.8.8.8.8.8.",
"8.8.8.8.8.8.8.8.3 ` ' ' o.' ' ' ' ] ` _ _ l l A ( I o.] ] ] ' ' ' F ) ) ,.<.,.<.,.,.,.,.,.<.+ X 8.9.p.y.8.6.X o 8.8.8.8.8.8.8.8.",
"8.8.0.8.8.8.8.8.3 z x l x x j c x x g d r z x A R R B j x x c j r H ! ! I I L I L L L L L P O o 8.8.9.9.@ X # $ 8.8.8.8.8.8.8.8.",
"8.8.8.8.9.9.8 8  .f g g f f f f g d g d d z z S I P c j f f f G C Z C G A S N S S S N S N D *.=.M.8.8.7.o X $ $ 8.8.8.8.8.8.8.0.",
"8.8.8.z.p.p.i y d d y d d d y d y d d d d z x B K K f d d y s E ! C 0 9 t d d e a t e q q r [ | X.8.8.8.8.8.8.8.8.8.8.8.8.8.8.8.",
"8.8.8.z.p.p.i d d d d d d d d d d d d y d x x N 1.K f y d d s E ! C 9 d a e q e 9 9 q q d y [ [ %.8.8.8.8.8.8.8.8.8.9.9.9.9.8.8.",
"8.8.8.0.9.e.i d d d d d y y d y d d d d d g z N K K f r d d d ~ W G.K.K.L.L.%X,X-X,X3X-X$X%X%X%X$XZ.Z.x.8.8.8.8.8.9.a.p.p.a.0.8.",
"8.8.8.8.8.w.i d d y d d d d d d d y a y d z l N K K f d d d s J W G.Q.Q.E.W.:X6X5X5X5X4X=X2X<X<X*XJ.J.c.8.8.8.8.8.z.d.d.p.s.0.8.",
"8.8.8.8.8.9.u r d d d d d d d y d d d d d z z { K 1.k d d d s ^ W G.E.E.E.R.:X5X5X5X5X4X=X<X&X&X*XJ.U.x.8.8.8.0.p.p.p.p.z.8.8.8.",
"8.8.8.8.8.8.p d d d d d d d d d d d d d g l z { } [ f d d y s ~ W G.Q.E.E.R.:X6X5X5X5X4X<X&XU.J.Y.=X+X9.8.8.8.z.a.p.p.s.0.8.8.8.",
"8.8.8.8.8.9._ y d d d d d d d d d d d d d z z { | } g d d d d ~ W G.E.E.E.R.:X5X5X5X5X1X=X<XU.D.U.=X+X9.8.8.8.8.0.0.0.0.8.8.8.8.",
"8.8.8.8.8.8.p y h d d d d d d d d d d d h z g { | } g d d d s P W G.W.E.E.E.:X5X5X5X5X2X*X$XY.%X*X=XS.8.8.8.8.8.8.8.8.8.8.8.8.8.",
"8.8.8.8.8.7.u d d d d d d d d d d d d y d z z { | } g d d d s ~ W G.W.E.E.R.:X6X6X5X5X-XD.J.&X2X<X<XS.8.8.8.8.8.8.8.8.8.8.8.8.8.",
"8.8.8.8.8.9.u d d d d d d d d d d d d d d z z { | [ f d d d s ~ W G.E.E.E.E.:X6X6X6X6X:XJ.J.&X-X<X<XS.8.0.8.8.8.8.8.8.8.8.8.8.8.",
"8.8.8.8.8.8.p y d d d d d d y d d d d d d z z { | [ k y d d s P Q / 2.2.2.2.F.>XQ.>X>X>X&X&X=X=X<X<XS.8.8.8.8.8.8.8.8.8.8.8.8.8.",
"8.8.8.8.8.7._ y d d d d d d d d h d d d d z z M | } z y d d s ^ Q T V V V m 2.W.R.R.I.Y.=X=X=X=X<X<XS.8.8.8.8.8.8.8.8.8.8.8.8.8.",
"8.8.8.8.8.9.p y d d d d d d d d d d d d d z z B [ [ f d d d s ~ Q E F F F F 2.:XQ.Y.Q.*X&X&X<X<X<X<XA.8.8.8.8.8.8.8.8.8.8.8.8.8.",
"8.8.8.8.8.8._ d d d d d d d d d d y d d d d d h d s d d d d d J W G.W.E.E.R.:X6X6X6X6X:XJ.I.*X<X<X<XA.8.8.8.8.8.8.8.8.8.8.8.8.8.",
"8.8.8.8.8.9.u d d d d d d d d d d d d y d d y d d d d d d d s ~ W G.W.E.E.W.:X6X5X5X6X-XD.D.<X<X<X<XA.8.8.8.8.8.8.8.8.8.8.8.8.8.",
"8.8.8.8.8.9.u r d d d d d d d d d d d d d d d d d d d d d d d ^ W G.W.E.E.W.:X6X6X6X6X<XY.Y.Y.Y.Y.<XA.8.8.8.8.8.8.8.8.8.8.8.0.8.",
"8.8.8.8.8.7.u d d d d d d d d d d y d d d d d d d d d y d y a ~ W G.Q.E.R.R.:X6X5X5X5X1X<X<XU.H.U.=XS.8.8.8.8.8.8.8.8.0.8.8.8.8.",
"8.8.8.8.8.7._ d d d y y d y d d d d d d d d d d d d d d d d s ~ W G.W.E.E.E.:X6X5X5X5X1X=X=XT.H.U.<X+X8.8.8.8.8.8.8.8.8.8.8.8.8.",
"8.8.8.8.8.9.p d d d d d d d d d d d d d d d d d d d d d d d s ~ W G.W.E.E.W.:X5X5X5X5X1X=X=X&X&X%XU.T.x.8.8.8.8.8.8.8.8.8.8.8.8.",
"8.8.8.8.8.8._ d d d d d d d d d d d d d h d d d d d d d d d a ~ W G.W.E.E.W.:X5X5X5X5X1X=X=X<X<X*XJ.K.c.8.8.8.8.8.8.8.8.8.8.8.8.",
"8.8.8.8.8.9.p d d d d d d d d d d d d d d d d d d d y d d d s ^ Q 4.P.K.K.P.;X3X3X3X3X-X%X%X*X&XY.D.H.b.q.q.f.q.f.f.f.f.f.0.8.8.",
"8.8.8.8.8.7.p d d d d d d d d d d d d d d d d d d d h d d y s ^ Q C h h b b b b b b b b ' b / ( ( R ~ ~ Y / U U U U ~ / 3.l.8.8.",
"8.8.8.9.8.9.u d s d d d y h h y d d d y d e w w w w w w t y t J Q C y y z z l l z x j x l x Y Q Q R R R R R R R J J ^ J / b.8.8.",
"8.8.8.8.9.9.3 1 < 1 O.O.O.O.< < < < < < 1 =.;.-.;.;.;.;.=.2 2 $.V.$.< 1 1 1  . .@.@.1 +.1  .V.V.#.#.#.#.#.#.#.#.#.#.$.#.V.x.8.8.",
"8.8.8.w.p.t.8.8.8.z.d.s.0.0.8.8.8.7.$ $ $ |.#X#X#X#X#X#X{.p.p.t.- - 8.8.8.8.8.8.8.8.8.8.8.8.8.8.8.8.8.8.8.8.8.9.y.a.9.8.8.8.8.8.",
"8.8.8.w.d.s.9.9.8.z.p.s.8.8.8.8.8.7.= = = |.#X#X#X#X#X#Xm.d.d.s.; = 8.8.8.8.8.8.8.8.8.8.8.8.8.8.8.8.8.8.8.8.9.w.p.p.0.8.8.8.8.8.",
"8.8.8.w.d.p.p.t.8.8.0.0.8.8.8.7.$ : a.p.p.OX#X#X#X#X#X#XOXd.d.d.a.t.$ - 8.8.8.8.8.8.8.8.8.8.8.8.8.8.8.8.8.0.a.p.d.p.9.8.8.8.8.8.",
"8.8.8.w.p.p.d.s.8.8.8.8.8.8.8.8.% : a.p.p.|.#X#X#X#X#X#Xm.d.d.p.p.t.$ $ 8.8.8.8.8.8.8.8.0.0.0.0.9.0.8.8.8.0.p.d.p.a.8.8.8.0.0.0.",
"8.8.8.8.9.e.d.a.8.8.8.8.8.8.8.7.$ $ ; ; 8.|.#X#X#X#X#X#X[.9.O O O O X @ 7.8.8.8.8.8.8.0.a.p.p.p.p.s.8.8.8.0.p.p.w.8.8.8.a.p.p.p.",
"8.8.8.8.8.w.p.s.8.8.8.8.8.8.8.7.$ $ $ $ 8.|.#X#X#X#X#X#X[.7.X . X X X @ 8.8.8.8.8.8.8.z.a.p.d.d.d.p.0.0.8.0.a.a.0.8.9.w.p.d.p.p.",
"8.8.8.8.8.8.9.0.8.8.8.8.8.8.8.8.8.8.8.7.8.|.#X#X#X#X#X#X[.8.8.8.7.8.7.8.8.8.8.8.8.8.8.9.0.z.p.d.d.d.p.s.0.8.0.9.8.9.p.p.d.p.w.0.",
"8.8.8.8.8.8.8.8.8.8.8.8.8.8.8.7.8.8.8.8.8.}.(.|.}.XX@X@Xv.8.8.8.8.8.8.8.8.8.8.8.8.8.8.8.8.0.a.p.p.p.p.a.8.8.8.8.8.0.a.p.p.a.8.8.",
"8.8.8.8.8.8.8.8.8.8.8.8.8.7.$ $ $ $ $ - 8.5 )./.XX.XXXXXv.8.8.8.8.8.8.8.8.8.8.8.8.8.8.8.8.8.0.0.0.9.0.9.8.8.8.8.8.8.0.0.0.0.8.8.",
"8.8.8.8.8.8.8.7.8.8.8.8.8.8.= = = * $ * 8.5 ~.(.oXoXoX.Xn.9.9.9.0.0.8.8.8.8.8.8.8.8.8.8.8.8.8.8.8.8.8.8.8.8.8.8.8.8.8.8.8.8.8.8.",
"8.8.8.8.8.7.$ $ $ $ $ $ $ : y.a.p.t.. @ 8.!.~.(.oX.XXX.Xm.d.p.p.d.s.8.8.8.8.8.8.8.8.8.8.8.8.8.8.8.8.8.8.8.8.8.0.8.8.8.8.8.8.8.8.",
"8.8.8.8.8.7.* * $ $ $ $ % > d.d.p.u.. @ 8.!.~.(.oX.XoXXXm.d.d.d.d.s.0.8.8.8.8.8.8.8.8.8.8.8.8.8.8.8.8.8.8.8.8.8.8.8.8.8.8.8.8.8.",
"8.8.8.8.% 8.a.r.t.t.8.;   , p.a.z.9.  @ 8.!.~.(.XXoXoXXXm.d.d.a.0.0.8.8.8.8.8.8.8.8.8.8.8.8.8.8.8.8.8.8.8.8.8.8.8.8.8.8.8.8.8.8.",
"8.8.8.7.% 7.p.p.p.t.0.7.  & p.t.8.6.. o 8.^.~.(.oXoX.XXXm.p.d.s.8.8.8.8.8.8.8.8.8.8.8.8.8.8.8.8.8.8.8.8.8.8.8.8.8.8.8.8.8.8.8.8.",
"8.8.0.7.% * = ; 0.e.p.t.  @ 0.9.X @ $ $ 8.!.~.(.oXoXoXoXn.0.5.0.8.8.8.8.8.8.8.8.8.8.8.8.8.8.8.0.8.8.8.8.8.8.8.8.8.8.8.8.8.8.8.8.",
"8.8.8.8.$ $ $ * 8.z.p.u.X @ 8.7.X X $ - 8.!.~.(.oXoXoXoXn.8.8.8.8.8.8.8.8.8.8.8.8.8.8.8.8.8.8.8.8.8.8.8.8.8.8.8.8.8.8.8.8.8.8.8.",
"8.8.8.8.8.8.8.8.8.8.0.0.8.8.8.8.8.8.7.8.8.!.~.(..X X X Xv.8.8.8.8.8.8.8.8.8.8.8.8.8.8.8.8.8.8.8.8.8.8.8.8.8.8.8.8.8.8.8.8.8.8.0.",
"8.8.8.8.8.8.8.8.8.8.8.8.8.8.8.8.0.8.8.8.8.!.~.(..X X X X[.8.8.8.8.8.8.8.8.8.8.8.8.0.8.8.8.8.8.8.8.8.8.8.8.8.8.8.8.8.8.8.8.8.8.8.",
"8.8.8.8.8.8.8.8.8.8.8.8.8.8.8.8.8.8.8.8.8.5 ).(.OXoXOX Xv.8.8.8.8.8.8.8.8.8.8.8.8.8.8.8.8.8.8.8.8.8.8.8.8.8.8.8.8.8.8.8.8.8.8.8.",
"8.8.8.8.8.8.8.8.8.8.8.8.8.8.8.8.8.8.8.8.8.!.~.'.oXoXOXOXv.8.8.8.8.8.8.8.8.8.8.8.8.8.8.8.8.8.8.8.8.8.8.8.8.8.8.8.8.8.8.8.8.8.8.8.",
"8.8.8.8.8.8.8.8.8.8.8.8.8.8.8.8.8.8.8.8.8.4 5 '. X{.].].[.8.8.8.8.8.8.8.0.8.8.8.8.8.8.8.8.8.8.8.8.8.8.8.8.0.8.8.8.8.8.8.8.8.8.8.",
"8.8.8.8.8.8.8.8.8.8.8.8.8.8.8.8.8.8.8.8.8.8.9.8.9.8.8.8.8.8.8.8.8.8.8.8.8.8.8.8.8.8.8.8.8.8.8.8.8.8.8.8.8.8.8.8.8.8.8.8.8.8.8.8.",
"8.8.8.8.8.8.8.8.8.8.8.8.8.8.8.8.8.8.8.8.8.8.8.8.8.8.8.8.8.8.8.8.0.8.8.8.8.8.8.8.8.8.8.8.8.8.8.8.8.8.8.8.8.8.8.8.8.8.8.8.8.8.8.8.",
"8.8.8.8.8.8.8.8.8.8.8.8.8.8.8.8.8.8.8.8.8.8.8.8.8.8.8.8.8.8.8.8.8.8.8.8.8.8.8.8.8.8.8.8.8.8.8.8.8.8.0.8.8.8.8.8.8.8.8.8.8.8.0.8."
};
