/* XPM */
static char *result[] = {
/* columns rows colors chars-per-pixel */
"64 64 173 2 ",
"   c #000000",
".  c #050E0A",
"X  c #150606",
"o  c #190808",
"O  c #07120D",
"+  c #0A150C",
"@  c #1B120E",
"#  c #061515",
"$  c #0B1C14",
"%  c #240E0E",
"&  c #2E1414",
"*  c #351717",
"=  c #351818",
"-  c #3B1919",
";  c #16210D",
":  c #0C2117",
">  c #112D1F",
",  c #3E261E",
"<  c #2A3E1A",
"1  c #233416",
"2  c #0B2D29",
"3  c #153626",
"4  c #1A3726",
"5  c #183826",
"6  c #163A29",
"7  c #173826",
"8  c #08353E",
"9  c #3B2622",
"0  c #3D2924",
"q  c #3C2E28",
"w  c #362524",
"e  c #431F1F",
"r  c #41281E",
"t  c #462121",
"y  c #4E2525",
"u  c #412925",
"i  c #4E2927",
"p  c #4A2E2A",
"a  c #512727",
"s  c #532828",
"d  c #4F3127",
"f  c #403029",
"g  c #4F302C",
"h  c #473224",
"j  c #513128",
"k  c #4C3730",
"l  c #652F2F",
"z  c #643232",
"x  c #6B3535",
"c  c #6F3838",
"v  c #713636",
"b  c #753939",
"n  c #7C3C3C",
"m  c #22563D",
"M  c #23583E",
"N  c #41632D",
"B  c #536A2F",
"V  c #4F6935",
"C  c #556933",
"Z  c #557E34",
"A  c #1B3D46",
"S  c #124F56",
"D  c #0C505D",
"F  c #12515C",
"G  c #245F43",
"H  c #2C5B41",
"J  c #315B42",
"K  c #385E45",
"L  c #245959",
"P  c #2A6E4D",
"I  c #256144",
"U  c #336046",
"Y  c #2A704E",
"T  c #34734C",
"R  c #38744A",
"E  c #3D794C",
"W  c #286E50",
"Q  c #2D7552",
"!  c #2E7A55",
"~  c #2E7D59",
"^  c #347953",
"/  c #307E59",
"(  c #145C66",
")  c #1A5D66",
"_  c #205E66",
"`  c #1A6769",
"'  c #1C736C",
"]  c #206F68",
"[  c #286263",
"{  c #23766B",
"}  c #29766A",
"|  c #2B7969",
" . c #367C66",
".. c gray37",
"X. c #555A5A",
"o. c #494949",
"O. c #656868",
"+. c #9E0000",
"@. c #803F3F",
"#. c #A43535",
"$. c #A53838",
"%. c #844141",
"&. c #8A4545",
"*. c #874847",
"=. c #894847",
"-. c #8C4949",
";. c #9E4545",
":. c #924A4A",
">. c #994F4F",
",. c #9C5151",
"<. c #A64040",
"1. c #A04D4D",
"2. c #A84B4B",
"3. c #A84242",
"4. c #A45555",
"5. c #AA5353",
"6. c #AC5A5A",
"7. c #B25555",
"8. c #B25D5D",
"9. c #B6605F",
"0. c #B55F60",
"q. c #AE6262",
"w. c #B56261",
"e. c #B77979",
"r. c #B97D7D",
"t. c #5B893A",
"y. c #598538",
"u. c #62923D",
"i. c #378157",
"p. c #32825B",
"a. c #3D8C5E",
"s. c #398156",
"d. c #368D63",
"f. c #3C8E61",
"g. c #308465",
"h. c #5A8D43",
"j. c #5D9043",
"k. c #418E5D",
"l. c #44915E",
"z. c #4A935C",
"x. c #6A9E45",
"c. c #669D4B",
"v. c #699E49",
"b. c #609140",
"n. c #6DA245",
"m. c #69A049",
"M. c #67A04B",
"N. c #71A441",
"B. c #429060",
"V. c #999A9A",
"C. c #959595",
"Z. c #BC8787",
"A. c #BF8A8A",
"S. c #9EA0A0",
"D. c #A0A3A3",
"F. c #A6A8A8",
"G. c #C08C8C",
"H. c #C39595",
"J. c #C69999",
"K. c #CBABAB",
"L. c #D2B5B5",
"P. c gray77",
"I. c #E4D4D4",
"U. c #E2DEDE",
"Y. c #ECDCDC",
"T. c gray89",
"R. c #ECEEEE",
"E. c #F3EBEB",
"W. c #EDF1F1",
"Q. c #F5F3F3",
"!. c #F9F4F4",
"~. c #FFFEFE",
"^. c #F6FBFB",
/* pixels */
"d.d.d.d.d.d.d.d.d.d.d.d.d.d.d.a.d.d.d.d.a.d.d.d.d.d.p.d.d.d.d.d.d.p.d.d.d.d.a.d.d.d.d.d.d.d.d.d.d.d.d.d.d.d.d.d.d.d.d.d.d.d.d.g.",
"d.d.d.d.d.d.d.d.d.d.d.d.d.f.d.d.d.d.d.d.d.d.d.d.d.d.d.d.d.d.d.d.f.f.f.f.d.d.d.d.d.d.d.d.d.d.d.d.d.d.d.d.d.d.d.d.d.d.d.d.d.d.d.f.",
"d.d.d.d.d.d.d.d.d.d.d.d.d.d.d.d.d.d.d.d.d.d.d.d.d.d.d.d.d.d.d.l.m.n.n.M.d.d.d.d.d.d.d.d.d.d.d.d.d.f.d.d.d.d.d.d.d.d.d.d.d.d.d.d.",
"d.d.d.d.d.d.d.d.d.d.d.d.d.d.d.d.d.d.d.d.d.d.d.d.f.f.d.d.d.d.d.a.t.y.Z y.a.d.d.d.d.d.d.d.d.d.d.d.d.d.d.d.d.d.d.d.d.d.d.d.d.d.d.d.",
"d.d.d.d.d.d.d.d.d.d.d.d.d.d.d.d.d.d.d.d.d.d.d.l.n.M.d.d.d.d.d.p.7 + + < u.c.d.d.d.d.d.d.d.d.d.d.d.d.d.d.d.d.d.d.d.d.d.d.d.d.d.d.",
"d.d.d.d.d.d.d.d.d.d.d.d.d.d.f.f.a.a.Q P P Q d.z.N.m.d.d.d.a.! J p s a d B j.a.d.d.d.g.d.d.d.d.d.d.d.d.d.d.g.d.d.d.d.d.d.d.d.d.f.",
"d.d.d.d.d.d.d.f.d.d.d.d.d.l.x.n.n.j.3 O O 3 u.n.N.m.d.d.d.Q > i :.4.,.=., 3 p.g.' ' ' ' d.d.d.d.d.d.' ' ' ' ' { d.d.d.d.d.d.d.d.",
"d.d.d.d.d.d.d.d.d.d.d.d.d.l.n.x.u.C s a a p B u.n.M.d.d.d.Q > i :.6.w.,.x , m ~ ' ' } } d.d.d.d.d.g.} } } } ' ' d.d.d.d.d.d.d.d.",
"d.d.d.d.d.d.d.d.d.d.d.d.d.d.f.E 1 s :.4.4.*.r < s.f.d.d.d.d.! J u v 4.w.4.*.9 3 D _ x.c.{ ' d.d.] | v.n.v.c.{ ' d.d.d.d.d.d.d.d.",
"d.d.d.d.d.d.d.d.d.d.d.d.d.d.d.^ 1 s :.6.9.4.x , m ! d.d.d.d.d.p.7 w *.4.w.4.x , 8 L x.v. .} d.g.}  .n.N.N.v.] ' d.d.d.d.d.d.d.d.",
"f.d.d.d.d.d.d.d.d.d.d.d.d.d.d.a.^ M 0 c 4.9.4.*., 3 p.d.d.d.d.d.p.I q c 4.w.4.=.w 2 / k.v.c.{ | v.n.n.N.N.v._ ( g.d.d.d.f.d.d.f.",
"d.d.d.d.d.d.d.d.d.d.f.d.d.d.d.d.d.p.6 w *.4.9.4.x w M ! Y Y Y Q p.I $ & %.4.w.4.x 9 M ^ Z h.] } v.n.N.N.N.v.) ( d.d.d.d.d.d.d.d.",
"d.d.d.d.d.d.d.d.d.d.d.d.d.d.d.d.d.d.p.I q c 4.9.4.*.q : $ $ $ $ : $     o x 4.6.5.&.q # O 7 D ) B.l.N.v.B.f.( ( d.d.d.d.d.d.d.d.",
"d.d.f.d.d.d.d.d.d.d.d.d.d.d.f.f.f.f.d.I $ & *.4.9.4.c - y y y y y i s y = z ,.w.0.4.x e y p A S W ^ x.v.d.g.( ( d.d.d.d.d.d.d.d.",
"d.d.d.d.d.d.d.d.d.d.d.d.d.l.m.n.n.j.7 O     o z 4.6.,.,.>.>.,.>.,.,.,.,.>.,.6.6.6.6.,.,.,.*.w # # 3 s.f.` ( ' ' d.d.d.d.d.d.d.d.",
"d.f.d.d.f.f.f.f.d.d.d.p.a.z.t.y.t.V p a y y = z ,.8.8.8.8.8.8.8.6.8.8.6.6.6.6.6.6.6.6.0.0.4.x t y p J ~ ( ( ' { d.d.d.d.d.d.d.d.",
"d.d.d.l.n.n.N.M.d.d.d.k.n.u.< + $ u -.,.,.>.>.,.4.6.6.6.8.6.6.6.6.6.6.6.6.6.6.6.6.6.6.6.6.6.,.,.1.*.9 7 ~ d.d.g.d.d.d.d.d.d.d.d.",
"d.d.d.l.n.n.N.M.B.f.d.B.u.C j y t c 4.w.9.8.9.6.6.6.6.6.6.6.6.6.6.6.6.6.6.6.6.6.6.6.6.6.6.6.6.8.0.4.x 9 m ~ d.d.d.d.d.B.f.f.d.d.",
"d.d.d.d.f.z.N.N.x.c.d./ 7 0 =.4.,.,.6.6.6.6.6.6.6.6.6.6.6.6.6.6.6.6.6.6.6.6.6.6.6.6.6.6.6.6.6.6.6.6.,.&.9 3 / d.d.d.n.n.n.n.f.d.",
"d.d.d.d.d.l.n.n.N.c./ M 0 x ,.6.6.6.6.6.6.6.6.6.6.6.6.6.6.6.6.6.6.6.6.6.6.6.6.6.6.6.6.6.6.6.6.6.6.6.0.4.x 9 m / f.l.n.N.n.m.f.d.",
"d.d.d.d.d.d.f.f.f./ 5 u :.>.:.-.&.:.4.8.6.6.6.6.6.6.6.6.6.6.6.6.6.6.6.6.6.6.6.6.6.6.6.6.6.6.6.6.6.6.8.6.4.&.9 5 u.n.N.m.B.f.d.d.",
"d.d.d.d.d.d.d.d./ M u x >.6.&.n %.:.4.6.6.6.6.6.6.6.6.6.6.6.6.2.5.5.6.6.6.6.6.6.6.6.6.6.6.6.6.6.6.6.5.5.7.>.x 9 N u.n.m.f.d.d.d.",
"d.d.d.d.d.d.d.d.5 u :.>.:.-.@.%.,.4.6.6.6.6.6.6.6.6.6.6.6.5.3.#.#.$.6.6.6.6.6.6.6.6.6.6.6.6.6.6.6.5.<.#.#.$.1.-.w 5 i.f.d.d.d.d.",
"d.d.d.d.d.d.p.I 9 x >.6.&.n n -.6.8.6.6.6.6.6.6.6.6.6.6.2.q.Z.H.H.Z.q.2.6.6.6.6.6.6.6.6.6.6.6.6.2.q.Z.H.H.G.w.1.z 0 m p.d.d.d.d.",
"d.d.d.d.d.Q 3 g =.,.:.&.%.@.n &.4.8.6.6.6.6.6.6.6.6.6.2.+.e.I.Q.Q.I.e.+.2.6.6.6.6.6.6.6.6.6.q.2.+.r.I.Q.!.I.r.+.3.*.9 6 ! d.d.a.",
"d.d.d.d.d.Y O s 4.6.&.n n %.%.:.4.6.6.6.6.6.6.6.6.4.6.q.e.L.!.~.~.!.L.e.q.6.6.6.6.6.6.6.6.6.4.q.e.L.!.~.~.!.L.r.w.,.x , J p.g.d.",
"d.d.d.d.d.Y + a ,.6.-.n n %.>.6.6.6.6.6.6.6.6.6.6.5.$.Z.I.!.~.~.~.~.!.I.Z.$.5.6.6.6.6.6.6.5.$.A.I.!.~.~.~.~.!.I.G.<.1.-.h 3 Q d.",
"d.d.d.d.f.Y $ i ,.6.-.n %.:.6.8.6.6.6.6.6.6.6.6.6.5.#.H.Q.~.~.~.~.~.~.Q.H.#.2.6.6.6.6.6.6.5.#.A.Q.~.~.~.~.~.~.Q.H.$.7.,.y O Y d.",
"d.d.d.d.d.Q $ i ,.6.&.%.1.6.6.6.6.6.6.6.6.6.6.6.6.5.$.A.W.~.~.~.~.~.~.E.H.#.5.6.6.6.6.6.6.2.#.H.E.~.~.~.~.~.~.E.H.$.5.>.y $ P d.",
"d.d.d.d.d.Q $ i >.6.&.&.4.8.6.6.6.6.6.6.6.6.6.6.6.2.$.H.E.~.R.T.T.W.~.E.H.$.2.6.6.6.6.6.6.5.$.H.E.~.R.T.T.R.~.E.H.$.7.,.y $ Y d.",
"d.d.d.d.d.! $ i >.6.%.&.4.6.6.6.6.6.6.6.6.6.6.6.6.5.#.H.!.W.V.o...F.W.Q.H.$.5.6.6.6.6.6.6.5.$.H.Q.W.V.o...F.Q.!.H.$.7.,.y $ Y d.",
"d.d.d.f.p.m + i ,.6.-.%.4.8.6.6.6.6.6.6.6.6.6.6.6.5.#.H.!.Q.S.    O.R.!.J.#.5.6.6.6.6.6.6.2.$.H.!.Q.S.    O.R.!.J.$.5.,.a $ Y d.",
"d.d.d.! 4 .   t >.6.-.%.4.6.6.6.6.6.6.6.6.6.6.6.6.2.#.H.!.~.Q.P.  X.W.~.H.#.5.6.6.6.6.6.6.5.#.H.Q.~.Q.P.  X.W.~.H.#.7.,.y $ Y d.",
"d.d.d.P O X - c 4.6.&.*.4.8.6.6.6.6.6.6.6.6.6.6.6.6.<.Z.I.^.~.Q.D.C.U.Y.A.<.5.6.6.6.6.6.6.6.<.Z.I.~.~.Q.S.C.U.Y.G.3.5.>.a $ Y d.",
"d.d.d.P $ t *.4.6.6.&.&.4.6.6.6.6.6.6.6.6.6.6.6.6.6.6.6.e.L.~.~.^.U.K.r.q.5.6.6.6.6.6.6.6.6.5.6.e.L.^.~.^.U.K.r.q.6.8.,.a $ Y d.",
"d.d.d.Y $ a 4.0.6.>.%.%.5.8.6.6.6.6.6.6.6.6.6.6.6.6.6.2.+.e.I.Q.~.Y.r.+.2.6.6.6.6.6.6.6.6.6.6.2.+.e.I.!.~.Y.r.+.2.6.8.>.y $ Y d.",
"d.d.d.Q $ s ,.6.:.%.n %.4.8.6.6.6.6.6.6.6.6.6.6.6.6.6.6.2.q.Z.H.J.G.q.2.6.6.6.6.6.6.6.6.6.6.6.6.2.q.Z.J.J.A.q.2.6.6.6.,.a $ Y d.",
"d.d.d.P $ a ,.6.&.n %.>.4.6.6.6.6.6.6.6.4.6.6.6.6.6.6.6.6.5.<.#.#.$.4.6.6.6.6.6.6.6.6.6.6.6.6.6.6.6.$.#.#.3.4.6.6.6.8.,.y $ Y d.",
"d.d.d.Y $ a >.6.&.%.>.6.6.6.6.6.6.6.6.6.6.6.6.6.6.6.6.6.6.6.5.2.5.6.6.6.6.6.6.6.6.6.6.6.6.6.6.6.6.6.5.2.5.5.6.6.6.6.6.,.s $ Y d.",
"d.d.d.Y $ a >.6.&.&.5.8.6.6.6.6.6.6.6.6.6.6.6.6.6.6.6.6.6.6.6.6.6.6.6.6.6.6.6.6.6.6.6.6.6.6.6.6.6.6.6.6.6.6.6.6.6.8.8.,.y $ Y d.",
"d.d.d.T ; i ,.6.&.%.6.6.6.6.6.6.4.6.6.6.6.6.6.6.4.6.6.6.6.6.6.6.6.6.6.6.6.6.6.6.8.8.8.8.8.6.6.6.6.6.6.6.6.6.6.6.6.6.8.,.y $ Y d.",
"d.d.d.R ; a ,.4.-.%.5.6.6.6.6.6.6.6.6.6.6.6.6.6.6.6.6.6.6.6.6.6.6.6.6.6.6.6.6.6.,.>.>.>.>.,.6.6.6.6.6.6.6.6.6.6.6.6.8.>.y $ Y d.",
"d.d.d.R ; a ,.6.&.&.4.8.6.6.6.6.6.6.6.6.6.6.6.6.6.6.6.6.6.6.6.6.6.6.6.6.6.6.8.>.z = y y = z ,.8.6.6.6.6.6.6.6.6.6.8.8.,.a $ Y d.",
"d.d.d.R ; a >.6.&.&.4.6.6.6.6.6.6.6.6.6.6.6.6.6.6.6.6.6.6.6.6.6.6.6.6.6.6.6.8.>.z X     X x ,.8.6.6.6.6.6.6.6.6.6.6.8.,.a $ Y f.",
"d.d.d.Y $ a ,.6.&.&.5.6.6.6.6.6.6.6.4.6.6.6.6.6.6.6.6.6.6.6.6.6.6.6.6.6.6.6.6.6.4.%.X X %.,.6.6.6.6.6.6.6.6.6.6.6.6.9.1.a + Z N.",
"d.d.d.Y $ a ,.4.&.%.5.6.6.6.6.6.6.6.6.6.6.6.6.6.6.6.6.6.6.6.6.6.6.6.6.6.6.6.6.6.w.4.z x 4.w.6.6.6.6.6.6.6.6.6.6.6.6.4.-.d < y.n.",
"d.d.d.P $ a ,.6.-.&.4.6.6.6.6.6.6.6.6.6.6.6.6.6.6.6.6.6.6.6.6.6.6.6.6.6.6.6.6.6.6.6.,.,.4.8.6.6.6.6.6.6.6.6.6.6.8.,.x p B u.k.a.",
"d.d.d.Q $ y >.6.-.%.4.6.6.6.6.6.6.6.6.6.6.6.6.6.6.6.6.6.6.6.6.6.6.6.6.6.6.6.6.6.6.6.8.8.6.6.6.6.6.6.6.6.6.6.6.6.9.>.r ; t.m.d.d.",
"d.d.d.! $ s ,.6.&.&.4.8.6.6.6.6.6.6.6.6.6.6.6.6.6.6.6.6.6.6.6.6.6.6.6.6.6.6.6.6.6.6.6.6.6.6.6.6.6.6.6.6.6.6.6.6.w.,.y # T d.d.d.",
"d.d./ m # a ,.4.&.&.4.6.6.6.6.6.6.6.6.6.6.6.6.6.6.6.6.6.6.6.6.6.6.6.6.6.6.6.4.6.6.6.6.6.6.6.6.6.6.6.6.6.6.6.6.6.4.=.h 7 Q d.d.d.",
"d.Q 4 .   t >.6.&.&.4.6.6.6.6.6.6.6.6.6.6.6.6.6.6.6.6.6.6.6.6.6.6.6.6.6.6.6.6.6.6.6.6.6.6.6.6.6.6.6.6.6.6.6.6.,.x q J ~ a.d.d.d.",
"d.P O o - c 4.6.&.&.4.6.6.6.6.6.6.6.6.6.6.6.6.6.6.6.6.6.6.6.4.6.6.6.6.6.6.6.6.6.6.6.6.6.6.6.6.6.6.6.6.6.6.8.8.,.t $ ! d.d.d.d.d.",
"d.P $ r &.5.6.4.&.&.6.8.8.8.6.6.6.6.6.6.6.6.6.6.6.6.6.6.6.6.6.6.6.6.6.6.6.6.6.6.6.6.6.6.6.6.6.6.6.4.6.6.6.6.8.,.y O Y d.d.d.d.d.",
"d.Y $ a ,.0.6.1.%.%.>.4.4.4.6.6.6.6.6.6.6.6.6.6.6.6.6.6.6.6.6.6.6.6.6.6.6.6.6.6.6.6.6.6.6.6.6.6.6.6.6.6.8.6.4.*.p 3 Q d.d.d.d.d.",
"d.Y $ a 4.6.>.%.@.%.&.-.&.>.6.6.8.6.6.6.6.6.6.6.6.6.6.6.6.6.6.6.6.6.6.6.6.6.6.6.6.6.6.6.6.6.6.6.6.6.6.6.9.4.x w H / d.d.d.d.d.d.",
"d.Q $ a >.6.-.n @.@.n n n %.,.4.4.4.6.8.6.6.6.6.6.6.6.6.6.6.6.6.6.6.6.6.6.6.6.6.6.6.6.6.6.6.6.6.6.6.8.6.4.*., 3 p.d.d.d.d.d.d.d.",
"d.! $ t >.6.-.@.@.@.@.@.@.%.-.&.%.>.6.8.6.6.6.6.8.6.6.6.6.6.6.6.6.6.6.6.6.6.6.6.6.6.6.5.6.6.6.6.6.9.9.,.x , m p.d.d.d.d.d.d.d.d.",
"! U q x >.5.-.@.@.%.@.%.%.@.@.n @.%.>.6.4.5.4.5.5.4.6.6.6.6.6.6.6.6.6.6.6.6.6.6.6.6.6.8.6.6.6.6.,.>.,.*.w 3 p.d.d.d.d.d.d.d.d.d.",
"$ k =.,.:.&.%.@.@.%.@.@.@.@.@.@.@.%.&.-.&.&.-.&.%.:.4.8.8.6.6.6.6.6.6.6.6.8.8.6.6.6.6.6.8.8.8.4.c r y p H p.d.d.d.d.d.d.d.d.d.d.",
"  s 5.8.-.n @.%.%.%.%.%.%.%.%.@.%.@.@.@.@.@.@.n n &.4.4.6.4.4.5.4.4.6.4.4.4.4.5.4.6.4.5.4.4.4.=.0 $ O 3 p.d.d.d.d.d.d.d.d.d.d.d.",
"  s 4.8.:.@.%.%.%.%.%.%.%.%.%.%.%.%.%.%.%.%.%.%.%.%.-.:.:.:.:.:.:.:.:.:.:.:.:.-.:.:.-.:.-.%.l u H Q Q Q d.d.d.d.d.d.d.d.d.f.d.d.",
"  y -.,.%.v b b n b n v n v b n b b n v b b b n b b v v v v v v v v v v v v v v v v v v b l @ 6 / d.d.d.d.d.d.d.d.d.d.d.d.d.d.d.",
"  % y a e - - - * - e - - - - - e - - - - - - - - - - - - * - - * * - * - * * - - * - - - w m ! d.d.d.d.d.d.d.d.d.d.d.d.d.d.d.d.",
"                                                                                          : ! d.d.d.d.d.d.d.d.f.d.d.d.d.d.d.d.d."
};
