/* XPM */
static char *result[] = {
/* columns rows colors chars-per-pixel */
"64 64 171 2 ",
"   c #000000",
".  c #040D0B",
"X  c #150606",
"o  c #190808",
"O  c #07120D",
"+  c #09160E",
"@  c #16150C",
"#  c #0B1C14",
"$  c #061715",
"%  c #240E0E",
"&  c #2E1414",
"*  c #351717",
"=  c #351818",
"-  c #3B1919",
";  c #16210E",
":  c #0C2117",
">  c #112D1F",
",  c #3F271E",
"<  c #293D1A",
"1  c #351F21",
"2  c #0A2C2A",
"3  c #072429",
"4  c #102C20",
"5  c #143626",
"6  c #1B3727",
"7  c #183826",
"8  c #163B29",
"9  c #3B2622",
"0  c #3E2A25",
"q  c #3B2D29",
"w  c #362522",
"e  c #431F1F",
"r  c #412A1F",
"t  c #462121",
"y  c #4E2525",
"u  c #422A24",
"i  c #4C2927",
"p  c #472B2B",
"a  c #4A2E2A",
"s  c #512727",
"d  c #532828",
"f  c #4F3127",
"g  c #4E302C",
"h  c #433127",
"j  c #4C3730",
"k  c #652F2F",
"l  c #643232",
"z  c #6B3535",
"x  c #6F3838",
"c  c #713636",
"v  c #753939",
"b  c #7C3C3C",
"n  c #2B411D",
"m  c #1D503C",
"M  c #3D5F2E",
"N  c #22573D",
"B  c #27583C",
"V  c #3C5F3E",
"C  c #3D602D",
"Z  c #1C3F46",
"A  c #0C4C5D",
"S  c #165A57",
"D  c #244B46",
"F  c #2E5B43",
"G  c #265943",
"H  c #325C43",
"J  c #385E45",
"K  c #2A6E4D",
"L  c #286143",
"P  c #336046",
"I  c #2A704E",
"U  c #30714D",
"Y  c #276B5D",
"T  c #276454",
"R  c #306956",
"E  c #2C7553",
"W  c #2F7A56",
"Q  c #2E7D59",
"!  c #327751",
"~  c #347952",
"^  c #307F59",
"/  c #387E54",
"(  c #155C66",
")  c #1A5D66",
"_  c #205E66",
"`  c #1B6462",
"'  c #1C6B60",
"]  c #166F6D",
"[  c #1C736C",
"{  c #23766B",
"}  c #2A766A",
"|  c #2B7969",
" . c #2F7F61",
".. c #367C66",
"X. c gray37",
"o. c #555A5A",
"O. c #494949",
"+. c #656868",
"@. c #9E0000",
"#. c #803F3F",
"$. c #A43535",
"%. c #A53838",
"&. c #844141",
"*. c #8A4545",
"=. c #874847",
"-. c #894847",
";. c #8C4949",
":. c #9E4545",
">. c #924A4A",
",. c #994F4F",
"<. c #9C5151",
"1. c #A64040",
"2. c #A04D4D",
"3. c #A84B4B",
"4. c #A84242",
"5. c #A45555",
"6. c #AA5353",
"7. c #AC5A5A",
"8. c #B25555",
"9. c #B25D5D",
"0. c #B5605F",
"q. c #AE6262",
"w. c #B56261",
"e. c #B77979",
"r. c #B97D7D",
"t. c #578237",
"y. c #63933D",
"u. c #378157",
"i. c #33815A",
"p. c #3C8358",
"a. c #368D63",
"s. c #3C8E61",
"d. c #308465",
"f. c #3D9061",
"g. c #5B8F43",
"h. c #5F9141",
"j. c #44915F",
"k. c #4A935C",
"l. c #6A9E46",
"z. c #669E4B",
"x. c #699F4A",
"c. c #649643",
"v. c #6DA245",
"b. c #69A048",
"n. c #67A04B",
"m. c #71A441",
"M. c #429060",
"N. c #999A9A",
"B. c #959595",
"V. c #BC8787",
"C. c #BF8A8A",
"Z. c #9EA0A0",
"A. c #A0A3A3",
"S. c #A6A8A8",
"D. c #C08C8C",
"F. c #C39595",
"G. c #C69999",
"H. c #CBABAB",
"J. c #D2B5B5",
"K. c gray77",
"L. c #E4D4D4",
"P. c #E2DEDE",
"I. c #ECDCDC",
"U. c gray89",
"Y. c #ECEEEE",
"T. c #F3EBEB",
"R. c #EDF1F1",
"E. c #F5F3F3",
"W. c #F9F4F4",
"Q. c #FFFEFE",
"!. c #F6FBFB",
/* pixels */
"a.a.a.a.s.a.a.a.a.a.a.a.a.a.a.a.a.a.a.a.a.a.a.p.a.a.a.a.a.a.a.a.i.a.a.a.a.a.a.a.a.a.a.a.i.a.a.a.a.a.a.a.a.a.a.a.a.a.a.a.a.a.a.a.",
"a.a.a.a.a.a.a.a.a.a.a.a.a.a.a.a.a.a.a.a.a.a.a.a.a.a.a.a.a.a.a.a.f.s.s.s.a.a.a.a.a.a.a.a.a.a.a.a.a.a.a.a.a.a.a.a.a.a.a.a.a.a.a.a.",
"a.a.a.a.a.a.a.a.a.a.a.a.a.a.a.a.a.a.a.a.a.a.a.a.a.a.a.a.a.a.a.j.b.v.v.b.a.a.a.a.a.a.a.a.a.a.a.a.a.a.a.a.a.a.a.a.a.a.a.a.a.a.a.a.",
"a.a.a.a.a.a.a.a.a.a.a.a.a.a.a.a.a.a.s.a.a.a.a.a.s.s.a.a.E K K ~ l.v.m.v.M.a.a.a.a.a.a.a.a.a.a.a.a.a.a.a.a.a.a.a.a.a.a.a.a.a.a.a.",
"a.a.a.a.a.a.a.a.a.a.a.a.a.a.a.a.a.a.a.a.a.a.a.j.b.x.a.^ 5 O + 5 ^ k.v.m.v.b.a.a.a.a.a.a.a.a.a.a.a.a.a.a.a.a.a.a.a.a.a.a.a.a.a.a.",
"a.a.a.a.a.a.a.a.a.a.a.a.s.a.p.s.s.a.a.a.a.a.a.k.m.b.^ F a s d g J u.b.v.v.x.a.a.a.d.E K K E a.a.a.a.d.a.a.a.a.a.a.a.a.a.a.a.a.a.",
"a.a.a.a.a.a.a.a.a.a.a.a.a.M.v.v.v.b.a.a.a.j.v.v.m.y.7 9 *.5.5.>.y > ! p.s.a.a.a.[ ' 2 . O 5 ^ a.s.d.[ [ [ [ [ { a.a.a.a.a.a.s.a.",
"a.a.a.a.s.a.a.a.a.a.a.a.a.M.v.m.m.b.f.a.a.j.v.v.y.C w z 5.9.5.;.i > E a.a.a.a.a.` D p s d a J W a.a.| } | { [ [ a.a.a.a.a.a.a.a.",
"a.a.a.a.a.a.a.f.a.a.a.f.a.a.f.M.v.v.v.b.a.j.v.y.7 9 *.5.0.5.z 0 H W a.a.a.a.a.Q 3 w =.5.5.>.i 4 S | x.l.x.z.} [ a.a.a.a.a.a.a.a.",
"a.a.a.a.a.a.a.a.a.a.a.a.a.a.a.M.v.v.v.b.a.f.y.C 9 z 5.w.5.=.0 8 i.a.a.a.a.d.i.m 1 z 5.9.7.>.i 4 Y ..v.m.m.x.{ ] a.a.a.a.a.a.a.a.",
"a.a.a.a.a.a.a.a.a.a.a.a.a.a.f.a.s.s.p.s.a.^ 7 , =.5.9.5.z q G a.a.a.a.a.a.Q 2 w *.5.0.5.x u D Y l.l.m.m.m.l._ ( a.a.a.a.a.a.a.a.",
"a.a.a.a.f.a.a.a.a.a.a.a.a.a.a.a.a.a.W I W N 9 z 5.9.5.=.& # L i.E I I E E G 9 z 5.0.5.=.u < Y } x.m.v.m.m.x.) ( a.a.a.a.a.a.a.a.",
"a.a.a.a.a.a.a.a.a.a.a.a.a.a.a.a.a.^ 5 O # q =.5.7.5.z o     # : # # # # # q -.5.0.5.x q G i.( ) M.k.v.v.M.s.( ( a.a.a.a.a.s.a.a.",
"a.a.a.a.a.a.a.a.a.a.a.a.a.a.^ ! ~ P a y e z 5.w.9.<.l * y s i s y y y t e z 5.9.5.&.& $ G d.( ( d.s.b.b.a.d.( ) a.a.a.a.a.a.a.a.",
"a.a.a.a.a.a.a.a.a.a.i.a.a.u.< @ @ h ;.<.<.<.7.7.7.7.<.,.<.<.,.<.<.<.<.<.,.<.7.5.z o     . 3 A ( a.a.f.s.) ( ] [ a.a.a.a.a.a.a.a.",
"a.a.a.a.f.f.f.f.a.a.a.a.u.V f i r z 5.w.9.7.7.7.7.7.7.9.9.9.7.9.9.9.7.9.9.9.0.<.l = y s i p Z S K E a.d.( ` [ { a.a.a.a.a.a.a.a.",
"a.a.a.j.v.v.v.n.a.a.a.p.n r *.<.,.<.7.7.7.7.7.7.7.7.7.7.7.7.7.9.7.9.7.7.7.7.0.5.<.,.,.<.5.-.u + + 5 ^ a.a.a.a.d.a.a.a.a.a.a.a.a.",
"a.a.a.j.v.v.m.n.f.a.Q B r z 5.0.0.7.7.7.7.7.7.7.7.7.7.7.7.7.7.7.7.7.7.7.7.7.7.7.0.7.0.0.w.5.z r y a H ^ a.a.a.a.a.a.s.M.s.s.a.a.",
"a.a.a.f.f.k.m.m.v.g.5 9 *.5.7.9.7.7.7.7.7.7.7.7.7.7.7.7.7.7.7.7.7.7.7.7.7.7.7.7.7.7.7.7.7.7.<.<.5.;.9 7 ^ a.a.a.a.f.b.b.v.b.f.a.",
"a.a.a.a.a.j.v.v.y.M 9 z 2.0.7.7.7.7.7.7.7.7.7.7.7.7.7.7.7.7.7.7.7.7.7.7.7.7.7.7.7.7.7.7.7.7.7.7.7.,.z u B ^ a.a.s.M.m.m.v.b.s.a.",
"a.a.a.a.a.a.f.i.7 9 *.5.7.7.7.7.7.7.7.7.7.7.7.7.7.7.7.7.7.7.7.7.7.7.7.7.7.7.7.7.7.7.7.7.7.7.>.*.=.>.5.;.u 5 ^ s.b.v.m.v.M.s.a.a.",
"a.a.a.a.a.a.i.L 9 z 2.8.6.6.7.7.7.7.7.7.7.7.7.7.7.7.7.7.7.7.5.3.6.6.5.7.7.7.7.7.7.7.7.7.7.5.>.#.b *.5.<.x 9 G ^ b.v.v.n.s.a.a.a.",
"a.a.a.a.a.i.8 w -.2.1.%.%.%.6.7.7.7.7.7.7.7.7.7.7.7.7.9.7.6.1.$.$.1.6.0.7.7.7.7.7.7.7.7.7.7.5.<.*.#.*.>.<.>.u 7 u.f.s.s.a.a.a.a.",
"a.a.a.a.i.N 0 l :.w.D.F.F.C.q.3.7.7.7.7.7.7.7.7.7.7.7.6.2.w.C.F.F.V.q.3.5.7.7.7.7.7.7.7.7.7.9.7.*.b b *.5.<.z 9 B i.a.a.a.a.a.a.",
"a.a.a.i.5 9 -.:.@.r.L.W.E.L.r.@.3.7.7.7.7.7.7.7.7.7.7.3.@.e.L.E.E.L.e.@.3.7.7.7.7.7.7.7.7.7.7.5.*.b b &.*.,.<.*.g 5 E a.a.a.a.a.",
"a.a.i.B , z 2.w.r.J.W.Q.Q.W.J.e.q.6.7.7.7.7.7.7.7.6.5.q.e.J.W.Q.Q.W.J.e.q.6.7.7.7.7.7.7.7.7.7.5.>.&.&.b b *.7.5.s + K a.a.a.a.a.",
"a.E 5 p *.,.1.D.L.W.Q.Q.Q.Q.W.L.V.1.6.7.7.7.7.7.7.6.1.V.L.W.Q.Q.Q.Q.W.L.C.%.6.7.7.7.7.7.7.7.7.7.7.<.&.b b *.7.<.y # K a.a.a.a.a.",
"a.K + y 5.8.$.F.E.Q.Q.Q.Q.Q.Q.E.C.$.6.7.7.7.7.7.7.6.$.F.E.Q.Q.Q.Q.Q.Q.E.F.$.6.7.7.7.7.7.7.7.7.7.7.6.,.&.#.*.7.<.s : I a.s.a.a.a.",
"a.I # y <.8.%.D.T.Q.Q.Q.Q.Q.Q.T.C.1.2.7.7.7.7.7.7.6.$.D.T.Q.Q.Q.Q.Q.Q.T.C.%.6.5.7.7.7.7.7.7.7.7.7.7.7.<.&.*.7.<.s # I a.a.a.a.a.",
"a.I # s <.6.%.F.T.Q.R.U.U.Y.Q.T.F.%.6.7.7.7.7.7.7.3.%.F.T.Q.R.U.U.Y.Q.T.G.%.6.7.7.7.7.7.7.7.7.7.7.7.9.5.*.*.5.<.s : I a.a.a.a.a.",
"a.I # y <.8.%.F.W.E.S.X.O.N.R.E.F.%.6.7.7.7.7.7.7.2.%.F.W.E.S.X.O.N.E.E.F.%.6.7.7.7.7.7.7.7.7.7.7.7.9.5.*.*.5.<.s : W a.a.a.a.a.",
"a.I # y <.6.%.G.W.Y.+.    Z.E.W.G.%.6.7.7.7.7.7.7.6.%.G.W.Y.+.    N.E.W.G.%.2.7.7.7.7.7.7.7.7.7.7.7.7.5.*.*.7.<.y + N i.a.a.a.a.",
"a.I # y <.6.%.G.!.R.o.  K.E.Q.W.F.$.6.7.7.7.7.7.7.6.$.G.!.R.o.  K.E.Q.W.F.%.6.7.7.7.7.7.7.7.7.5.7.7.7.5.*.*.7.<.t   . 6 E a.a.a.",
"a.I # s <.7.4.C.I.P.B.A.!.Q.W.L.V.1.6.7.7.7.7.7.7.5.1.C.I.P.B.A.!.Q.W.L.V.%.6.7.7.7.7.7.7.7.7.7.7.7.9.5.&.*.5.5.v - o + K a.a.a.",
"a.I # y ,.9.6.w.r.H.P.Q.Q.!.J.e.q.6.5.7.7.7.7.7.7.6.6.w.r.H.P.!.Q.!.J.r.w.5.7.7.7.7.7.7.7.7.7.7.7.7.7.5.*.*.5.9.5.-.t # I a.a.a.",
"a.I # s ,.9.q.3.@.r.I.W.W.L.r.@.3.7.7.7.7.7.7.7.7.7.9.3.@.r.I.!.W.L.r.@.3.7.7.7.7.7.7.7.7.7.7.7.7.7.7.5.*.&.<.6.w.<.s # I a.a.a.",
"a.I # s <.9.7.6.3.q.D.G.F.V.w.2.5.7.7.7.7.7.7.7.7.7.7.7.3.w.C.G.G.D.q.3.5.7.7.7.7.7.7.7.7.7.7.7.7.9.9.5.&.b &.,.7.5.d # I a.a.a.",
"a.I # y ,.9.7.7.9.6.%.%.$.1.6.7.9.7.7.7.7.7.7.7.7.7.7.7.9.5.1.$.$.%.5.9.7.7.7.7.7.7.7.7.7.7.7.7.7.7.7.5.>.&.#.*.7.<.s # I a.a.a.",
"a.I # s ,.9.7.7.7.7.5.6.6.6.5.7.7.7.7.7.7.7.7.7.7.7.7.7.7.5.6.6.3.5.5.7.7.7.7.7.7.7.7.7.7.7.7.7.7.7.7.7.7.<.&.*.7.<.s # I a.a.a.",
"a.I # y ,.9.9.7.7.7.7.7.7.7.7.7.7.7.7.7.9.7.7.7.7.7.7.7.7.7.7.7.7.9.7.7.7.7.7.7.7.7.7.7.7.5.7.7.7.7.7.7.9.5.*.*.5.<.d # I a.a.a.",
"a.E # y <.9.7.7.7.7.7.7.7.7.7.7.7.7.7.9.9.7.9.9.7.7.7.7.7.7.7.7.7.7.7.7.7.7.7.7.7.7.7.7.7.7.7.7.7.7.7.9.7.6.*.*.7.<.s # I a.a.a.",
"a.K # s <.7.7.7.7.7.7.7.7.7.7.7.7.7.<.<.<.<.<.<.7.7.7.7.7.7.7.7.7.7.7.7.7.7.7.7.7.7.7.7.7.7.7.7.7.7.7.7.9.5.&.*.5.<.s # I a.a.a.",
"a.I # y <.9.9.7.7.7.7.7.7.7.7.7.9.<.l = y y = l <.9.9.7.7.7.7.7.7.7.7.7.7.7.7.7.7.7.7.7.7.7.7.7.7.7.7.7.7.5.*.*.7.<.s # I a.a.a.",
"a.K # y <.9.7.7.7.7.7.7.7.7.7.7.9.<.l o     o l <.9.7.7.7.7.7.7.7.7.7.7.7.7.7.7.7.7.7.7.7.7.7.7.7.7.7.7.7.5.*.*.5.<.s # I f.f.f.",
"a.K + y <.0.7.7.7.7.7.7.7.7.7.7.7.7.<.=.X X &.5.6.7.7.7.7.7.7.7.6.7.7.7.7.7.7.7.7.7.7.7.7.7.7.7.7.7.7.7.7.5.*.*.7.<.d # t.v.v.v.",
"a.E 5 a -.5.7.7.7.7.7.7.7.7.7.7.7.7.0.5.l l 5.9.7.7.7.7.7.7.7.7.7.7.7.7.7.7.7.7.7.7.7.5.7.7.7.7.7.7.7.7.7.5.*.*.5.<.d # t.m.v.v.",
"a.i.W P q z <.9.7.7.7.7.7.7.7.7.7.7.9.7.<.<.5.7.9.7.7.7.7.5.7.7.7.7.7.7.7.7.7.7.7.7.7.7.7.7.7.7.7.7.7.7.9.5.*.*.7.<.s ; t.v.M.s.",
"a.a.a.W # t <.9.7.7.7.7.7.7.7.7.7.7.7.7.9.w.7.7.7.7.7.7.7.7.7.7.7.7.7.7.7.7.7.7.7.7.7.7.7.7.7.7.7.7.7.7.7.6.*.*.5.<.d ; t.b.a.a.",
"a.a.a.E + y <.w.7.7.7.7.7.7.7.7.7.7.7.7.9.7.7.7.7.7.7.7.7.7.7.7.7.7.7.7.7.7.7.7.7.7.7.7.7.7.7.7.7.7.7.7.7.5.*.*.5.<.s # ~ s.a.a.",
"a.a.a.E 5 g =.<.7.7.7.7.7.7.7.7.7.7.7.7.7.7.7.7.7.7.5.7.7.7.5.9.7.7.7.7.7.7.7.7.7.7.7.7.7.7.7.7.7.7.7.7.7.5.*.*.7.<.s + N ^ a.a.",
"a.a.a.a.i.F q z <.7.7.7.7.7.7.7.7.7.7.7.7.7.7.7.7.7.7.7.7.7.7.7.7.7.7.7.7.5.7.7.7.7.7.7.7.7.7.7.7.7.7.7.9.6.*.*.7.<.r   . 6 ! a.",
"a.a.a.a.d.E $ t <.w.7.7.7.7.7.7.7.7.7.7.7.7.7.7.7.7.7.7.7.7.7.7.7.7.7.7.7.7.7.7.7.7.7.7.7.7.7.7.7.7.7.7.7.5.*.*.5.5.x - o O K a.",
"a.a.a.a.[ T @ t <.9.9.7.7.7.7.7.7.7.5.7.7.7.7.7.7.7.7.7.7.7.7.7.7.7.7.7.7.7.7.7.7.7.7.7.7.7.7.7.7.7.7.9.9.5.*.*.5.9.5.=.t # K a.",
"a.a.a.a.] R < f -.5.7.7.7.7.7.7.7.7.7.7.7.7.7.7.7.7.7.7.7.7.7.7.7.7.7.7.7.7.7.7.7.7.7.7.7.7.7.7.7.7.5.5.5.<.&.*.<.7.9.5.s # K a.",
"a.a.a.d.[ [ Y G 0 z 5.9.7.7.7.7.7.7.7.7.7.7.7.7.7.7.7.7.7.7.7.7.7.7.7.7.7.7.7.7.7.7.7.7.7.7.9.9.9.7.>.*.*.*.&.#.*.,.7.<.s # K a.",
"a.a.a.a.[ [ ] ' 5 9 =.5.7.9.7.7.7.7.7.7.7.7.7.7.7.7.7.7.7.7.7.7.7.7.7.7.7.7.7.7.7.7.7.7.7.7.5.5.5.2.*.b #.#.#.#.b *.7.<.y # E a.",
"a.a.a.a.a.a.a.a.Q N , z <.w.9.9.7.7.7.7.7.7.7.7.7.7.7.7.7.7.7.7.7.7.7.7.7.7.7.9.9.7.7.9.9.5.>.*.*.*.&.b #.#.#.#.b *.7.<.t # W a.",
"a.a.a.a.a.a.a.a.a.^ 5 0 -.<.<.<.7.7.7.7.7.7.7.7.7.7.7.7.7.7.7.7.7.7.7.7.7.7.5.5.5.6.5.5.5.5.&.b b b &.&.&.#.&.#.#.*.5.,.z q P E ",
"a.a.a.a.a.a.a.a.a.a.i.F a y e z 5.9.9.7.9.9.7.9.7.9.7.9.7.9.7.9.7.9.9.7.9.7.,.&.*.*.*.*.*.*.&.#.#.&.&.#.#.&.#.&.#.&.*.>.<.;.j # ",
"a.a.a.a.a.a.a.a.a.a.a.W 5 + # q =.5.5.5.5.5.5.5.5.5.5.5.5.6.5.6.5.5.6.5.5.<.*.b #.#.#.#.#.#.#.&.&.&.#.&.&.&.&.#.&.#.b >.0.5.d   ",
"a.a.a.a.a.f.a.a.a.a.a.a.E I E F u k &.;.>.*.>.>.>.>.>.*.>.>.>.*.>.*.>.>.>.*.*.&.&.&.&.#.&.&.&.&.&.&.&.&.&.&.&.&.&.&.#.>.9.5.d   ",
"a.a.a.a.a.a.a.a.a.a.a.a.a.a.a.W 6 @ l v v c c v c c c c c c c c c c c c c c v v v v b v v v b v v v v v v v b v v v c &.<.;.y   ",
"a.a.a.a.a.a.a.a.a.a.a.a.a.a.a.a.^ N 9 - * * - * - - * - - - * - * - - * - - - - e - - - - - - - - e - - - e - - - - - e s y %   ",
"a.a.a.a.a.a.a.a.a.a.a.a.a.a.a.a.a.W #                                                                                           "
};
