/* XPM */
static char *result[] = {
/* columns rows colors chars-per-pixel */
"64 64 169 2 ",
"   c #000000",
".  c #030B0A",
"X  c #150606",
"o  c #07120D",
"O  c #09150D",
"+  c #121B0B",
"@  c #051513",
"#  c #081610",
"$  c #0B1C14",
"%  c #071917",
"&  c #111E15",
"*  c #240E0E",
"=  c #371717",
"-  c #351818",
";  c #3A1919",
":  c #16210D",
">  c #1A230F",
",  c #112D1F",
"<  c #152110",
"1  c #3F271E",
"2  c #293E1A",
"3  c #273C1B",
"4  c #0A2829",
"5  c #102C20",
"6  c #143626",
"7  c #183826",
"8  c #1D3626",
"9  c #0A353D",
"0  c #3B2622",
"q  c #3E2A25",
"w  c #3E2F28",
"e  c #431F1F",
"r  c #41291F",
"t  c #452020",
"y  c #4E2525",
"u  c #402925",
"i  c #4C2927",
"p  c #4A2E2A",
"a  c #472A2A",
"s  c #512727",
"d  c #532929",
"f  c #592B2B",
"g  c #4F3127",
"h  c #4D302B",
"j  c #463225",
"k  c #4E3730",
"l  c #653232",
"z  c #6C3636",
"x  c #6D3838",
"c  c #713636",
"v  c #743939",
"b  c #7D3D3D",
"n  c #2B401B",
"m  c #3D5F2E",
"M  c #24563D",
"N  c #23593E",
"B  c #2A5739",
"V  c #3C5F3E",
"C  c #46632D",
"Z  c #557F35",
"A  c #1A3E47",
"S  c #0C4D5A",
"D  c #16585A",
"F  c #174A43",
"G  c #214B47",
"H  c #325D43",
"J  c #385E45",
"K  c #335545",
"L  c #235858",
"P  c #17645E",
"I  c #2A6E4D",
"U  c #3A6045",
"Y  c #2A704E",
"T  c #33724C",
"R  c #38764E",
"E  c #22685C",
"W  c #306B57",
"Q  c #2C7552",
"!  c #2F7A55",
"~  c #2E7D58",
"^  c #277052",
"/  c #327752",
"(  c #347C54",
")  c #307E58",
"_  c #155C66",
"`  c #1C5D66",
"'  c #205E66",
"]  c #176760",
"[  c #176A6A",
"{  c #1C736C",
"}  c #206F69",
"|  c #286363",
" . c #23766B",
".. c #29766A",
"X. c #2B7969",
"o. c #367C66",
"O. c gray37",
"+. c #555A5A",
"@. c #494949",
"#. c #656868",
"$. c #9E0000",
"%. c #813F3F",
"&. c #A33535",
"*. c #A43838",
"=. c #854242",
"-. c #8A4545",
";. c #8A4947",
":. c #8D4949",
">. c #914949",
",. c #994F4F",
"<. c #9C5151",
"1. c #A64040",
"2. c #A84B4B",
"3. c #A45555",
"4. c #A95353",
"5. c #AC5A5A",
"6. c #B15D5D",
"7. c #B5605F",
"8. c #AE6262",
"9. c #B56060",
"0. c #B77979",
"q. c #B97E7E",
"w. c #568036",
"e. c #5C883B",
"r. c #63933E",
"t. c #378157",
"y. c #3B8156",
"u. c #338159",
"i. c #308564",
"p. c #368D63",
"a. c #3C8E61",
"s. c #3D9061",
"d. c #5B8F43",
"f. c #408F5E",
"g. c #44915E",
"h. c #4B935C",
"j. c #609140",
"k. c #6A9E46",
"l. c #669D4B",
"z. c #699E49",
"x. c #6DA245",
"c. c #69A048",
"v. c #67A04B",
"b. c #71A441",
"n. c #419060",
"m. c #999A9A",
"M. c #959595",
"N. c #BC8787",
"B. c #BF8C8C",
"V. c #9EA0A0",
"C. c #A0A3A3",
"Z. c #A6A8A8",
"A. c #C08C8C",
"S. c #C39595",
"D. c #C69999",
"F. c #CBABAB",
"G. c #D2B5B5",
"H. c gray77",
"J. c #E4D4D4",
"K. c #E2DEDE",
"L. c #ECDCDC",
"P. c gray89",
"I. c #ECEEEE",
"U. c #F3EBEB",
"Y. c #EDF1F1",
"T. c #F5F3F3",
"R. c #F9F4F4",
"E. c #F6FBFB",
"W. c #FFFEFE",
/* pixels */
"p.p.p.p.p.p.p.p.p.p.p.p.p.p.p.p.p.p.p.p.p.t.p.p.p.p.p.p.p.p.p.p.u.p.p.p.u.p.p.p.p.p.p.t.p.p.p.p.p.p.p.p.p.p.p.p.p.p.p.p.p.p.p.p.",
"p.p.p.p.p.s.p.p.p.p.p.p.p.p.p.p.p.p.p.p.p.p.p.p.Q I I ^ p.p.p.p.a.a.s.a.p.p.Q I I Q i.p.p.p.p.p.p.p.p.p.p.p.p.p.p.p.p.p.p.p.a.p.",
"p.p.p.p.p.p.p.p.p.p.p.p.p.a.p.p.p.p.p.p.p.p.p.u.6 o o 6 ~ p.p.s.c.x.c.v.p.~ 6 o o 6 ) p.p.p.p.p.p.p.a.p.p.p.p.p.p.p.p.p.p.p.p.p.",
"p.p.p.p.p.p.p.p.p.p.p.p.p.p.p.p.p.p.p.p.p.p.u.U p s s p U u.u.g.x.x.b.x.y.U p i d p J ~ p.p.p.p.p.p.p.p.p.p.p.p.p.p.p.p.p.p.p.p.",
"p.p.p.p.p.a.p.p.p.p.p.p.p.p.p.p.p.p.p.p.p.Q 6 h ;.3.3.>.i , Q p.y.g.b.e.2 g :.3.3.>.i 5 Q p.p.p.p.p.p.p.p.p.p.p.p.p.p.p.p.p.p.p.",
"p.p.p.p.p.p.p.p.p.p.p.p.p.p.a.n.a.a.p.p.p.I O s 3.6.5.:.i , ! p.p.g.x.Z O s <.7.5.:.i 5 Q p.p.p.p.p.p.p.i.i.p.p.p.p.p.p.p.p.p.p.",
"p.p.p.p.p.p.p.p.p.p.p.p.p.n.x.x.x.v.p.p.p.T + d 3.5.x q H ~ u.p.p.p.s.Y $ d 3.5.x q G P p.p.p.p.p.p.{ { { { {  .p.p.p.p.p.p.p.p.",
"p.p.p.p.p.p.p.p.p.p.p.p.p.g.x.x.b.c.a.a.p.T : i :.>.u 7 ~ p.p.p.p.p.p.Y $ y >.:.q 6 | X.i.p.p.p.p.p.....X...{ { p.p.p.p.a.p.p.p.",
"p.p.p.p.p.p.p.p.p.p.p.p.p.p.s.n.b.b.x.v.p./ > * y k H ) p.p.p.p.p.p.p.Q $ * y k A L l.l. . .i.p.} X.z.z.z.l. .{ p.p.p.p.p.s.p.p.",
"p.p.p.p.p.p.p.p.p.p.p.s.p.p.p.n.x.x.x.v.p.R >     $ ~ p.p.p.p.p.p.p.p.! <     $ S | k.l.X...p.i...o.x.b.b.l. .{ p.p.p.p.p.p.p.p.",
"p.p.s.p.p.p.p.p.p.p.p.p.s.p.s.p.p.y.n.a.p.! <     $ ( p.p.p.p.p.p.p.p.! &     % D { a.g.k.l...X.z.x.b.b.b.z.' _ i.p.p.p.p.p.p.p.",
"p.p.p.p.p.p.p.p.p.p.p.p.p.p.p.p.p.p.Q ^ ( G #     # N Q Q Y I I Y Y ! N #     @ F E ^ T Z d.} ..x.x.x.b.b.z.' _ p.p.p.p.p.p.p.s.",
"p.p.p.s.p.p.p.p.p.p.p.p.p.p.p.p.p.) 6 o # O .     . O $ $ $ $ $ $ $ $ # .       + < % @ o 8 D ` n.n.b.x.n.a._ _ p.p.p.p.p.p.p.p.",
"p.p.p.p.p.p.p.p.p.p.p.p.p.p./ Q / H p s s y s s d s s i i i s i s i s i s s s s s i d t X . 9 S i.a.x.z.p.i._ _ p.p.p.p.p.p.p.p.",
"p.p.p.p.p.p.p.p.p.p.p.p.p.y.2 + + j ;.<.<.<.<.<.<.<.,.,.<.<.<.<.<.<.,.<.<.<.<.<.<.<.3.;.;   . 4 ~ p.n.a._ _ { { p.p.p.p.p.p.p.p.",
"p.p.p.p.s.s.a.a.p.p.p.p.u.V g y r z 3.7.6.6.6.6.5.6.6.6.6.6.5.9.6.6.5.6.6.6.5.6.5.6.6.3.c t i a H ! ^ W _ [ {  .p.p.p.p.p.p.p.p.",
"p.p.p.n.x.x.x.v.p.p.p.y.n r -.<.,.<.5.6.5.5.5.6.5.5.5.5.5.6.5.5.6.5.5.5.6.5.5.5.5.6.5.5.<.<.<.;.w $ @ 6 ~ i.p.p.p.p.p.p.p.p.p.p.",
"p.p.p.n.x.x.b.v.s.p.~ B 1 z 3.7.9.5.5.5.5.5.5.5.5.5.5.5.5.5.5.5.5.5.5.5.5.5.5.5.5.5.5.5.6.6.9.3.z t i p H ~ p.p.p.p.a.a.a.s.p.p.",
"p.p.p.s.s.h.b.b.x.d.6 0 ;.3.5.5.5.5.5.5.5.5.5.5.5.5.5.5.5.5.5.5.5.5.5.5.5.5.5.5.5.5.5.5.5.5.5.5.3.<.3.;.q 6 ) p.p.a.z.x.x.c.s.p.",
"p.p.p.p.s.n.x.x.r.m 0 z 3.6.5.5.5.5.5.5.5.5.5.5.5.5.5.5.5.5.5.5.5.5.5.5.5.5.5.5.5.5.5.5.5.5.5.5.4.5.5.<.z u B ) a.n.x.b.x.c.s.p.",
"p.p.p.p.p.p.s.u.7 0 -.3.5.5.5.5.5.5.5.5.5.5.5.5.5.5.5.5.5.5.5.5.5.5.5.5.5.5.5.5.5.5.5.5.5.5.6.5.>.;.;.>.<.>.q 6 r.x.b.c.n.a.p.p.",
"p.p.p.p.p.p.u.H 0 z <.9.5.5.5.5.5.4.4.4.4.4.5.5.5.5.5.5.5.5.5.5.5.5.5.5.5.5.5.5.4.4.4.4.5.5.5.3.>.%.b =.3.<.z q C r.x.c.a.p.p.p.",
"p.p.p.p.p.u.6 0 ;.3.5.6.5.5.5.5.5.4.1.*.&.1.4.5.5.5.5.5.5.5.5.5.5.5.5.5.5.5.8.4.*.*.&.*.4.5.5.5.4.<.=.b -.>.3.>.q 7 t.a.p.p.p.p.",
"p.p.p.p.u.N 0 l 3.9.5.5.5.5.5.5.2.8.N.S.S.N.8.2.4.5.5.5.5.5.5.5.5.5.5.5.5.4.2.8.N.S.D.N.8.2.5.5.5.5.,.=.b ;.3.<.z q N u.p.p.p.p.",
"p.p.p.u.6 1 -.3.5.5.5.5.5.5.5.2.$.0.J.R.T.J.0.$.2.5.5.5.5.5.5.5.5.5.5.5.5.2.$.q.J.R.T.J.0.$.2.5.5.5.4.3.=.b -.>.<.:.0 6 u.p.p.p.",
"p.p.u.H 0 z <.9.5.5.5.5.5.4.4.8.0.G.R.W.W.R.G.0.8.4.5.5.5.5.5.5.5.5.5.4.4.9.0.G.R.W.W.R.G.0.8.4.5.5.6.3.>.=.b ;.5.<.z 0 H ) p.p.",
"p.Q 6 w ;.3.5.6.5.5.5.5.5.4.*.N.J.R.W.W.W.W.R.J.N.*.4.5.5.4.5.5.5.5.5.4.1.N.J.R.W.W.W.W.R.J.N.*.4.5.5.5.3.3.=.b -.>.<.;.p 6 Q p.",
"p.I o a <.7.5.5.5.5.5.5.5.4.*.S.T.W.W.W.W.W.W.T.S.*.4.5.5.5.5.5.5.5.5.3.*.B.T.W.W.W.W.W.W.T.S.*.4.5.5.6.6.3.,.=.b ;.5.3.d o I p.",
"p.I # s <.6.5.5.5.5.5.5.5.4.*.S.U.W.W.W.W.W.W.U.S.*.4.5.5.5.5.5.5.5.5.4.*.B.U.W.W.W.W.W.W.U.S.*.2.5.5.5.5.5.4.<.=.-.5.<.s # Y p.",
"p.I $ s <.6.6.5.5.5.5.5.5.4.*.S.U.W.Y.P.P.I.W.U.S.*.4.5.5.5.5.5.5.5.5.4.*.S.U.W.I.P.P.I.W.U.S.*.4.5.5.5.5.5.6.3.;.-.3.<.s $ Y p.",
"p.^ $ i <.6.5.5.5.5.5.5.5.4.*.S.R.T.Z.O.@.m.Y.R.S.*.4.5.5.5.5.5.5.5.5.2.*.S.T.T.Z.O.@.m.Y.R.S.*.2.5.5.5.5.5.6.3.-.-.5.<.d $ Y p.",
"p.I $ i <.5.5.5.5.5.5.5.5.2.*.S.R.I.#.    V.T.R.S.*.2.5.5.5.5.5.5.5.5.4.*.D.R.I.#.    V.T.R.S.*.4.5.5.5.5.5.5.3.-.-.5.<.s $ Y p.",
"p.Y # s <.6.5.5.5.5.5.5.5.4.*.D.W.Y.+.  H.R.W.R.S.*.4.5.5.5.5.5.5.5.5.4.*.D.W.Y.+.  H.T.W.T.D.*.2.5.5.5.5.5.6.3.-.;.3.3.s $ I p.",
"p.I $ s <.6.6.5.5.5.5.5.5.4.1.B.L.K.M.C.E.W.E.J.N.*.4.5.5.5.5.5.5.5.5.4.*.B.L.K.M.C.R.W.E.J.N.1.4.5.5.5.5.5.5.3.-.-.5.<.s $ Y p.",
"p.Y $ i <.5.5.5.5.5.5.5.5.5.4.8.q.F.K.E.W.E.G.0.8.4.5.5.5.5.5.5.5.5.5.4.4.8.q.F.K.E.W.W.G.0.9.4.5.5.5.5.5.5.5.3.-.-.4.<.s $ Y p.",
"p.Y $ i <.6.5.5.5.5.5.5.5.5.5.2.$.q.L.R.R.J.0.$.2.5.5.5.6.3.5.5.5.5.5.5.5.2.$.q.L.W.R.J.0.$.2.5.5.5.5.5.5.5.6.3.-.-.3.<.s $ Y p.",
"p.I $ s ,.5.5.5.5.5.5.5.5.5.5.3.2.9.B.D.S.N.9.2.5.5.5.5.5.5.5.5.5.5.5.5.5.5.2.8.A.D.S.N.8.2.5.5.5.5.5.5.5.5.5.3.-.;.3.<.d $ Y p.",
"p.Q $ i <.6.6.5.5.5.5.5.5.5.5.5.5.4.1.*.&.1.4.5.5.5.5.5.5.5.5.5.5.5.5.5.5.5.5.4.1.&.*.*.4.5.5.5.5.5.5.5.5.5.5.3.-.;.5.<.s $ Y p.",
"p.Y $ s <.6.5.5.5.5.5.5.5.5.5.5.5.4.4.4.4.4.3.5.5.5.5.5.5.5.5.5.5.5.5.5.5.5.5.5.4.2.3.4.5.5.5.5.5.5.5.5.5.5.5.3.=.-.5.<.s $ Y p.",
"p.Y # s <.5.5.5.5.5.5.5.5.5.5.5.5.5.5.5.5.5.5.5.5.5.5.5.5.5.6.5.5.5.5.5.5.5.5.5.5.5.5.5.5.5.5.5.5.5.3.5.5.5.6.3.-.-.5.<.s $ Y p.",
"p.Y $ s <.6.5.5.5.5.5.5.5.5.5.5.5.5.5.5.5.5.5.5.5.5.5.5.6.6.6.6.9.5.5.5.5.5.5.5.5.5.5.5.5.5.5.3.5.5.5.5.5.5.6.3.-.-.3.<.d $ I p.",
"p.Y # s <.6.5.5.5.5.5.5.5.5.5.5.5.5.5.5.5.5.5.5.5.5.5.5.<.,.,.,.,.<.5.5.5.5.5.5.5.5.5.5.5.5.5.5.5.5.5.5.5.5.5.3.-.-.5.<.d $ Y p.",
"p.Y $ i <.6.5.5.5.5.5.5.5.5.5.5.5.5.5.5.5.5.5.5.5.5.6.<.l - i i - l <.8.5.5.5.5.5.5.5.5.5.5.5.5.5.5.5.5.5.5.5.3.-.-.4.<.s $ Y p.",
"p.Y $ s <.6.5.5.5.5.5.5.5.5.5.5.5.5.5.5.5.5.5.5.5.5.6.<.l X     X l <.6.5.5.5.5.5.5.5.5.5.5.5.5.5.5.5.5.5.5.6.3.-.-.4.<.d $ Y s.",
"p.I # s <.6.5.5.5.5.5.5.5.5.5.5.5.5.5.5.5.5.5.5.5.5.5.5.<.-.X X -.<.5.5.5.5.5.5.5.5.5.5.5.5.5.5.5.5.5.5.5.5.6.3.=.-.5.<.s > w.x.",
"p.Q # i <.6.5.5.5.5.5.3.5.5.5.5.5.5.5.5.5.5.5.5.5.5.5.6.9.<.l z 3.9.5.5.5.5.5.5.5.5.5.5.5.5.5.5.5.5.5.5.5.5.4.<.:.>.5.<.s + w.x.",
"p.I O i <.9.5.5.5.5.5.5.5.5.5.5.5.5.5.5.5.5.5.3.5.5.5.5.5.5.<.<.5.5.5.5.5.5.5.5.5.5.5.5.5.5.5.5.5.5.5.5.5.3.>.:.3.5.7.<.s O T s.",
"p.Q 6 h ;.3.5.5.5.5.5.5.5.5.5.5.5.5.5.5.5.5.5.5.5.5.5.5.5.5.6.5.5.5.5.5.5.5.5.5.5.5.5.5.5.5.5.5.5.5.5.5.6.3.=.=.3.5.3.:.g 2 / p.",
"p.p.) H w x <.5.5.5.5.5.5.5.5.5.5.5.5.5.5.5.5.5.5.5.5.5.5.5.5.5.5.5.5.5.5.5.5.5.5.5.5.5.5.5.5.5.5.5.5.5.6.3.-.=.5.3.x w U u.u.p.",
"p.p.p.Q $ ; <.6.5.5.5.5.5.5.5.5.5.5.5.5.5.5.5.5.5.5.5.5.5.5.5.5.5.5.5.5.5.5.5.5.5.5.5.5.5.5.5.5.5.5.5.5.4.<.:.>.5.<.t # Q p.p.p.",
"p.p.p.Q O y <.7.9.5.5.5.5.5.5.5.5.5.5.5.5.5.5.5.5.5.5.3.5.5.5.5.5.5.5.5.5.5.5.5.5.5.5.5.5.5.5.5.5.5.5.3.>.:.<.5.6.<.i O Q s.p.p.",
"p.p.p.Q 6 h ;.3.5.5.5.5.5.5.5.5.5.5.5.5.5.5.5.5.5.5.5.5.5.5.5.5.5.5.5.5.5.5.5.5.5.5.5.5.5.5.5.5.5.5.6.3.=.;.3.5.3.;.p 6 ! p.p.p.",
"p.p.p.i.] K j z <.6.5.5.5.5.5.5.5.5.5.5.5.5.5.5.5.5.5.5.5.5.5.5.5.5.5.3.5.5.5.5.5.5.5.5.5.5.5.5.5.5.6.3.;.-.4.3.x w H u.p.p.p.p.",
"p.p.p.p.{ W > ; <.9.6.5.5.5.3.5.5.5.5.5.5.5.5.5.5.5.5.5.5.5.5.5.5.5.5.5.5.5.5.5.5.5.5.5.5.5.5.5.5.5.3.<.-.-.5.<.t $ ! p.p.p.p.p.",
"p.p.p.i.{ P @ i ,.6.6.5.5.5.5.5.5.5.5.5.5.5.5.5.5.5.5.5.5.5.5.5.5.5.5.5.5.5.5.5.5.3.5.5.5.5.5.5.6.4.,.=.b >.5.<.y $ Y p.p.p.p.p.",
"p.p.a.i.{ D @ a <.5.3.3.5.5.5.5.5.5.5.5.5.5.5.5.5.5.5.5.5.5.5.5.5.5.5.5.5.5.5.5.5.5.5.5.6.5.5.5.5.<.=.b b -.5.,.y $ Q p.p.p.p.p.",
"p.p.p.p.p.! $ t <.5.>.>.4.5.5.5.5.5.5.5.5.5.5.5.5.5.5.5.5.5.5.5.5.5.5.5.5.5.5.5.5.5.5.5.5.6.6.3.>.=.%.%.b >.5.<.t $ ! p.p.p.p.p.",
"p.p.p.i.u.G w x 3.3.-.=.<.5.5.5.5.5.5.5.5.5.5.5.6.5.5.5.5.5.5.5.5.5.6.5.5.5.5.5.5.5.5.5.3.3.4.<.-.b %.%.b >.3.3.x w N u.p.p.p.p.",
"p.p.p.u.6 0 ;.3.5.5.;.b =.>.5.5.6.5.6.4.6.5.5.5.5.5.6.5.6.5.6.5.5.6.5.6.6.5.6.5.5.6.6.4.,.-.;.;.=.b %.%.b -.4.6.<.;.q 6 u.p.p.p.",
"p.p.u.U q x 3.9.5.<.-.%.b ;.<.5.4.3.3.3.3.4.5.3.3.4.3.3.4.3.3.4.3.3.3.3.3.3.4.3.4.3.3.3.;.b b %.%.=.=.=.%.-.,.5.9.3.x q H ~ p.p.",
"p.Q 6 j >.3.9.5.,.-.=.-.=.=.>.>.>.>.>.>.-.>.>.>.>.>.>.-.>.>.>.-.-.>.>.>.>.>.>.-.>.>.>.-.-.%.=.=.-.=.=.-.=.;.-.,.5.6.5.:.h 6 Q p.",
"p.I O t >.3.3.>.b z v v v v c c c v c c c c c c c c c c c v c c c c c c c c c c c c c c v v v v v v v v v v z b ,.3.3.>.t O I p.",
"p.Y # * i f d i e = ; ; ; ; ; ; ; = = ; = ; ; = = ; ; ; ; = = ; = ; ; = = ; ; ; ; ; ; ; ; ; e ; ; ; ; ; ; ; ; ; y d f i * # I p.",
"p.^ <                                                                                                                     $ Y p."
};
