/* XPM */
static char *result[] = {
/* columns rows colors chars-per-pixel */
"64 64 138 2 ",
"   c #000000",
".  c #030B0A",
"X  c #160707",
"o  c #07130D",
"O  c #0A150D",
"+  c #121B0C",
"@  c #051513",
"#  c #081610",
"$  c #071816",
"%  c #0B1C14",
"&  c #081918",
"*  c #111E16",
"=  c #240E0E",
"-  c #371717",
";  c #3A1919",
":  c #15200E",
">  c #18240F",
",  c #152110",
"<  c #112D1F",
"1  c #3F271E",
"2  c #273C1C",
"3  c #293E1A",
"4  c #082428",
"5  c #102D20",
"6  c #143626",
"7  c #1D3626",
"8  c #183826",
"9  c #0A353D",
"0  c #3B2622",
"q  c #3E2A25",
"w  c #3E2F28",
"e  c #431F1F",
"r  c #41291F",
"t  c #452020",
"y  c #4E2525",
"u  c #412925",
"i  c #4C2927",
"p  c #472A2A",
"a  c #4A2E2A",
"s  c #512727",
"d  c #532929",
"f  c #592B2B",
"g  c #463225",
"h  c #4F3127",
"j  c #4D302C",
"k  c #523229",
"l  c #563A2B",
"z  c #4D3730",
"x  c #6C3636",
"c  c #6D3838",
"v  c #713636",
"b  c #743939",
"n  c #7D3D3D",
"m  c #2B401B",
"M  c #3D5F2E",
"N  c #24563D",
"B  c #2A5739",
"V  c #23593E",
"C  c #3C5F3E",
"Z  c #46632D",
"A  c #596A33",
"S  c #557F35",
"D  c #174A43",
"F  c #0B4651",
"G  c #0D4854",
"H  c #165C56",
"J  c #185C55",
"K  c #14535D",
"L  c #135E5C",
"P  c #185D58",
"I  c #335545",
"U  c #325D43",
"Y  c #385E45",
"T  c #2A6E4D",
"R  c #3B6144",
"E  c #2A704E",
"W  c #31714C",
"Q  c #206659",
"!  c #306B57",
"~  c #277052",
"^  c #2D7553",
"/  c #2F7A56",
"(  c #2F7D59",
")  c #317651",
"_  c #337B54",
"`  c #3A7F53",
"'  c #307F58",
"]  c #155C66",
"[  c #1C5D66",
"{  c #205E66",
"}  c #176760",
"|  c #1A6066",
" . c #126F6D",
".. c #196E6C",
"X. c #1C736C",
"o. c #286363",
"O. c #206F69",
"+. c #23766B",
"@. c #29766A",
"#. c #2B7969",
"$. c #367C66",
"%. c #813F3F",
"&. c #854242",
"*. c #8A4545",
"=. c #894947",
"-. c #8D4949",
";. c #914949",
":. c #994F4F",
">. c #9C5151",
",. c #A45555",
"<. c #A85757",
"1. c #AC5A5A",
"2. c #B15D5D",
"3. c #B5605F",
"4. c #B56060",
"5. c #568036",
"6. c #59853F",
"7. c #5E8E3D",
"8. c #62933D",
"9. c #368157",
"0. c #3D8255",
"q. c #338159",
"w. c #3E8C5E",
"e. c #308564",
"r. c #368D63",
"t. c #3C8E61",
"y. c #3D9061",
"u. c #5B8F43",
"i. c #44915F",
"p. c #4B935C",
"a. c #609140",
"s. c #6B9E47",
"d. c #669D4B",
"f. c #699E49",
"g. c #6DA245",
"h. c #69A048",
"j. c #70A441",
"k. c #429060",
/* pixels */
"r.r.r.r.r.r.r.r.r.r.r.r.r.r.r.r.r.r.q.r.r.r.r.r.r.r.r.r.r.r.r.r.q.r.w.r.r.r.q.r.r.r.r.r.r.r.r.r.t.t.e.r.r.r.r.r.r.e.r.r.r.r.r.r.",
"r.r.r.r.r.r.r.r.r.r.r.r.r.r.r.r.r.r.r.r.^ T T ^ q.r.r.r.r.r.r.r.y.y.) T T ^ r.r.r.r.r.r.r.r.r.r.r.r.r.r.r.r.r.r.r.r.r.r.r.r.r.r.",
"r.r.r.r.r.r.r.r.r.r.r.r.r.r.r.r.r.r.r.( 6 o o 6 ( r.r.r.r.r.r.i.h.8.3 O o 6 q.r.r.r.r.r.r.r.r.r.r.r.r.r.r.r.r.r.r.r.r.r.r.r.t.r.",
"r.r.r.r.r.r.r.r.r.r.r.r.r.r.r.r.r.r./ R j s s a R _ r.r.r.r.r.w.8.A k s i a R ( e.r.r.r.r.r.r.r.r.r.r.r.r.r.r.r.r.r.r.r.r.r.r.r.",
"r.r.r.r.r.r.r.r.r.r.r.r.r.r.r.r.r.^ 5 y ;.,.>.=.k 2 ^ r.r.r.r.E 6 y -.,.>.=.a 6 ^ r.r.r.r.r.r.r.r.r.r.r.r.r.r.r.r.r.r.r.r.r.r.r.",
"r.r.r.r.r.y.r.r.r.r.r.r.r.t.t.t.y.W 5 i -.1.4.,.s O T r.r.r.r.^ < a -.1.4.,.s o ~ r.r.r.r.r.r.r.r.r.e.r.r.r.r.r.r.r.r.r.r.r.r.r.",
"r.r.r.r.r.r.r.r.r.y.r.r.r.k.j.g.g.d./ U u b 1.,.f + E r.r.r.r.r./ B u b 1.,.d $ H X.X.X.r.r.r.r.r.r.X.X.X.X.X.+.r.r.r.r.r.r.r.r.",
"r.r.r.r.r.r.r.y.r.r.r.r.r.k.g.g.j.h.y.q.6 u ;.-.y : E r.r.r.r.r.r.q.6 u -.;.y $ H X.@.@.r.r.r.r.r.r.#.@.@.@.X.X.r.r.t.r.r.r.r.r.",
"r.r.r.r.r.r.r.r.r.r.r.r.r.y.y.k.j.j.g.d.q.R l y = % E r.r.r.r.r.r.r.' Y z y = % F o.f.d.+.+.r.r.+.#.f.g.h.d.+.X.r.r.r.r.r.r.r.r.",
"r.r.r.r.r.r.r.r.r.r.r.r.r.r.r.k.g.g.g.d.r.9.>     , E r.r.r.r.r.r.r.r./ %     * G o.g.f.#.@.r.e.@.$.g.j.j.f.+...r.r.r.r.r.r.r.r.",
"r.r.r.r.y.r.r.r.r.r.r.r.r.y.r.r.r.w.t.t.r.' %     % / r.r.r.y.r.r.r.r.( %     & L X.r.i.s.d.+.#.f.h.j.j.j.f.{ ] r.r.r.r.r.r.r.r.",
"r.r.r.r.r.r.r.r.r.r.r.r.r.r.r.r.r.r.^ T ^ V o     % V / ^ E E ~ E ^ ^ V #     o D Q ~ W S 6.+.@.g.g.g.j.g.f.{ ] r.r.r.r.r.r.r.r.",
"r.r.r.r.r.r.r.r.r.r.r.r.r.r.r.r.r.' 6 o % o .     . o % % % % % % % % % .     . + + $ @ o 7 K | k.k.j.g.k.r.] ] r.r.r.r.r.r.r.r.",
"r.r.r.r.r.r.r.r.r.r.r.r.r.r.) ^ _ U a s s y s y s s s s y y i y y y y y s s s s s s s t X . 9 K e.t.h.h.r.e.] ] r.y.r.r.r.r.r.r.",
"r.r.r.y.r.r.r.r.r.r.r.r.r.9.3 + + g -.>.:.:.>.>.>.>.:.>.:.>.:.>.>.>.>.>.:.>.>.>.>.>.,.*.;   . 4 ' r.k.t.| ] ..X.r.r.r.r.r.r.r.r.",
"r.r.r.r.y.y.y.y.r.r.r.r.q.C h y r x ,.3.3.2.2.2.2.2.1.2.2.2.2.3.2.2.1.2.2.2.1.2.2.2.2.,.b t y p I ^ ^ ~ | ] X.X.r.r.r.r.y.r.r.r.",
"r.r.r.k.h.g.g.h.r.r.r.9.m r =.>.:.>.1.2.1.1.2.1.1.1.1.1.1.1.2.1.2.1.1.1.2.1.1.1.1.1.2.1.,.>.>.=.w % # 6 / r.r.e.r.r.r.r.r.r.r.r.",
"r.r.r.k.g.g.j.h.y.r.( B r x ,.3.2.2.1.1.1.1.1.1.1.1.1.1.1.1.1.1.1.1.1.1.1.1.1.1.1.1.1.1.1.2.3.,.c t y a U ' r.r.r.r.t.k.y.y.r.r.",
"r.r.r.y.y.p.j.j.g.u.6 0 *.,.<.2.1.1.1.1.1.1.1.1.1.1.1.1.1.1.1.1.1.1.1.1.1.1.1.1.1.1.1.1.1.1.2.1.,.>.,.=.q 6 ' r.r.t.h.h.h.h.y.r.",
"r.r.y.r.r.k.g.h.8.M 0 x ,.2.1.1.1.1.1.1.1.1.1.1.1.1.1.1.1.1.1.1.1.1.1.1.1.1.1.1.1.1.1.1.1.1.1.1.<.1.1.>.x u N ' r.k.j.j.g.h.y.r.",
"r.r.r.r.r.r.y.q.6 0 =.,.1.1.1.1.1.1.1.1.1.1.1.1.1.1.1.1.<.1.1.1.1.1.1.1.1.1.1.1.1.1.1.1.1.1.1.,.;.*.*.;.>.;.q 8 a.g.j.g.i.r.r.r.",
"r.r.r.r.r.r.q.V 0 x ,.2.1.1.1.1.1.1.1.1.1.1.1.1.1.1.1.1.1.1.1.1.1.1.1.1.1.1.1.1.1.1.1.1.1.1.1.,.;.%.n &.<.>.c u Z 8.g.h.y.r.r.r.",
"r.r.r.r.r.q.6 0 *.,.1.2.1.1.1.1.1.1.1.1.1.1.1.1.1.1.1.1.1.1.1.1.1.1.1.1.1.1.1.1.1.1.1.1.1.1.1.1.<.>.&.n *.;.>.-.q 8 9.y.r.r.r.r.",
"r.r.r.r.q.V 0 c ,.4.1.1.1.1.1.1.1.1.1.1.1.1.1.1.1.1.1.1.1.1.1.1.1.1.1.1.1.1.1.1.1.1.1.1.1.1.1.1.2.<.:.&.n *.<.>.x q V q.r.r.r.r.",
"r.r.r.q.6 0 *.,.1.1.1.1.1.1.1.1.1.1.1.1.1.1.1.1.1.1.1.1.1.1.1.1.1.1.1.1.1.1.1.1.1.1.1.1.1.1.1.1.1.1.<.>.&.n *.;.>.;.q 6 ' r.r.r.",
"r.r.q.U 0 x ,.2.1.1.1.1.1.1.1.1.1.1.1.1.1.1.1.1.1.1.1.1.1.1.1.1.1.1.1.1.1.1.1.1.1.1.1.1.1.1.1.1.1.1.2.<.:.&.n *.,.>.x q U / r.r.",
"r.^ 5 g =.,.1.1.1.1.1.1.1.1.1.1.1.1.1.1.1.1.1.1.1.1.1.1.1.1.1.1.1.1.1.1.1.1.1.1.1.1.1.1.1.1.1.1.1.1.1.1.,.>.&.n *.;.>.-.a 6 ^ r.",
"r.T o p >.3.2.1.1.1.1.1.1.1.1.1.1.1.1.1.1.1.1.1.1.1.1.1.1.1.1.1.1.1.1.1.1.1.1.1.1.1.1.1.1.1.1.1.1.1.1.1.2.<.:.&.n -.1.,.s o T r.",
"r.~ % y >.2.2.1.1.1.1.1.1.1.1.1.1.1.1.1.1.1.1.1.1.1.1.1.1.1.1.1.1.1.1.1.1.1.1.1.1.1.1.1.1.1.1.1.1.1.1.1.2.1.<.>.&.-.<.,.s % T r.",
"r.E % y >.2.1.1.1.1.1.1.1.1.1.1.1.1.1.1.1.1.<.1.1.1.1.1.1.<.1.1.1.1.1.1.1.1.1.1.1.1.1.1.1.1.1.1.1.1.1.1.1.1.2.,.*.*.<.>.s % E r.",
"r.E % s :.2.1.1.1.1.1.1.1.1.1.1.1.1.1.1.1.1.1.1.1.1.1.1.1.1.1.1.1.1.1.1.1.1.1.1.1.1.1.1.1.1.1.1.1.1.1.1.1.1.1.,.*.*.<.>.s % E r.",
"r.E % y >.2.1.1.1.1.1.1.1.1.1.1.1.1.1.1.1.1.1.1.1.1.1.1.1.1.1.1.1.1.1.1.1.1.1.1.1.1.1.1.1.1.1.1.1.1.1.1.1.1.1.,.*.*.<.>.s % E r.",
"r.E % y :.2.2.1.1.1.1.1.1.1.1.1.1.1.1.1.1.1.1.1.1.1.1.1.1.1.1.1.1.1.<.1.1.1.1.1.1.1.1.1.1.1.1.1.1.1.1.1.1.1.2.,.*.-.<.>.s % E r.",
"r.~ % y >.4.1.1.1.<.1.1.1.1.1.1.1.1.1.1.1.1.1.<.1.1.1.1.1.1.1.1.1.1.1.1.1.1.1.1.1.1.1.1.1.1.1.1.<.1.1.1.1.1.1.,.*.*.<.>.s % E r.",
"r.E % s :.2.1.1.1.1.1.1.1.1.1.1.1.1.1.1.1.1.1.1.1.1.1.1.1.1.1.1.1.1.1.1.1.1.1.1.1.1.1.1.1.1.1.1.1.1.1.1.1.1.1.,.*.*.<.>.s % E r.",
"r.E % p >.2.1.1.1.1.1.1.1.1.1.1.1.1.1.1.1.1.1.1.1.1.1.1.1.1.1.<.1.1.1.1.1.1.1.1.1.1.1.1.1.1.1.1.1.1.1.1.1.1.1.,.*.*.1.>.s % E r.",
"r.E % s >.2.1.1.1.1.1.1.1.1.1.1.1.1.1.1.1.1.1.1.1.1.1.1.1.1.1.1.1.1.<.1.1.1.1.1.1.1.1.1.1.1.1.1.1.1.1.1.1.1.1.,.*.*.1.>.s % E r.",
"r.E % s :.2.1.1.1.1.1.1.1.1.1.1.1.1.1.1.1.1.1.1.1.1.1.1.1.1.1.1.1.1.1.1.1.1.1.1.1.1.1.1.1.1.1.1.1.1.1.1.1.1.1.,.*.=.,.>.s % E r.",
"r.E % s :.2.1.1.1.1.1.1.1.1.1.1.1.1.1.1.1.1.1.1.1.1.1.1.1.1.1.1.1.1.1.1.1.1.1.1.1.1.1.1.1.1.1.1.1.1.1.1.1.1.1.,.*.*.<.>.s % E r.",
"r.E % s >.2.1.1.1.1.1.1.1.1.1.<.1.1.1.1.1.1.1.1.1.1.1.1.1.1.1.1.1.1.1.1.1.1.1.1.1.1.1.1.1.1.1.1.1.1.1.1.1.1.1.,.*.*.1.>.s % ~ y.",
"r.E % y :.1.1.1.1.1.1.1.1.1.1.1.1.1.1.1.1.1.1.1.1.1.1.1.1.1.1.1.1.1.1.1.1.1.1.1.1.1.1.1.1.1.<.1.1.1.1.1.1.1.1.,.*.*.<.>.s % E r.",
"r.E % s >.3.1.1.1.1.1.1.1.1.1.1.1.1.1.1.1.1.1.1.1.1.1.1.1.1.1.1.1.1.1.1.1.1.1.1.1.1.<.1.1.1.1.1.1.1.1.1.1.1.2.,.*.*.<.>.s % E r.",
"r.E % y :.2.2.1.1.1.1.1.1.1.1.1.1.1.1.1.1.1.1.1.1.1.1.1.1.1.1.1.1.1.1.1.1.1.1.1.1.1.1.1.1.1.1.1.1.1.1.1.1.1.1.,.*.*.<.>.s % E r.",
"r.E % y >.3.1.1.1.1.1.1.1.1.1.1.1.<.1.1.1.1.1.1.1.1.1.1.1.1.1.1.1.1.1.1.1.1.1.1.1.1.1.1.1.1.1.1.1.1.1.1.1.1.2.,.*.*.<.>.s % W y.",
"r.E % y :.1.1.1.1.1.1.1.1.1.1.1.1.1.1.1.1.1.1.1.1.1.1.1.1.1.1.1.1.1.1.<.1.1.1.1.1.1.1.1.1.1.1.1.1.1.1.1.1.1.2.<.&.*.<.>.s > 5.g.",
"r.E % y >.3.1.1.1.1.1.1.1.1.1.1.1.1.1.1.1.1.1.1.1.1.1.1.<.1.1.1.1.1.1.1.1.1.1.1.1.1.1.1.1.1.1.1.1.1.1.1.1.1.<.>.-.:.1.>.s + 5.g.",
"r.E o y >.4.2.1.1.<.1.1.1.1.1.1.1.1.1.1.1.1.1.1.1.1.1.1.1.1.1.1.1.1.1.1.1.1.1.1.1.1.1.1.1.1.1.1.1.1.1.1.1.,.;.-.>.1.3.>.s O W y.",
"r.^ 6 j =.,.1.1.1.1.1.1.1.1.1.1.1.1.1.1.<.1.1.1.1.1.1.1.1.1.1.1.1.1.1.1.1.1.1.1.1.1.1.1.1.1.1.1.1.1.1.1.2.,.&.&.<.1.,.-.k 3 ) r.",
"r.r.' U w x >.1.1.1.1.1.1.1.1.1.1.1.1.1.1.1.1.1.1.1.1.1.1.1.1.1.1.1.1.<.1.1.1.1.1.1.1.1.1.1.1.1.1.1.1.1.2.,.&.*.<.,.x q U 9.r.r.",
"r.r.r.^ % t :.3.1.1.1.1.1.1.1.1.1.1.1.1.1.1.1.1.1.1.1.1.1.1.1.1.1.1.1.1.1.1.1.1.1.1.1.1.1.1.1.1.1.1.1.1.<.>.;.;.1.:.r % ) r.r.r.",
"r.r.r.E o y >.2.1.1.1.1.1.1.1.1.1.1.1.1.1.1.1.1.1.1.1.1.1.1.1.1.1.1.1.1.1.1.1.1.1.1.1.1.1.1.1.1.1.1.1.<.;.-.>.<.2.>.y O E r.r.r.",
"r.r.r./ 6 a =.,.1.1.1.1.1.1.1.1.1.1.1.1.1.1.1.1.1.1.1.1.1.1.1.1.1.1.1.1.1.1.1.1.1.1.1.1.1.1.1.1.1.1.2.,.&.*.<.2.,.-.j 6 ^ r.r.r.",
"r.r.r.e.} I g x >.1.1.1.1.1.1.1.1.1.1.1.1.1.1.1.1.<.1.1.1.1.1.1.1.1.1.1.1.1.1.1.1.1.1.1.1.1.1.1.1.1.2.,.*.*.<.,.c w R q.r.r.r.r.",
"r.r.r.e. .! : 1 >.4.2.1.1.1.1.1.1.1.1.1.1.1.1.1.1.1.1.1.1.1.1.1.1.1.1.1.1.1.1.1.1.1.1.1.1.1.1.1.1.1.<.>.&.*.<.>.0 $ / r.r.r.r.r.",
"r.r.y.r.X.P $ y >.2.1.1.1.1.1.1.1.1.1.1.1.1.1.1.1.1.1.1.1.1.1.1.1.1.1.1.1.1.1.1.1.1.1.1.1.1.1.1.2.<.:.&.%.;.<.>.y % E y.r.r.r.r.",
"r.r.r.e.X.L $ y >.1.<.<.1.1.1.1.1.1.1.<.2.<.1.1.1.1.1.1.1.1.1.1.1.1.1.1.1.1.1.1.1.1.1.1.1.1.1.1.<.>.&.n n *.1.>.y % E r.r.r.r.r.",
"r.r.r.r.r.^ % t >.1.;.-.<.2.1.1.1.1.1.1.1.1.<.1.2.<.2.<.1.1.1.1.1.1.1.1.1.1.1.1.1.1.1.1.2.1.2.1.:.&.&.n n ;.1.:.r % ~ r.r.r.r.r.",
"r.r.r.r.( V w c ,.<.=.&.>.<.1.1.1.1.1.1.1.1.2.<.<.2.<.<.1.1.1.1.1.1.1.1.1.1.1.1.1.1.1.1.<.,.<.>.&.n %.%.n *.<.,.c q U ' r.r.r.r.",
"r.r.r.q.6 0 =.,.1.1.*.%.&.;.1.2.2.1.2.1.2.2.<.2.2.2.2.2.2.1.2.1.1.1.1.2.2.1.2.1.1.2.2.<.;.*.*.*.%.%.%.%.%.*.<.2.,.=.0 6 q.r.r.r.",
"r.r.( U q c <.4.1.>.*.n n &.,.,.<.,.,.,.,.,.<.<.,.,.,.,.<.,.,.,.,.,.<.,.,.<.,.<.,.<.<.>.*.n %.%.%.&.&.&.%.*.>.1.4.,.c u U ( r.r.",
"r.^ 6 j -.1.2.1.:.*.*.*.&.*.*.;.*.;.;.;.;.;.;.;.;.;.*.;.*.;.;.;.;.;.;.*.;.;.*.;.;.*.;.;.*.&.&.*.&.*.&.&.&.*.*.:.1.2.1.-.a 6 ^ r.",
"r.T o t -.,.,.;.n x b b b b v v v v v v v v v b v v v v v v v v v v v v v v v v v v v v v b b b b b b b b b x n ;.,.,.-.t o E r.",
"r.T $ = y f f y ; ; ; ; ; ; ; - ; ; ; ; - ; ; - - ; - - ; ; ; - ; ; ; ; ; ; ; ; ; ; ; ; ; ; ; ; e ; ; ; ; ; ; ; y f f y = % E r.",
"r.~ ,                                                                                                                     * E r."
};
