/* XPM */
static char *result[] = {
/* columns rows colors chars-per-pixel */
"64 64 183 2 ",
"   c #6C5E35",
".  c #685F38",
"X  c #735E34",
"o  c #7C5D32",
"O  c #725F39",
"+  c #5E663F",
"@  c #7B6A2E",
"#  c #676037",
"$  c #6C6136",
"%  c #65633B",
"&  c #6A633B",
"*  c #646A3E",
"=  c #6B693D",
"-  c #726137",
";  c #7E6737",
":  c #736639",
">  c #7D6839",
",  c #6E7E3B",
"<  c #757433",
"1  c #7A7134",
"2  c #355E57",
"3  c #2D5858",
"4  c #2E6D5E",
"5  c #366459",
"6  c #2F705E",
"7  c #3E7E58",
"8  c #0B5567",
"9  c #0B5567",
"0  c #145B66",
"q  c #1D5C63",
"w  c #115764",
"e  c #205E66",
"r  c #1C6366",
"t  c #196D6B",
"y  c #126F6D",
"u  c #1C736C",
"i  c #286D61",
"p  c #266762",
"a  c #22756B",
"s  c #297669",
"d  c #2B7869",
"f  c #257467",
"g  c #387D65",
"h  c #317D67",
"j  c #525E46",
"k  c #45634E",
"l  c #4C684A",
"z  c #5B6343",
"x  c #546E46",
"c  c #5C6B43",
"v  c #5D6848",
"b  c #4C754D",
"n  c #4D7A4F",
"m  c #547047",
"M  c #5C7045",
"N  c #537249",
"B  c #55794B",
"V  c #496B52",
"C  c #447C54",
"Z  c #4B7B52",
"A  c #457551",
"S  c #527C53",
"D  c #656D42",
"F  c #776E47",
"G  c #65764B",
"H  c #767043",
"J  c #825E31",
"K  c #885F31",
"L  c #85612C",
"P  c #806736",
"I  c #8D6434",
"U  c #836836",
"Y  c #8C6A34",
"T  c #8B6F3F",
"R  c #916535",
"E  c #926B36",
"W  c #9C6C37",
"Q  c #9E6E39",
"!  c #946A38",
"~  c #9E7438",
"^  c #A06F39",
"/  c #A1723A",
"(  c #AA763E",
")  c #A27A3C",
"_  c #AC7A3D",
"`  c #A07035",
"'  c #817040",
"]  c #9B7B44",
"[  c #9F7340",
"{  c #AC7941",
"}  c #B27E42",
"|  c #6E8D3D",
" . c #74823B",
".. c #718A3A",
"X. c #76823B",
"o. c #71933D",
"O. c #3D845B",
"+. c #3A895F",
"@. c #2D8165",
"#. c #338663",
"$. c #368D63",
"%. c #3C8E61",
"&. c #3F9061",
"*. c #418258",
"=. c #448859",
"-. c #44915E",
";. c #4A935C",
":. c #6B8F40",
">. c #6B9542",
",. c #6C9D45",
"<. c #64964B",
"1. c #659E4B",
"2. c #699E49",
"3. c #679C47",
"4. c #709E40",
"5. c #6DA245",
"6. c #67A04B",
"7. c #69A048",
"8. c #71A441",
"9. c #408F61",
"0. c #419060",
"q. c #B2823E",
"w. c #908049",
"e. c #A68043",
"r. c #B58243",
"t. c #BA8443",
"y. c #BC8945",
"u. c #BE8748",
"i. c #BF8B48",
"p. c #C48C46",
"a. c #C38D4A",
"s. c #C88F4D",
"d. c #C49245",
"f. c #CA9547",
"g. c #C4934C",
"h. c #CC944C",
"j. c #CF984E",
"k. c #C4984F",
"l. c #D1964D",
"z. c #D39B4D",
"x. c #C69A50",
"c. c #CB9D52",
"v. c #D39C51",
"b. c #DA9E50",
"n. c #DBA34E",
"m. c #CDA154",
"M. c #D3A456",
"N. c #DBA354",
"B. c #DEA956",
"V. c #DDA759",
"C. c #D6AA59",
"Z. c #DBAC5A",
"A. c #D5A857",
"S. c #DEB25D",
"D. c #E0A74F",
"F. c #E1A654",
"G. c #E3AA54",
"H. c #E9AE54",
"J. c #E3AC5A",
"K. c #EBB156",
"L. c #E4B35D",
"P. c #ECB45D",
"I. c #EFB85F",
"U. c #F0B75C",
"Y. c #F3BB5D",
"T. c #E2B660",
"R. c #EAB661",
"E. c #E5B961",
"W. c #ECBC63",
"Q. c #F2BD63",
"!. c #F8C05F",
"~. c #EEC165",
"^. c #EEC268",
"/. c #F3C266",
"(. c #FAC563",
"). c #FEC966",
"_. c #F5C668",
"`. c #F9C769",
"'. c #F6C96A",
"]. c #FCCD6C",
"[. c #FFD06D",
"{. c #FECF70",
"}. c #FFD070",
/* pixels */
"$.$.$.$.$.$.$.$.$.$.$.+.$.$.#.$.$.$.$.$.+.$.$.$.$.+.$.$.$.$.$.$.$.$.$.$.$.$.+.$.$.$.$.$.$.$.$.$.$.#.$.$.$.$.$.$.#.$.$.$.$.$.#.$.",
"$.$.$.$.&.$.$.$.$.$.$.$.$.$.$.$.$.$.$.$.$.$.$.$.$.$.$.$.$.$.$.$.&.$.&.&.$.$.$.$.$.$.$.$.$.$.$.$.$.$.$.$.$.$.$.$.$.$.$.$.$.$.$.$.",
"$.$.$.$.$.$.$.$.$.$.$.$.$.$.$.$.$.$.$.$.$.$.$.$.$.$.$.$.$.$.$.0.7.5.5.7.$.$.$.$.$.$.$.$.$.$.$.$.$.$.$.$.$.$.$.$.$.$.$.$.$.$.$.$.",
"$.$.$.$.$.$.$.$.$.$.$.$.$.$.$.$.$.$.$.$.$.$.$.$.+.$.$.$.$.$.$.0.5.5.8.7.+.$.$.$.$.$.$.$.$.$.$.$.$.$.$.$.$.$.$.$.$.$.$.$.$.$.%.$.",
"$.$.$.$.$.$.$.$.$.$.$.$.$.$.$.$.$.$.$.$.$.$.$.-.8.6.$.$.$.$.$.$.&.-.5.8.5.7.&.$.$.$.$.$.$.$.$.$.$.$.$.$.$.$.$.$.$.$.$.$.$.$.$.$.",
"$.$.$.$.$.$.$.$.$.$.$.$.$.$.0.+.$.&.$.$.$.$.$.;.8.7.$.$.$.$.$.$.$.-.7.7.5.7.$.$.#.$.$.$.$.$.$.$.$.$.$.$.$.#.$.$.$.$.$.$.$.$.$.$.",
"$.$.$.$.$.$.$.$.$.$.$.$.$.-.5.5.5.6.$.$.$.-.5.5.8.7.&.$.$.$.$.$.$.$.$.&.&.&.$.$.u u u u $.$.$.$.$.$.u u u u u a $.$.$.$.$.$.$.$.",
"$.$.$.$.$.$.$.$.$.$.$.$.$.-.5.5.8.7.&.$.$.-.8.8.5.7.$.$.$.$.$.$.$.$.$.$.$.$.$.#.u u d d #.$.$.$.$.$.s s s a u u $.$.$.$.$.$.$.$.",
"$.$.$.$.$.$.$.$.$.$.$.$.$.&.&.-.5.8.5.6.$.-.5.7.&.$.$.$.$.$.$.$.$.$.$.$.$.$.$.#.9 4 3.<.6 i +.$.t h 2.,.,.1.a u $.$.$.$.$.$.$.$.",
"$.$.$.$.$.$.$.$.$.$.$.$.$.$.$.0.5.5.8.6.$.&.7.6.$.$.$.$.$.$.$.$.$.$.$.$.$.$.$.#.w 5 | , z c S C d g 5.8.8.2.a u $.$.$.$.$.$.$.$.",
"$.$.$.$.$.$.$.$.$.$.$.$.$.$.$.$.&.$.&.$.$.$.&.&.$.$.$.$.$.$.$.$.$.$.$.$.+.+.t 4 5 k % U q.y.] F ' >.4.8.8.,.e 0 $.$.$.$.$.$.$.$.",
"$.$.$.$.$.$.$.$.$.$.$.$.$.$.$.$.$.$.$.$.$.$.$.$.$.$.$.$.$.$.$.$.$.$.$.$.O.A 2 + X W q.n.K.n.p.r.q.U >.8.8.2.q 0 #.$.$.$.$.$.$.$.",
"$.$.$.$.$.$.$.$.$.$.$.$.$.$.$.$.$.$.$.$.$.$.$.$.$.$.$.$.$.$.$.+.+.+.O.A k & Y _ f.D.I.!.!.Z.t.l.y.- ..o.0.%.0 0 $.$.$.$.$.$.$.$.",
"$.$.$.$.$.$.$.$.$.$.$.$.$.$.&.&.&.$.$.$.$.$.$.$.$.$.$.$.$.+.+.+.C b * : Y t.n.K.Y.(.).).~.c.h.F.j.W < >.%.@.0 0 $.$.$.$.&.$.$.$.",
"$.$.$.$.$.$.$.$.$.$.$.$.$.-.7.7.8.6.$.$.$.$.$.$.$.$.$.$.+.O.n N * U ) f.G.Y.!.).).[.[.[.S.i.B.Y.F.} - n q 0 u u $.$.$.$.$.$.$.$.",
"$.$.$.$.&.&.&.&.$.$.$.$.$.;.8.8.8.7.$.$.$.$.$.$.$.+.O.*.n + : E q.n.K.Y.!.).).[.[.[.[./.m.f.L.`.I.f.I b q 0 u u $.$.$.$.$.$.$.$.",
"$.$.$.0.5.5.5.6.$.$.$.-.7.5.8.7.&.&.$.$.$.$.$.+.O.n m = U ) d.D.U.(.`.].].[.[.[.[.[.].E.g.v./.].Q.b.( % 7 $.$.#.$.$.$.$.$.$.$.$.",
"$.$.$.0.5.8.8.6.&.%.$.-.5.5.5.6.$.$.+.+.+.+.7 b + : Y q.n.H.Y.(.).].].}.[.[.[.[.[.[.'.A.p.P.`.].).P.p.o b +.$.$.$.$.%.%.&.%.$.$.",
"$.$.$.&.&.;.8.8.5.6.$.$.%.%.%.$.$.+.+.O.A m * ; ) d.n.U.!.(.).[.].[.}.[.[.[.[.[.[.[.~.x.j./.].[.].Q.v.W c O.$.$.$.$.5.5.5.7.&.$.",
"$.$.$.$.$.0.5.5.7.6.$.$.$.$.+.+.+.O.b M : Y q.z.K.!.!.).).[.[.[.[.[.[.[.[.[.[.[.[.].C.a.G.`.[.[.].`.G.} X C $.&.$.-.5.8.5.6.&.$.",
"$.$.$.$.$.$.&.&.+.$.$.$.+.+.O.C N * @ ) d.n.U.!.(.).[.[.[.[.[.[.}.}.[.[.[.[.[.[.].~.m.j.R.{.].[.].].Q.h.I x +.+.7.5.8.7.-.&.$.$.",
"$.$.$.$.$.$.$.$.$.$.+.+.O.n + : Y q.z.K.U.!.).).[.[.[.[.[.[.[.[.[.}.[.[.[.[.[.[.].L.y.N._.}.[.[.[.].Q.N.( . *.+.7.5.5.6.$.$.$.$.",
"$.$.$.$.$.$.$.$.+.O.A N * @ ~ d.n.U.!.!.).[.[.[.[.[.[.[.[.[.[.[.[.[.[.[.[.[.[.}._.A.d.R.`.}.[.[.[.].).P.p.J b +.%.&.&.&.$.$.$.$.",
"$.$.$.$.$.$.+.O.n c = Y q.j.H.Y.!.).).[.[.[.[.[.[.[.[.[.[.[.[.[.[.[.[.[.[.[.[.].E.g.v./.{.[.[.[.[.[.].Q.v.Q z O.$.$.$.$.$.$.$.$.",
"$.$.$.$.$.O.Z D > ~ y.n.K.!.(.).[.[.[.[.[.[.[.[.[.[.[.[.[.[.[.[.[.[.[.[.[.[.[.'.C.g.J.`.}.[.[.[.[.[.].`.J.t.O Z +.$.$.$.$.$.$.$.",
"$.$.$.$.$.O.G e.z.H.Y.(.(.].[.[.[.[.[.[.[.[.[.[.[.[.[.[.[.[.[.[.[.[.[.[.[.[.[.~.g.j.W.{.}.[.[.[.[.[.[.].U.h.R x +.$.$.$.$.$.$.$.",
"$.$.$.$.$.Z w.z.K.!.).].[.[.[.[.[.[.[.[.[.[.[.[.[.[.[.[.[.[.[.[.[.[.[.[.[.[.].S.g.G.'.[.[.[.[.[.[.[.].]./.F.{ D O.+.+.$.$.$.$.$.",
"$.$.$.$.O.G e.p.m.L.~.].[.[.[.[.[.[.}.[.[.[.[.[.[.[.[.[.[.[.[.[.[.[.[.[.[.[.~.c.d.I.].[.[.[.[.[.[.[.{.].`.P.s.J b +.$.$.$.$.$.$.",
"$.$.$.$.*.< i.l.p.d.c.Z.W.'.].[.[.}.}.[.[.[.[.[.[.[.[.[.[.[.[.[.[.[.[.[.[.].S.g.j.I.].[.[.[.[.[.[.[.[.[.].Q.b.^ + *.$.$.$.$.$.$.",
"$.$.$.$.C - t.b.G.N.j.d.k.A.E._.[.}.}.[.[.[.[.[.[.[.[.[.[.[.[.[.[.[.[.[.[.'.M.t.i.j.L.~.'.[.[.[.[.[.[.[.].`.J.t.- *.+.$.$.$.$.$.",
"&.$.$.$.*.% / z.I./.I.B.z.i.h.c.T.^.'.{.[.[.[.}.[.[.[.[.[.}.[.[.[.[.[.[.].W.g.h.M.M.x.m.S.~.'.[.[.[.[.[.[.].Y.h.R m O.$.$.$.$.$.",
"$.$.$.$.$.b J p.P.`.]._.Q.J.N.d.g.x.S.W._.].[.[.[.[.[.[.[.}.[.[.[.[.[.[.'.Z.p.L./.^.E.C.x.m.C.W.^.].[.[.[.]./.F._ $ *.$.$.$.$.$.",
"$.$.$.$.+.C . _ F./.[.[.].`.Q.P.N.h.g.g.C.E._.`.[.[.[.}.}.[.[.[.[.[.[.[.~.g.j.W.].[.].'.W.S.x.m.A.T.^.'.}.[.'.P.p.J b $.$.$.$.$.",
"$.$.$.$.$.O.x I h.U.].[.[.[.[.]._.I.B.z.g.i.M.S.^.'.].}.[.[.[.[.[.[.[.'.S.g.N._.].[.[.[.[.'.~.T.m.m.x.S.W.'.].Q.b.~ + O.$.$.$.$.",
"$.$.$.$.$.+.n X t.H.`.].[.[.[.[.[.].`.Q.L.N.a.d.k.Z.^.'.[.[.[.[.[.[.[./.c.g.I.].[.[.[.[.[.[.[.].'.L.S.m.m.C.T.W.F.t.O C +.$.$.$.",
"$.$.$.$.$.$.O.+ ^ z.Q.].[.[.[.[.[.[.[.].`./.P.h.t.a.i.C.E.^.'.].[.[.].E.j.N._.].[.[.[.[.[.[.[.[.[.]._.W.S.m.x.c.l.y.F C $.$.$.$.",
"$.$.$.$.$.$.+.b J p.P.`.[.[.[.[.[.[.[.[.[.]._.k.a.N.j.d.i.m.S.~.'.{._.m.i.P.`.}.[.[.[.[.[.[.[.[.[.[.[.].].~.T.s.r.[ G O.$.$.$.$.",
"$.$.$.$.$.$.$.*.  _ F./.].[.[.[.[.[.[.[.[.[.~.c.S./.Q.L.n.h.y.m.C.E.Z.g.v.W.{.}.[.[.[.[.[.[.[.[.[.[.[.].'.W.J.j.r.' Z $.$.$.$.$.",
"$.$.$.$.&.$.$.O.x I h.U.].[.[.[.[.[.[.[.[.'.C.c.~.].].)./.I.B.j.g.i.r.t.J.`.}.[.[.[.[.[.[.[.[.[.[.'._.W.J.N.a.} ! M =.$.$.$.$.$.",
"$.$.$.$.+.$.$.$.C o t.G.`.].[.[.[.[.[.[.].~.C.C.'.[.[.[.[.`.'.I.J.m.a.b.W.].[.[.[.[.[.[.[.[.}.`.^.E.Z.h.y./ I X D Z O.$.$.$.$.$.",
"$.$.$.-.5.1.$.$.O.* W z.Q.[.[.[.[.[.[.[.].S.x.L.[.[.[.[.[.[.].].'.!.I.W.`.[.[.[.[.[.[.[.]._.W.J.M.g._ W o $ + b | 3.+.$.$.$.$.$.",
"$.$.$.-.8.6.&.$.+.B L p.R.].[.}.[.[.[.[./.A.C.'.[.[.[.[.[.[.[.[.[.[.).].[.[.[.[.[.].'.~.R.V.l.u.{ I o % m C =.-.5.,.$.$.&.$.$.$.",
"$.$.$.;.8.8.5.1.$.*.# { N.Q.].].[.[.[.[.~.i.L.[.[.[.[.[.[.[.[.[.[.[.[.[.[.[.}.`._.W.J.N.d.} W J & c A O.+.+.7.5.8.5.%.$.$.$.$.$.",
"$.$.$.-.5.5.8.6.$.O.N R h.Q.].].[.[.[./.C.A.^.[.[.[.[.[.[.[.[.[.[.[.[.[.].`./.P.V.j.u.{ I o % B Z *.+.$.+.-.5.8.5.2.%.$.$.&.&.&.",
"$.$.$.$.$.;.8.6.$.+.C - r.J._.[.[.[.].~.m.C.'.}.}.[.[.[.[.[.].{.[.[.]._.W.J.N.s.} W J $ <  .o.>.,.2.$.$.$.&.5.5.&.&.$.+.6.5.5.5.",
"$.$.$.$.$.-.5.6.$.$.O.c Q z.Y.[.[.[.'.S.m.~.}.}.[.[.[.[.[.[.[.].`.~.R.V.v.a.( I X D m n o.,.8.8.8.5.0.$.$.&.7.7.&.$.&.-.5.8.5.5.",
"$.$.$.$.$.$.&.&.$.$.+.b o p.K.'.[.[.^.m.C.'.}.}.[.[.[.[.].]._.W.L.N.s.} W J   c V C O.$.+.-.5.8.8.8.8.7.$.$.%.%.$.$.5.5.5.5.-.&.",
"$.$.$.$.$.$.$.$.$.$.$.*.% ( B.~.[.].S.x.~.].}.}.[.}.].`._.R.J.v.a.( R o % x A O.O.$.$.$.$.&.7.5.5.5.8.7.&.$.$.$.$.%.7.5.5.7.$.$.",
"$.$.$.$.$.$.$.$.$.$.$.#.N I h.R.]./.A.M.^.}.}.}.]._.W.T.N.f.} ^ I $ M Z &.$.&.$.$.$.$.$.$.$.&.&.%.%.&.%.$.$.$.$.$.$.0.&.&.&.$.$.",
"$.$.$.$.$.$.$.$.#.$.$.$.C O } J._.E.x.S.{.}.`.Q.R.J.v.a._ R o & m Z O.&.$.$.$.$.$.$.$.$.$.$.$.$.$.$.$.$.$.$.$.$.$.$.$.$.$.$.$.$.",
"$.$.$.$.$.#.u u u u a u p j ^ b.P.C.M.Q._.W.T.N.h.} ^ K @ < , | o.7.$.$.$.$.$.$.$.$.$.$.$.$.$.&.$.$.$.$.$.$.$.$.$.$.$.$.$.$.$.$.",
"$.$.$.$.$.#.a a u u u u t V L p.v.y.m.L.Z.v.a.{ R o & c ..o.o.8.5.7.$.$.$.$.$.$.$.$.$.$.$.$.$.$.$.$.$.$.$.$.$.$.$.$.$.$.$.$.$.$.",
"$.$.$.$.y #.7.7.1.1.$.@.8 5 @ ) r._ s.h.r./ L - z B | >.8.8.8.5.&.&.$.$.$.$.$.$.$.$.$.$.$.$.$.$.$.$.$.$.$.$.$.$.$.$.$.$.$.$.$.$.",
"$.$.$.$.y #.5.7.5.1.&.@.8 5 ..X.H T / R o % c *.*.=.5.8.5.5.5.7.+.$.$.$.$.$.$.$.$.$.$.$.$.$.$.$.$.$.$.$.$.$.$.$.$.$.$.$.$.$.$.$.",
"$.$.$.$.u u s h &.0.5.<.8 r 0.O.3 2 j j b Z $.$.$.$.9.+.9.%.-.$.$.$.$.$.$.$.$.$.$.$.$.$.$.$.$.$.$.$.$.$.$.$.$.$.$.$.$.$.$.$.$.$.",
"$.$.$.$.u u u a $.0.5.<.0 r $.#.w 0 i 6 +.+.$.$.$.$.$.$.$.$.$.$.$.$.$.$.$.$.$.$.$.$.$.$.$.$.$.$.$.$.$.$.$.$.$.$.$.$.$.$.$.$.$.$.",
"$.$.$.$.$.$.$.$.$.$.&.%.$.#.$.$.$.$.$.$.$.$.$.$.$.$.$.$.$.$.$.$.$.$.$.$.$.$.$.$.$.$.$.$.$.$.$.$.$.$.$.$.$.$.$.$.$.$.$.$.$.$.$.$.",
"$.$.$.$.$.$.$.$.$.$.$.$.$.$.$.$.&.$.$.$.$.$.$.$.$.$.$.$.$.$.$.$.$.$.$.$.$.$.$.$.$.$.$.$.$.$.$.$.$.&.$.$.$.$.$.$.$.$.$.$.$.&.$.$.",
"$.$.$.$.$.$.$.$.$.$.$.$.$.$.$.$.$.$.$.$.$.$.$.$.$.$.$.$.$.$.$.$.$.$.$.$.$.$.$.$.$.$.$.$.$.$.$.$.$.$.$.$.$.$.$.$.$.$.$.$.$.$.$.$.",
"$.$.$.$.$.$.$.$.&.$.$.$.$.$.$.$.$.$.$.$.$.$.$.$.$.$.$.$.$.$.$.$.$.$.$.$.$.$.$.$.$.$.&.$.$.$.$.$.$.$.$.$.$.$.$.$.$.$.$.$.$.$.$.$.",
"$.$.$.$.$.$.$.$.$.$.$.$.$.$.$.$.$.$.$.$.$.$.$.$.$.$.$.$.$.$.$.$.$.&.$.$.$.$.$.$.$.$.$.$.$.$.$.$.$.$.$.$.$.$.$.$.$.$.$.$.$.$.$.$.",
"$.$.$.$.$.$.$.$.$.$.$.$.$.$.$.$.$.$.$.$.$.$.$.$.$.$.$.$.$.$.$.$.$.$.$.$.$.$.$.$.$.$.$.$.$.$.$.$.$.$.$.$.$.$.$.$.$.$.$.$.$.$.$.$.",
"$.$.$.$.$.$.$.$.$.$.$.$.&.$.$.$.$.$.$.$.$.$.$.$.$.$.$.&.$.$.$.$.$.$.$.$.$.$.$.$.$.$.$.$.$.$.$.$.$.$.$.$.$.$.$.$.$.$.$.$.$.$.$.$.",
"$.$.$.$.$.$.$.$.$.$.$.$.$.$.$.$.$.$.$.$.$.$.$.$.$.$.$.$.$.$.$.$.$.$.$.$.$.$.$.$.$.$.$.$.$.$.$.$.$.$.$.$.$.$.$.$.$.&.$.$.$.$.$.$."
};
