/* XPM */
static char *result[] = {
/* columns rows colors chars-per-pixel */
"64 64 190 2 ",
"   c #5D5936",
".  c #5B5C3B",
"X  c #5F5431",
"o  c #6B4E29",
"O  c #6D532D",
"+  c #60542F",
"@  c #7B5326",
"#  c #74532C",
"$  c #7B542B",
"%  c #715E2A",
"&  c #7D592E",
"*  c #625531",
"=  c #6B5530",
"-  c #635C36",
";  c #6A5932",
":  c #615F38",
">  c #56623D",
",  c #5B633D",
"<  c #5C6D3F",
"1  c #776028",
"2  c #75682D",
"3  c #60613A",
"4  c #736C3A",
"5  c #767234",
"6  c #6B7B3A",
"7  c #3A5E4E",
"8  c #2B6B5E",
"9  c #3F6653",
"0  c #3F7F58",
"q  c #0E5467",
"w  c #0E5967",
"e  c #085568",
"r  c #115667",
"t  c #145B66",
"y  c #195E66",
"u  c #205E66",
"i  c #1B6266",
"p  c #146F6D",
"a  c #196E6C",
"s  c #1B6867",
"d  c #1C736C",
"f  c #16716D",
"g  c #286363",
"h  c #2F6861",
"j  c #336B62",
"k  c #23756A",
"l  c #297669",
"z  c #23796A",
"x  c #2C7969",
"c  c #257164",
"v  c #357C67",
"b  c #397E66",
"n  c #307A69",
"m  c #515F44",
"M  c #4F6D47",
"N  c #4E6E48",
"B  c #566640",
"V  c #546C44",
"C  c #5B6A43",
"Z  c #47764F",
"A  c #4B734C",
"S  c #4A784F",
"D  c #55744B",
"F  c #587549",
"G  c #477750",
"H  c #487751",
"J  c #427C55",
"K  c #4A7B51",
"L  c #776C41",
"P  c #7B6E41",
"I  c #627349",
"U  c #83562B",
"Y  c #89572A",
"T  c #845C2E",
"R  c #8C592C",
"E  c #925C2E",
"W  c #895B30",
"Q  c #8B612F",
"!  c #8A6838",
"~  c #946631",
"^  c #9B6532",
"/  c #9D6933",
"(  c #9D743D",
")  c #A16C34",
"_  c #A46D3A",
"`  c #A3773D",
"'  c #AC743A",
"]  c #AC783B",
"[  c #B37C3D",
"{  c #B97F3E",
"}  c #907A41",
"|  c #A87A40",
" . c #B47D41",
".. c #B97F42",
"X. c #6D8D3D",
"o. c #6B803B",
"O. c #758D3F",
"+. c #6F913D",
"@. c #3C855C",
"#. c #37895F",
"$. c #3A895F",
"%. c #3F8057",
"&. c #2E8265",
"*. c #328664",
"=. c #368D63",
"-. c #3C8E61",
";. c #3E9061",
":. c #4B8255",
">. c #428359",
",. c #428A5C",
"<. c #488657",
"1. c #44915E",
"2. c #4A935C",
"3. c #6B9D45",
"4. c #659D4C",
"5. c #699E49",
"6. c #669548",
"7. c #6DA245",
"8. c #67A04B",
"9. c #69A049",
"0. c #70A441",
"q. c #419060",
"w. c #BA823E",
"e. c #B7803C",
"r. c #A88244",
"t. c #B58444",
"y. c #BC8443",
"u. c #B68947",
"i. c #BD8A47",
"p. c #BB8D49",
"a. c #BD904B",
"s. c #C08745",
"d. c #C38B45",
"f. c #C58C49",
"g. c #C88E4A",
"h. c #CB9245",
"j. c #C1944C",
"k. c #CC934C",
"l. c #C5994F",
"z. c #CC994E",
"x. c #D1954C",
"c. c #D49A4C",
"v. c #D99C4D",
"b. c #C79B51",
"n. c #CA9D52",
"m. c #D09750",
"M. c #D49B52",
"N. c #DA9E51",
"B. c #DDA24D",
"V. c #CEA255",
"C. c #D2A556",
"Z. c #DBA254",
"A. c #DFAA57",
"S. c #DEA758",
"D. c #D5A959",
"F. c #DAAB5A",
"G. c #DDB15D",
"H. c #E3A74F",
"J. c #E1A455",
"K. c #E5AA54",
"L. c #E9AC55",
"P. c #E4AC5A",
"I. c #E9AD59",
"U. c #EDB255",
"Y. c #E5B35E",
"T. c #ECB35D",
"R. c #EEB85F",
"E. c #F1B557",
"W. c #F1B75D",
"Q. c #F5BA5C",
"!. c #F8BF5D",
"~. c #DDB260",
"^. c #E3B760",
"/. c #EBB760",
"(. c #E5B961",
"). c #ECBC63",
"_. c #ECBF69",
"`. c #F3BD62",
"'. c #FAC25F",
"]. c #EEC165",
"[. c #F4C366",
"{. c #FAC463",
"}. c #FFCA66",
"|. c #F5C568",
" X c #F9C668",
".X c #F5C96A",
"XX c #FCCD6B",
"oX c #FFD06D",
"OX c #FDCE70",
"+X c #FFD170",
/* pixels */
"=.=.=.=.=.=.=.#.=.=.=.#.=.=.=.#.=.=.=.=.=.#.=.=.=.=.=.#.=.=.=.=.=.=.=.=.=.=.=.=.=.=.*.=.=.=.=.=.=.=.=.=.=.=.=.=.=.=.=.=.=.=.*.-.",
"=.=.=.=.=.=.=.=.=.=.=.=.=.=.=.=.=.=.=.=.=.=.=.=.=.=.=.=.=.=.=.=.;.#.;.;.=.=.=.=.=.=.=.=.=.=.=.=.=.=.=.=.=.=.=.=.=.=.=.=.-.=.=.=.",
"=.=.=.=.=.=.=.=.=.=.=.=.=.=.=.=.=.=.=.=.=.=.;.=.=.=.=.=.=.=.=.q.7.7.7.8.=.=.=.=.=.=.=.=.=.=.=.=.=.=.=.=.=.=.=.=.=.=.=.=.=.=.=.=.",
"=.=.=.=.;.=.=.=.=.=.=.=.=.=.=.=.=.=.=.=.=.=.=.=.$.=.=.=.=.=.=.;.7.7.0.9.,.=.=.=.=.=.=.=.=.=.=.=.=.=.=.=.=.=.=.=.=.=.=.=.=.=.=.=.",
"=.=.=.=.=.=.=.=.=.=.=.=.=.=.=.=.=.=.=.=.=.=.=.,.0.8.=.=.=.=.=.;.;.1.7.0.7.8.=.=.=.=.=.=.=.=.=.=.-.=.=.=.=.=.=.=.=.=.=.=.=.=.=.=.",
"=.=.=.=.=.=.=.=.=.=.=.=.=.=.q.-.;.$.=.=.=.=.;.2.0.9.=.=.=.=.=.=.=.1.7.9.7.9.;.=.=.=.=.=.=.=.=.=.=.=.=.=.=.=.=.=.=.=.=.=.=.=.=.=.",
"=.=.=.=.=.=.=.=.=.=.=.=.=.1.7.7.7.8.=.=.=.;.7.7.0.9.-.=.=.=.=.=.=.=.=.;.;.;.=.=.d d d d =.=.=.=.=.*.d d a d d d =.=.=.=.=.=.=.=.",
"=.=.=.=.=.=.=.=.=.=.=.=.=.1.7.7.0.9.-.=.=.1.0.7.7.8.=.=.=.=.=.=.=.=.=.=.=.=.=.*.d d l l *.=.=.=.=.*.l l l l d d =.=.=.=.=.=.=.=.",
"=.=.=.=.=.=.=.=.=.=.=.=.=.=.;.2.0.0.3.6.@.,.0.7.;.;.=.=.=.=.=.=.=.=.=.=.=.=.=.=.w g 9.4.k d =.=.d n 5.3.7.4.k d =.=.=.=.=.=.=.=.",
"=.=.=.=.=.;.=.=.=.=.=.=.;.=.*.1.X.6.5 4 D :.3.9.#.=.=.=.=.=.=.=.=.=.=.=.=.=.=.*.w g 7.4.n l =.=.l b 7.0.0.5.k d =.=.=.=.=.=.=.=.",
"=.=.=.=.=.=.=.=.=.=.=.=.=.=.%.D 5 r.z.` & - V S @.#.=.=.=.=.=.=.=.=.=.=.=.*.d d f d =.1.5.5.k x 5.7.0.0.0.3.u t *.=.=.=.=.-.=.-.",
"=.=.=.=.=.=.=.=.=.=.=.=.=.@.  ( y.d.K.E.J.w.~ ; < A %.$.=.=.=.=.=.=.=.=.=.*.l k k l *.q.7.5.k l 5.7.7.0.0.5.y t =.=.=.=.=.=.=.=.",
"=.=.=.=.=.=.=.=.=.=.=.=.=.G $ d.v.' F.{.'.'.U.h.) & 3 V G @.#.#.=.=.=.*.d x 5.3.3.4.k z q.-.t y -.2.7.7.q.-.t t =.=.=.=.=.=.=.=.",
"=.=.=.=.=.=.=.=.=.=.=.=.@.> ~ v.L.k.z.|.}.}.'.'.U.B.w.Q ; > A >.#.=.=.*.f n 7.7.7.9.z d *.*.t t *.;.7.9.=.&.t y =.=.=.=.=.=.=.=.",
"=.=.=.=.=.=.=.=.=.=.=.=.0 o { K.Q.Z.e.G.+X+XoX}.}.'.!.K.h.) $ 3 V J @.#.d d l x -.;.=.*.y t q t =.=.-.-.y y a d =.=.=.=.=.=.=.=.",
"=.=.=.;.;.-.;.;.=.=.=.#.M Y x.W.XXR.j.b..XoXoXoXoXoX}.'.'.E.B.e.Q ; < Z 8 c d d =.=.=.*.y t t i *.=.=.*.y t d d =.=.=.=.=.=.=.=.",
"=.=.=.q.7.7.7.8.=.=.=.<.1 ' Z.{.XX{.k.t.].oXoXoXoXoXoXXXXX}.'.Q.H.h.) % , M 0 @.#.=.=.=.=.=.=.#.-.=.=.=.=.=.=.=.=.=.=.=.=.=.=.=.",
"=.=.=.2.7.7.0.8.;.#.=.S U d.T.XXXXXXT.y.C.XXoXoXoXoXoXoXoXoXoX}.'.!.U.B.[ Q = > A >.#.#.=.=.=.=.=.=.=.=.=.=.=.=.=.=.;.$.;.;.=.=.",
"=.=.=.=.;.2.0.0.7.5.#.> ^ v.!.oXoXXX[.k.a.|.oXoXoXoX+XoXoXoXoXoXoX}.}.'.E.H.h./ # 3 N J #.#.=.=.=.=.=.=.=.=.=.=.=.;.9.7.7.9.;.=.",
"=.=.=.=.=.q.7.7.7.4.0 o e.K. XoXoXoXXXJ.y.V.XXoX+X+X+XoXoXoXoXoXoXoXoXoX}.'.'.E.B.e.T ; V Z %.$.=.=.=.=.=.=.=.=.=.1.7.0.7.9.=.=.",
"=.=.=.=.=.=.;.;.-.,.N R x.W.XXoXoXoXXXR.j.b..X+XoX+XoXoXoXoXXXoXoXoXoXoXoXoX}.}.'.Q.H.d./ # , N J $.#.=.=.=.=.=.9.7.0.7.1.=.=.=.",
"=.=.=.=.=.=.=.=.=.@.X ' J.[.+XoXoXoXoX XB.] (.+XoXoXoXoXoXoXoXoXoXoXoXoXoXoXoXoXXX}.'.'.U.c.] R ; V Z %.$.=.=.;.9.7.7.8.;.=.=.=.",
"=.=.=.=.=.=.=.=.=.Z @ d.T.XXoXoXoXoXoXXXR.i.D..XoXoXoXoXoXoXoXoXoXoXoXoXoXoXoXoXoXoX}.}.}.{.Q.H.d.^ # , N J @.#.;.;.;.;.=.=.=.=.",
"=.=.=.=.=.=.=.=.@., / v.`.oXoXoXoXoXoXXX{.z.u.(.oXoXoXoXoXoXoXoXoXoXoXoXoXoXoXoXoX+X+X+XoXoX}.{.!.U.c.] Q - < Z @.#.=.=.=.=.=.=.",
"=.=.=.=.=.=.=.;.>.o w.I. X+XoXoXXXoXoXoXXXK.j.C..XoXoXoXoXoXoXoXoXoXoXoXoXoXoXoX+X+X+X+XoXoXoXXX}.'.'.'.H.d.~ # , Z #.=.=.=.=.=.",
"=.=.=.=.=.=.=.#.M R m.`.oXoXoXoXoXoXoXoXoXR.h.u.|.oXoXoXoXoXoXoXoXoXoXoXoXoXoXoXoXoXoXoXoXoXoXoX+XoX}.}.'.Q.U.c.] F $.#.=.=.=.=.",
"=.=.=.=.=.=.=.%.* ] J.|.oXoXoXoXoXoXoXoXoXXXK.y.^.XXoXoXoXoXoXoXoXoXoXoXoXoXoXoXoXoXoXoXoXoXoXoXoXoXoXoXoX}.{.E.H.( 0 #.=.=.=.=.",
";.=.=.=.=.=.#.Z U g.T.XXoXoXoXoXoXoXoXoXoXXX`.d.l..XoXoXoXoXoXXXoXoXoXoXoX}.oXoXoXoXoXoXoXoXoXoXoXoXoXoX+X|.).l.d.] F $.=.=.=.=.",
"=.=.=.=.=.=.@.> / N.`.XX+XoXoXoXoXoXoXoXoXoX`.k.i.G.XX+XoXoX+X+XoXoXoXoXoXoXoXoXoXoXoXoXoXoXoXoXoXXX.X].F.a.t.y.x.f.4 J ;.=.=.=.",
"=.=.=.=.=.=.>.o y.I.XXXXoXoXoXoXoXoXoXoX].].p.y.[ C.XXXX+X+X+X+XoXoXoXoXoXoXoXoXoXoXoXoXoXoXoXoXXX].D.a.y.g.Z.I.J.s.# >.=.=.=.=.",
"=.=.=.=.=.$.N R m.`.XX+XoXoXoXoXXXXX].G.V.u.C.C.x.i._.+X+XoXoXoXoXoXoXoXoXoXoXoXoXoXoXoXoX.X|.Y.a.a.] z.J.`.{.`.v.) , $.=.=.=.=.",
"=.=.=.=.=.$.* [ J. XXXXXoXoXXX.X].C.a.a.C.Y..X.XY.t.G.+XoXoXoXoXoXoXoXoXoXoXoXoXoXoXoXXX].Y.p.p.d.B.Y.'.XXXXXXT.g.$ G #.=.=.=.=.",
"=.=.=.=.#.Z $ g.Y.XXoXoXXX|.^.n.b.p.Y.).oXoXoXXX`.h.p.].oXoXoXoXoXoXoXoXoXoXoXoXoX XY.C.u.e.f.S./.|.XXXXXX+X XJ.] * >.=.=.=.=.=.",
"=.=.=.=.@.. ) N.[.oX.X).^.u.b.l.G.|..XoXoXoXoXoX XZ.i.G.XXoXoXoXoXoXoXoXoXoXXX.XF.C.t.p.z.P.`. XXX+XXX+XXXXXW.x.R M =.=.=.=.=.=.",
"=.=.=.=.J # s.P. X(.G.b.l.D.)..XoX+XoXoXoXoXoXoXoXR.i.j..XoXoXoXoXoXoX+X.X].D.a.p.[ B.Y.`.XX+X+XXX+X+XXXXXXXL.y.o J =.=.=.=.=.=.",
"=.=.*.=.J 4 f.m.n.p.a.F.].XX+X+X+XoXoXoXoXoXoXoXoX XZ.a.).oXoXoXoX}..XY.D.e.p.e.z.R. X}.oX+X+XXXoXoXoXoXXX`.N./ . @.=.=.=.=.=.=.",
"=.=.=.=.=.I `  .p.).|.oX+X+X+X+XoXoXoXoXoXoXoXoXoXXXT.e.n.XXoXXX|.G.n.y.a.k.K.y.l..XoXoXoXoXoXoXoXoXoXoXXXT.g.$ H =.=.=.=.=.=.=.",
"=.;.=.=.=.G ! u.M.Y.].XXXX+XoXoXoXoXoXoXoXoXoXoXoXoX[.x.j.G.].V.l.] f.M.T.[. XG.a..XoXoXoXoXoXoXoXoXoX+X{.J.' X @.=.=.=.=.=.=.;.",
"=.=.=.=.=.@.C ^  .g.M.Y.).|.XXoX+XoXoXoXoXoXoXoXoXoXXXS.' ` p.s.g.K.). XoXoXoX|.p.D..XoXoXoXoXoXoXoXoXXXW.x.R N #.=.=.=.=.=.=.=.",
"=.=.=.-.-.#.G , # R _ y.m.A.T.[.oXoXoXoXoXoXoXoXoXoXXX`.v.y.x.P.`. XXXoXoXoXoX.XD.V.].oXoXoXoXoXoXoXoX XP...o J -.-.=.=.=.=.=.=.",
"=.=.=.;.9.8.#.%.G < 1 U ^ [ d.Z.Y.).|. X+X+XoXoXoXoXXXXX`.`.|.OX+X+X+XoXoXoXoXoX^.p.G.oXoXoXoXoX+XXXXX`.N./ > ,.9.9.;.=.=.=.=.=.",
"=.=.=.2.0.8.;.;.=.,.+.6 , o R _ s.z.P./.|. XoXoXoXoXoXoXXXXXoXoX+X+XoXoXoXoXoXoXXXF.V..XoXoXoXoXoXXXXXT.d.$ S ,.7.7.=.=.=.=.=.=.",
"=.=.=.2.0.7.9.8.=.=.;.$.>.S V = $ ^  .g.Z.P.).XXXX+X+XXXXXoXoXoXoXoXoXoXoXoXoXoXXXY.t.).oXoXoXoXoXoX`.J.' * 3.3.0.7.-.=.=.=.=.=.",
"=.=.=.q.7.7.7.8.=.=.=.=.#.#.@.0 7   @ R ' y.M.A./.`.XXOXoXoXoXoXoXXXoXoXoXoXoXoXoX.XV.V..XoXoXoXoXXX`.x.W D 3.0.7.9.-.=.=.;.;.;.",
"=.=.=.=.;.2.0.8.=.=.=.=.=.=.=.*.a h 9 B ; U ^  .k.N.Y._.XXXX+X+XoXoXoXoXoXoXoXoXoXXXV.a.].+XoXoX+X XT.y.O :.3.7.q.-.=.-.9.7.7.7.",
"=.=.=.=.=.1.7.8.=.=.=.=.=.=.=.*.d d d c 0 D 2 @ R ' s.M.A./.[.XXoXoXXXoXoXoXoXoXoXoX.Xl.D.oXoXoX+X`.M.^ > ,.7.9.-.=.=.q.0.0.7.7.",
"=.=.=.=.=.=.;.;.=.=.=.=.=.=.=.=.=.=.=.-.=.=.J D B * U /  .k.Z.P.`..XoXoXoXoXoXoXoXoX.XD.b..XoXoXXXI.f.U H =.-.;.=.-.7.7.0.7.q.;.",
"=.=.=.=.=.=.=.=.;.=.=.=.=.=.*.=.=.=.*.=.=.=.=.*.@.G M - # R ' s.M.A./.|.XX+XoXoXoXoXoX].p.G.oXoX`.S.' % ,.=.=.=.=.;.9.0.7.9.=.=.",
"=.=.=.=.=.=.=.=.=.=.=.=.=.*.d d a d d z =.=.=.=.=.=.-.J Z B = U ^ ..k.N.Y.`..XOXoXoXoX|.b.D. XXXW.x.Y D =.=.=.=.=.=.;.;.;.;.=.=.",
"=.=.=.=.=.=.=.=.*.=.=.=.=.*.l l l l a k =.=.=.=.=.=.=.=.q.>.H F - # E  .f.M.~./.|.XX+XoX~.p.). XL...o 0 -.=.=.=.-.=.=.=.=.=.=.=.",
"=.=.=.=.-.*.d d d d k d d v 8.9.9.4.r i =.=.=.=.=.=.=.q.9.7.7.3.6.6 m # W _ y.m.Z.Y.).XX|.V.F.`.v.^ B @.=.=.=.=.*.=.=.=.=.=.=.=.",
"=.=.=.=.=.&.k k d d d d f b 0.0.7.4.r i =.=.=.=.=.=.=.q.0.0.0.0.0.5.-.G M : # E ] f.M.P.(.V.] N.s.# G =.=.=.=.=.-.=.=.=.=.=.=.=.",
"=.=.=.*.f &.9.5.5.4.=.x e j 7.8.q.=.r i =.=.=.=.=.q.8.7.0.7.0.7.,.q.=.*.=.J S , = U _ ..k.f. .u.} * 0 =.=.=.=.=.=.=.=.=.=.=.=.=.",
"=.=.=.*.f *.7.7.7.4.-.*.e h 7.8.=.&.r i =.=.=.=.=.q.7.7.7.7.7.8.-.=.=.-.=.=.$.%.G V - # ^ | ! L F J -.=.=.=.=.=.=.=.=.=.=.=.=.=.",
"=.=.=.=.d d l n -.q.7.4.q i ;.=.t t f d =.=.=.=.=.=.q.q.q.-.;.-.=.=.=.=.=.=.=.=.*.@.J A , , <.;.=.=.=.=.=.=.=.=.=.=.=.=.=.=.=.=.",
"=.=.;.=.d d d z -.q.7.4.r s -.*.t p d &.=.=.=.=.=.=.=.=.-.=.=.=.=.=.=.=.=.=.=.=.-.=.=.=.>.$.=.=.=.=.=.=.=.=.=.=.=.=.=.=.=.=.=.=.",
"=.=.=.=.=.=.=.=.-.=.;.-.*.=.=.=.=.=.=.=.=.=.=.=.=.=.;.=.=.=.=.=.=.=.=.=.=.=.=.=.=.=.=.=.=.;.=.=.=.=.=.=.=.=.=.=.=.=.=.=.=.=.=.=.",
"=.=.=.=.=.=.=.=.=.=.=.=.=.=.=.=.=.=.=.=.=.=.=.=.=.=.=.=.=.;.=.=.=.=.=.=.=.=.=.=.=.=.=.=.=.=.=.=.=.=.=.=.=.=.;.=.=.=.=.=.=.=.=.=.",
"=.=.=.=.=.=.=.=.=.=.=.=.=.=.=.=.=.=.=.=.=.=.=.=.=.=.=.=.=.=.=.=.=.=.=.=.=.=.=.=.=.=.=.=.=.=.=.=.=.=.=.=.=.=.=.=.=.=.=.=.=.=.=.=.",
"=.=.=.=.=.=.=.=.=.=.=.=.=.=.=.=.=.=.=.=.=.=.=.=.=.=.=.=.=.=.=.=.=.=.=.=.=.=.=.=.=.=.=.=.=.=.=.=.=.=.=.=.=.=.=.=.=.=.=.=.=.=.=.=.",
"=.=.=.=.=.=.=.=.=.=.=.=.=.=.=.=.=.=.=.=.=.;.=.=.=.=.=.=.=.=.=.=.=.=.=.=.=.=.=.=.=.=.=.=.=.=.=.=.=.=.=.=.=.=.=.=.=.=.=.=.=.=.=.=.",
"=.=.=.=.=.=.=.;.=.=.=.=.;.=.=.=.=.=.=.=.=.=.=.=.=.=.=.=.=.=.=.=.=.=.=.=.=.=.=.=.=.=.=.=.=.=.=.;.=.=.=.=.=.=.=.=.=.=.=.=.=.;.=.=.",
"=.=.=.=.=.=.=.=.=.=.=.=.=.=.=.=.=.=.=.=.=.=.=.=.=.=.=.=.=.=.=.=.=.=.=.=.=.=.=.=.=.=.=.=.=.=.=.=.=.=.=.=.=.=.=.=.=.=.=.=.=.=.=.=.",
"=.=.=.=.=.=.=.=.=.=.=.=.=.=.=.=.=.=.=.=.=.=.=.=.=.=.=.=.=.=.=.=.=.=.=.=.;.=.=.=.=.=.=.=.=.=.=.=.=.=.=.=.=.=.=.=.=.=.=.;.=.=.=.=."
};
