/* XPM */
static char *ca956c475a5943479726df87d797a7d6vnnouewEiCvWLU7M[] = {
/* columns rows colors chars-per-pixel */
"64 64 42 1 ",
"  c #075367",
". c #0E5467",
"X c #0E5967",
"o c #095768",
"O c #105667",
"+ c #145B66",
"@ c #195E66",
"# c #235E64",
"$ c #166067",
"% c #1B6266",
"& c #146F6D",
"* c #196E6C",
"= c #16716D",
"- c #1C736C",
"; c #2A6462",
": c #2F6A62",
"> c #306661",
", c #326B62",
"< c #23756A",
"1 c #2A766A",
"2 c #23796A",
"3 c #2C7969",
"4 c #347C67",
"5 c #387E66",
"6 c #307A69",
"7 c #2E8265",
"8 c #318664",
"9 c #368D63",
"0 c #3C8E61",
"q c #3F9061",
"w c #44915E",
"e c #4A935C",
"r c #6A9E47",
"t c #61964E",
"y c #659D4C",
"u c #699F49",
"i c #6DA245",
"p c #67A04A",
"a c #69A048",
"s c #71A441",
"d c #408F61",
"f c #419060",
/* pixels */
"9999099899989999999999999999999999999899999899999909999999089989",
"99999990999999999999999999999999q0099999999999999999999999999990",
"9999999999999999999999999999999fiiip9999999999999999999999999999",
"999999999990999999999999qq99999wiisiqq99999999999999999999999999",
"99999999999999999999999fip9999990wsssp99999999999999999999999990",
"99999999999999ddqq9999qesp99999990iisy99998999999989999899999999",
"9999999999998wsrip999qiisp999999990q0098----999999-----<99999999",
"9999999999999wrsipqq9fiisp99999999999999--13899q98311<*<99999999",
"99999999999999qesssp9qiiqq99999999999998X;ry<-99-3rirr<-89999999",
"999999999999999wiiip9qip9999999999999998X;iy318814issr<-99999999",
"9999999999999999q99q99qq99999999999998--&-9ery<3risssr#+89999099",
"99999999999999999999999999999999999999<<<180iu<1airssr@+99999999",
"999999999999999999999999999999999999-3aary2200+%0eiiw9++99999999",
"99999999999999qqq9999999999999999998-3iiir1-88O@80ia07++99999999",
"9999999999999wiisp999999999999999999--130098@+.@9900%+*-99999999",
"9999q0qq99999wsssp9999999999q9999999----9998@++%9998@@--99999999",
"999wsiip999fssspqq9999999999999999999999999999999999998999999999",
"999wisspq99qiasp999999999999999999999999999999999999999999000099",
"999q0esssp99q9q99999999999999999999999q9999999999999999990aiip09",
"99999fiisp99999999999999999999999999999999999999999999990wisii09",
"99999900q99999999999999999999999999999999999999999999990psssw999",
"9999999999999999999999999999q999999999999999999999990990piip0999",
"99999999999999999999999999999999999999999999999q99999999qqqq9999",
"99999999q9999999999999999999999999999999999999999999999999999999",
"9999999999999999999999999999999999999999999999999999999999999999",
"9999999999999999999999999999999999999999999999999999999999999999",
"99999999999999999999999999999999999999999999999999q9999999999999",
"9999q999999999999999999999q999q999999999999999999999999999999999",
"99999999999999q99q999999999999999999999999q999999999999999999999",
"9999999999999999999999999999999999999999999999999999999999999999",
"9999999999999999999999999999999999999999999999999999999999999999",
"9999999999999999999999999999999999999999999999999999999999999999",
"9999999999999999999999999999999999999999999999999999999999999999",
"9999999999999999999999999999999999q99999999999999999999999999999",
"9999999999999999999999999999999999999999999999999999999999999999",
"999999999999qq99999999999999999999999999999999999999999999999999",
"99999999999fiy99999999999999999q999999999999999999999q99999999q9",
"999999999qqfsa999999999999999898999q9999999q99999999999999999999",
"99999999qfiisa999999999999q9---299999999999999999999999999999999",
"999q9q999fssiy99999999999998<<<<999999999999999999999999qq999999",
"999fip999fspfq9999-----<98-3aaiy77899999999999999999999qppq99999",
"999espq99fip9999981331-<9825sssu7-989999999999999999999wiiq99999",
"999fsiip99009999=8aaiy97+:rasssspy-799999999999999999qaisiq99999",
"999fiiip99999998=6aiiyd9 >ssiiiray=&999999999qqqqq999qissp999qq9",
"9999qesa99999998--130fiyo:sif9;#;%O%9999999faiiiip999qiif99qpiii",
"99999fip99999999---<9fiy@:ry97X+XXX%9999999faisssiw99qpaq9qfssii",
"999999qq99999999999999d089q09998998999999999qfisssipq9q99qiisifq",
"9999999999999989998999999999999999q9999999999qiiiiii99999qpsip99",
"99999999999999-----2999q9999999999999999999999qqqqq999999qqqq999",
"99999999989998113<*<99999999qq0qqq999999999999999999999999999999",
"999998------*5uaitX%8999999qaiiiipq99999999999999999999999999999",
"999998<<----=5sssyO%9999999fsssiip999999999999999999999999999999",
"9999=8auut97o,iaq8X%99999faisssiqq9999q9999999999999999999999999",
"9998=8iiiy08 >ap97X%99999wiiiiip99999999999999999999999999999999",
"9999--36ffit.%f0$$&7999999qqq0f099999999999999999999999999999999",
"9999--*<9fst+%98o&=799999999999999999999999999999999999999999999",
"9999899990f08999999999999999999999999999999999999999999999999999",
"999999999999q999999999999q9999999999999999999999999999999q999999",
"999999q99999999999q999999999999999999999999999999999999999999999",
"999999999999999999999999999999999999999999q999q99999999999999999",
"999999999999999999999999999999999999999999999999999q999999999999",
"9999999999999999999999999999999999999999999999999999999999999999",
"999999999999999999999999999999999999q9999999999999999999q9999999",
"9999999999999999999999999999999999999999999999999999999999999999"
};
