/* XPM */
static char *_22dc12f11704062992ceae27cb73edcG9bDSKIMYqceBRTb[] = {
/* columns rows colors chars-per-pixel */
"64 64 229 2 ",
"   c #000000",
".  c #00000C",
"X  c #050F0A",
"o  c #000113",
"O  c #01041B",
"+  c #040B1C",
"@  c #090C1B",
"#  c #0D131C",
"$  c #19141B",
"%  c #130C0C",
"&  c #0F281C",
"*  c #030924",
"=  c #081624",
"-  c #131523",
";  c #161A25",
":  c #1A1A26",
">  c #1B1D2A",
",  c #171828",
"<  c #001332",
"1  c #241C2A",
"2  c #251C28",
"3  c #2D1C2A",
"4  c #1A242A",
"5  c #1B2C2D",
"6  c #162629",
"7  c #173829",
"8  c #072235",
"9  c #1C2836",
"0  c #1C3535",
"q  c #0E3235",
"w  c #27232B",
"e  c #2B2D35",
"r  c #272735",
"t  c #342C38",
"y  c #243A36",
"u  c #3C333D",
"i  c #383538",
"p  c #2F2928",
"a  c #28121E",
"s  c #452A2B",
"d  c #473636",
"f  c #5B3935",
"g  c #52312F",
"h  c #713A2F",
"j  c #47261F",
"k  c #194439",
"l  c #1C4933",
"z  c #24463B",
"x  c #384834",
"c  c #2F5336",
"v  c #2F451D",
"b  c #4B5136",
"n  c #6E473D",
"m  c #4E733A",
"M  c #153747",
"N  c #1F2E42",
"B  c #222D42",
"V  c #273649",
"C  c #3B3C44",
"Z  c #373947",
"A  c #2A3957",
"S  c #2B3D62",
"D  c #463B47",
"F  c #533F41",
"G  c #1A4E49",
"H  c #264B43",
"J  c #285946",
"K  c #2E455A",
"L  c #394657",
"P  c #2A6B4D",
"I  c #28614A",
"U  c #2D6E52",
"Y  c #296551",
"T  c #2D7454",
"R  c #2E7957",
"E  c #317D5A",
"W  c #337755",
"Q  c #306E4F",
"!  c #155C66",
"~  c #1A5D66",
"^  c #0E5967",
"/  c #364768",
"(  c #384D78",
")  c #335472",
"_  c #196868",
"`  c #1C736C",
"'  c #29766A",
"]  c #26776A",
"[  c #317465",
"{  c #46434B",
"}  c #574847",
"|  c #4D4852",
" . c #4A5857",
".. c #595657",
"X. c #754D48",
"o. c #7A5246",
"O. c #675754",
"+. c #694F49",
"@. c #6D635C",
"#. c #465975",
"$. c #4C5464",
"%. c #64646A",
"&. c #75757A",
"*. c #6F6D6E",
"=. c #53657D",
"-. c #8D4535",
";. c #874437",
":. c #934C3B",
">. c #934635",
",. c #914E37",
"<. c #985847",
"1. c #A25C41",
"2. c #906655",
"3. c #A76548",
"4. c #A66A54",
"5. c #8A756C",
"6. c #897976",
"7. c #94786F",
"8. c #B37569",
"9. c #5D873E",
"0. c #6D9E3F",
"q. c #33845E",
"w. c #3A855A",
"e. c #368D63",
"r. c #3C8E61",
"t. c #338663",
"y. c #388C61",
"u. c #44915E",
"i. c #4A935C",
"p. c #659D4B",
"a. c #689D47",
"s. c #6DA245",
"d. c #69A048",
"f. c #67A04B",
"g. c #71A441",
"h. c #419060",
"j. c #998378",
"k. c #AE897B",
"l. c #DB8C7C",
"z. c #365585",
"x. c #445986",
"c. c #455D92",
"v. c #465F9B",
"b. c #556985",
"n. c #456195",
"m. c #46639A",
"M. c #4A649B",
"N. c #4B6598",
"B. c #5C7597",
"V. c #49658C",
"C. c #637996",
"Z. c #6F7A88",
"A. c #4D6AA3",
"S. c #526DA2",
"D. c #5A77A7",
"F. c #617DA8",
"G. c #6784AB",
"H. c #738DAB",
"J. c #6888B3",
"K. c #7695B9",
"L. c #7996BB",
"P. c #7A99BD",
"I. c #7695B7",
"U. c #718FB3",
"Y. c #6B8098",
"T. c #7B9CC1",
"R. c #86858B",
"E. c #9C8A83",
"W. c #8A8B94",
"Q. c #908F93",
"!. c #98969B",
"~. c #A68E83",
"^. c #B69689",
"/. c #B69E93",
"(. c #AE8F86",
"). c #BDA394",
"_. c #9B9DA5",
"`. c #8399B2",
"'. c #A09FA4",
"]. c #A6A4A9",
"[. c #AEADB2",
"{. c #AEAFBA",
"}. c #B1AEB5",
"|. c #B4B1B5",
" X c #BBB8BD",
".X c #96A8BF",
"XX c #CE9A8A",
"oX c #E19E87",
"OX c #C6A38E",
"+X c #DEA38D",
"@X c #DEA186",
"#X c #C9A596",
"$X c #D7A99B",
"%X c #D6B29D",
"&X c #E2A38D",
"*X c #E2A995",
"=X c #E3B39E",
"-X c #DBB4A2",
";X c #DEBAA5",
":X c #DABBAA",
">X c #CDACA4",
",X c #E1BBA5",
"<X c #E1BEAC",
"1X c #E2B3A5",
"2X c #E3C1AD",
"3X c #E9C3AD",
"4X c #E5C4B2",
"5X c #EDC8B3",
"6X c #F1C7B4",
"7X c #DFC0AF",
"8X c #91A9C6",
"9X c #BDBCC0",
"0X c #A6BCD7",
"qX c #C2BFC5",
"wX c #B9C9DF",
"eX c #BBCBE1",
"rX c #C3C1C5",
"tX c #CDC9CD",
"yX c #C7C4C9",
"uX c #D1CBCE",
"iX c #CFCCD1",
"pX c #D2CED2",
"aX c #D6D1D5",
"sX c #D9D4D7",
"dX c #DAD5D9",
"fX c #DDD8DC",
"gX c #D6D3D8",
"hX c #C1D2E7",
"jX c #C0CFE6",
/* pixels */
"e.e.e.e.e.e.e.e.e.e.e.e.e.e.e.e.e.e.e.e.e.e.e.e.e.e.e.e.e.e.e.e.e.e.e.e.e.e.e.e.e.e.e.e.e.e.e.e.e.e.e.e.e.e.e.e.e.e.e.e.e.e.e.e.",
"e.e.e.e.e.e.e.e.e.e.e.e.e.e.e.e.e.e.e.e.e.e.e.e.e.e.e.e.e.e.e.e.r.r.r.e.e.e.e.e.e.e.e.e.e.e.e.e.e.e.e.e.e.e.e.e.e.e.e.e.e.e.e.e.",
"e.e.e.e.e.e.e.e.e.e.e.e.e.e.e.e.e.e.e.e.e.e.e.e.e.e.e.e.e.e.e.u.s.s.s.f.e.e.e.e.e.e.e.e.e.e.e.e.e.e.e.e.e.e.e.e.e.e.e.e.e.e.e.e.",
"e.e.e.e.e.e.e.e.e.e.e.e.e.e.e.e.e.e.e.e.e.e.e.e.r.r.e.e.e.e.T c x m 0.d.r.e.e.e.e.e.e.e.e.e.e.e.e.e.e.e.e.e.e.e.e.e.e.e.e.e.e.e.",
"e.e.e.e.e.e.e.e.e.e.e.e.e.e.e.e.e.e.e.e.e.e.e.u.s.p.e.e.z # e L Z > % b s.d.e.e.e.e.e.e.e.e.e.e.e.e.e.e.e.e.e.e.e.e.e.e.e.e.e.e.",
"e.e.e.e.e.e.e.e.e.e.e.e.e.e.r.r.r.r.e.e.e.e.e.i.g.d.q.& L Y.I.L.P.H.b.r v p.e.e.e.e.e.e.e.e.e.e.e.e.e.e.e.e.e.e.e.e.e.e.e.e.e.e.",
"e.e.e.e.e.e.e.e.e.e.e.e.e.u.s.s.s.p.e.e.e.u.s.s.g.d.& L `.T.L.L.L.T.T.H.L 7 e.t.` ` ` ` e.e.e.e.e.e.` ` ` ` ` ] e.e.e.e.e.e.e.e.",
"e.e.e.e.e.e.e.e.e.e.e.e.e.u.s.s.g.d.r.e.e.u.g.g.s.m e .X8XL.P.L.L.P.L.T.I.$.c t.` ` ' ] e.e.e.e.e.t.] ' ' ' ` ` e.e.e.e.e.e.e.e.",
"e.e.e.e.e.e.e.e.e.e.e.e.e.e.e.i.g.g.s.p.e.u.g.d.r.7 %.hX0XP.T.L.L.L.L.L.L.I./ P ^ ~ a.p.] ` e.e.` ' a.s.s.p.] ` e.e.e.e.e.e.e.e.",
"e.e.e.e.e.e.e.e.e.e.e.e.e.e.e.u.s.s.s.p.e.u.s.p.e.& W.hXeX0XP.L.L.L.L.L.L.L.G.B ^ ~ d.a.' ] e.t.' [ s.g.g.a.] ` e.e.e.e.e.e.e.e.",
"e.e.e.e.e.e.e.e.e.e.e.e.e.e.e.e.r.r.r.r.e.e.r.r.e.& W.hXwXeX0XL.L.L.L.L.P.L.K.b.q ` e.u.s.p.] ' d.s.s.g.g.a.~ ! e.e.e.e.e.e.e.e.",
"e.e.e.e.e.e.e.e.e.e.e.e.e.e.e.e.e.e.e.e.e.e.e.e.e.l W.hXeXeX0XL.L.L.L.L.L.L.K.G./ l q.r.s.a.] ' d.s.g.g.s.p.~ ! e.e.e.e.e.e.e.e.",
"e.e.e.e.e.e.e.e.e.e.e.e.e.e.e.e.e.e.z 5 y J P q.e.R Z.hXwXeX8XL.L.L.L.L.K.K.L.J.N.V V G w.r.! _ r.u.s.s.u.r.! ! e.e.e.e.e.e.e.e.",
"e.e.e.e.e.e.e.e.e.e.e.e.e.e.r.r.r.W ; ; ; r L L z 7 $.eXeXeX`.L.L.L.L.L.L.L.L.J.S.x.V.#.K U ! ! t.r.s.d.r.t.! ! e.e.e.e.e.e.e.e.",
"e.e.e.e.e.e.e.e.e.e.e.e.e.u.s.s.s.c ; ; ; ; r $.C.b.Z &._.8XL.T.L.L.L.L.L.K.K.D.A.N.n.M.c.A M ! e.e.r.r.~ ! ` ` e.e.e.e.e.e.e.e.",
"e.e.e.e.r.r.r.r.e.e.e.e.e.i.g.g.s.y ; ; : : - @ V G.P.C.L 9 / C.L.L.L.P.K.I.G.S.A.M.N.m.M.x.9 _ e.e.e.t.~ ! ` ] e.e.e.e.e.e.e.e.",
"e.e.e.u.s.s.s.p.e.e.e.u.s.s.g.d.r.Q ; ; ; ; : : # * B.T.T.G.$., $.H.T.L.K.G.S.A.M.M.M.N.n.n.A T e.e.e.e.e.e.e.e.e.e.e.e.e.e.e.e.",
"e.e.e.u.s.s.g.d.r.e.e.u.s.s.s.p.e.e.T 5 ; : ; ; . +.u #.F.G.D.(   8 C.U.D.S.A.( / z.m.n.n.n./ E e.e.e.e.e.e.e.e.e.e.r.r.r.r.e.e.",
"e.e.e.e.e.i.g.g.s.p.e.e.r.r.r.E l c q.t.H 4 : . 5.>X^.} < M Z @.(.7.$ ( D.S.( 7.OX5.( n.n.c.K e.e.e.e.e.e.e.e.e.e.r.d.s.s.d.r.e.",
"e.e.e.e.e.u.s.s.s.p.e.e.e.e.t.x 2.5.C l e.e.7 @.2X4X1X#X(.(.XX$X$X$X(.u x.m.@./.^.#XL n.n.( I e.e.e.e.e.e.e.e.e.r.u.s.g.s.d.r.e.",
"e.e.e.e.e.e.r.r.r.e.e.e.e.e.U 2.&X6X:X5.6 U  .%X2X4X>XO.#X$X$X-X-X-X-XO.M / k.O.OX%XO.z./ J e.e.e.e.e.e.e.e.e.r.d.s.g.s.h.e.e.e.",
"e.e.e.e.e.e.e.e.e.e.e.e.e.e.G 2.oX=X6X=Xk.d *.4X4X).O 5.:X<X2X2X2X4X/.t 3 O.E.} XX%X} M I e.e.e.e.e.e.e.e.e.e.r.d.s.s.d.e.e.e.e.",
"e.e.e.e.e.e.e.e.e.e.e.e.e.e.J 2.oXoX+X+X*XXX7.:X4X(.~.<X2X<X3X3X2X/.i +.s j.5.. +.).H e.e.e.e.e.e.e.e.e.e.e.e.e.r.r.r.r.e.e.e.e.",
"e.e.e.e.e.e.e.e.e.e.e.e.e.e.U } oX@X&X&X+X&X*X=X2X4X4X2X,X;X#XE...+ +.o.p k.^.~.k.j.R e.e.e.e.e.e.e.e.e.e.e.e.e.e.e.e.e.e.e.e.e.",
"e.e.e.e.e.e.e.e.e.e.e.e.e.e.q.= 8.&X@X&X+X&X&X*X<X2X2X7X<X:X} @ f X.o.X.a ^.,XOX(.c e.e.e.e.e.e.e.e.e.e.e.e.e.e.e.e.e.e.e.e.e.e.",
"e.e.e.e.e.e.e.e.e.e.e.e.e.e.e.k +.l.@X+X+X&X&X*X,X2X<X,X,X;X~.s o.o.X.f , ^.%X^.b ; q R e.e.e.e.e.e.e.e.e.e.e.e.e.e.e.e.e.e.e.e.",
"e.e.e.e.e.e.e.e.e.e.e.e.e.e.e.q.= 2.l.oX&X&XoX+X$X<X;X;X;X%X/...X.X.n s , i F f 1.3.n 1 G e.e.e.e.e.e.e.e.e.e.e.e.e.e.e.e.e.e.e.",
"e.e.e.e.e.e.e.e.e.e.e.e.e.e.e.e.J = X.4.8.8.4.X.).2X;X;X;X,X(.6.s f g 2 h >.>.:.:.<.3.2.d q e.e.e.e.e.e.e.e.e.e.e.e.e.e.e.e.e.e.",
"e.e.e.e.e.e.e.e.e.e.e.e.e.e.e.e.e.T k = = = q 7 7.-X,X-X-X;X>X6.6.s p f >.:.:.:.:.:.:.1.4.d J e.e.e.e.e.e.e.e.e.e.e.e.e.e.e.e.e.",
"e.e.e.e.e.e.e.e.e.e.e.e.e.e.e.e.e.e.e.e.q.q.e.e.l O.^.%X,X;X2X/.*.{ 2 ;.;.;.:.:.:.:.:.:.3.2.y e.e.e.e.e.e.e.e.e.e.e.e.e.e.e.e.e.",
"e.e.e.e.e.e.e.e.e.e.e.e.e.e.e.e.e.e.e.e.e.e.e.e.e.P q O.5.~.j.@.o # 4 $.#.$.g ;.>.:.:.:.:.4.d T e.e.e.e.e.e.e.e.e.e.e.e.e.e.e.e.",
"e.e.e.e.e.e.e.e.e.e.e.e.e.e.e.e.e.e.e.e.e.e.e.e.e.e.e.E R R I * L r B.J.J.J.V.g ;.;.:.:.:.3.b q.e.e.e.e.e.e.e.e.e.e.e.e.e.e.e.e.",
"e.e.e.e.e.e.e.e.e.e.e.e.e.e.e.e.e.e.e.e.e.e.e.e.e.E T R R e.P B.=.b.U.G.G.G.S./ h f g ;.:.;.y e.e.e.e.e.e.e.e.e.e.e.e.e.e.e.e.e.",
"e.e.e.e.e.e.e.e.e.e.e.e.e.e.e.e.e.e.e.e.e.e.e.e.I @.7.j.6.*.i C./ G.J.G.G.F.n.( h -.f w f s i q Y e.e.e.e.e.e.e.e.e.e.e.e.e.e.e.",
"e.e.e.e.e.e.e.e.e.e.e.e.e.e.e.e.e.e.e.e.e.e.q.R *.:X-X#X,X-X#Xi / J.G.G.G.B.v./ h -.-.h f ;.3.n : T e.e.e.e.e.e.e.e.e.e.e.e.e.e.",
"e.e.e.e.e.e.e.e.e.e.e.e.r.e.e.e.e.e.e.k l y e O E.5XE.OXk.#XOXp V G.F.D.S.v.c.B : h -.-.-.-.:.3.f k e.q.E e.e.e.e.e.e.e.e.e.e.e.",
"e.e.e.e.e.e.e.e.e.e.e.u.s.p.e.e.e.e.P W.{.C u e O.)...(.F O.} r B N.M.n.v.M.A ( A j -.-.-.-.;.1.n G U 6 : U e.e.e.e.e.e.e.e.e.e.",
"e.e.e.e.e.e.e.e.e.e.e.i.g.d.e.e.e.e.P W.{.{ u C r = > - - * = C.L B / ( ( S ( A.z.2 h >.-.-.-.<.f 8 : ; ; U e.e.e.e.e.e.e.e.e.e.",
"e.e.e.e.e.e.e.e.t.u.s.s.g.a.E E E q.e.G X - r t t e 2 - : % V U.G.( A A / x.n.v.c.8 h >.-.-.-.n 2 ; ; : ; I e.e.e.e.e.e.e.e.e.e.",
"e.e.e.e.e.e.e.e.e.u.g.9.x 4 + + @ 5 H E 5 ; ; - $ e C Z t #.G.L.D.A.M.m.n.v.v.n.c.9 s h -.;.g = - : ; o . - 0 U e.e.e.e.e.e.e.e.",
"e.e.e.u.s.p.e.e.e.u.m >     C { i   . 4 4 ; 9 B B e ..%.| b.H.#.Z V / x.n.m.m.c.A $ , 1 f p = ; : -   ..%.r   ; m d.r.e.e.e.e.e.",
"e.e.e.u.g.d.r.e.e.Q ;   *.|.iXpXtX[.%.  ; - 4 V K V e *.Z.Z r u D D 2 : A / / B : 1 1 : = - : : o . Q.aXdXyXR.. # m r.e.e.e.e.e.",
"e.e.e.u.g.g.s.p.W ;   Q.dXfXdXsXfXfXaXR.  ; : 9 K / V > ..C D | { D Z 3 2 $ $ : 1 1 : ; : : ;   { }.fXdXdXsXfX_.. ; W e.e.e.e.e.",
"e.e.e.u.s.s.g.d.y   R.fXsXdXdXdXdXdXdXaX&.  : : V K K B * u | { D Z u 1 1 1 1 1 1 : : ; : @   &.tXfXgXsXdXdXdXfXR.  0 e.r.r.r.r.",
"e.e.e.e.e.i.g.m + { tXdXdXdXdXfXfXdXsXdXqXe - i , V K V ; D | D r r w 1 1 1 1 1 : : ; ; - t _.gXdXdXfXfXfXfXsXdXtX{ + W d.s.s.s.",
"e.e.e.e.e.u.s.x   Q.fXdXdXfXrX]. XsXdXaXaXZ.  m M 4 V N : D D { u w w 1 : > , ; ; ; : ;   !.fXaXsXgX[.W.].pXdXsXsXW.  J s.g.s.s.",
"e.e.e.e.e.e.r.5 o  XfXsXfX[.w     Q.gXaXpX[.  y e.0 4 r ; D D D D t 1 1 : ; ; 9 N V 9 - - 9XdXsXdX!.      &.aXsXdX[.. y g.s.u.r.",
"e.e.e.e.e.e.E - i tXdXdXtXC o : #   |.aXpX X> 5 e.e.0 4 - u D D D u 1 1 1 : : 4 9 V 9 @ C iXdXdXrX> @ ; -   [.fXaX Xw 5 s.d.e.e.",
"e.e.e.e.e.e.E O | pXdXdX|.  ; ; :   Q.aXuXqXe 6 e.e.q.5 ; w D d D D w 1 1 : H J J z r O | pXdXfX|.  ; ; :   Q.dXaXrXe 6 r.r.e.e.",
"e.e.e.e.e.e.R + { tXdXfX|.  ; ; ,   Q.aXuX Xr 6 e.e.e.q.W y t d u d e 1 : y J U e.e.E + { tXdXdX X  ; : ;   !.dXpX9Xw 6 e.e.e.e.",
"e.e.e.e.e.t._ - r yXdXdXtX{   , = o |.pXuX|.= 5 e.e.e.h.d.9.: e u u 1 : : U 4 ; q.e.q.; 4 rXsXsXpX%.  #   e rXaXpX[.. 5 e.e.e.e.",
"e.e.e.e.e.t.] 0   [.fXaXdX|.{   : !.iXtXuX!.  y e.e.e.u.s.x : ; > 4 : : 5 J ; z e.e.e.0   ].gXpXdXqX%.e  .[.aXuXpXQ.  z e.e.e.e.",
"e.e.e.t.` [ a.x   &.dXaXaXdXyX}.9XiXtXtXtX%.o I e.u.d.s.b : ; ; ; ; ; ; J z ; T e.e.e.J o %.iXpXpXaXpXrXtXaXtXtXyX| O U e.e.e.e.",
"e.e.e.t._ [ s.9.; + |.dXpXpXpXpXiXtXtXpX'.. 6 q.e.u.s.a.4 ; ; ; ; ; ; 4 I ; 0 e.e.e.e.E ; . _.aXuXuXpXpXuXuXtXpXQ.  5 e.e.e.e.e.",
"e.e.e.t.` ` ' [ z o | qXaXpXuXtXtXtXuX|.C + J e.e.e.r.w.; : ; ; ; ; ; J y ; P e.e.e.e.e.H + e }.pXtXtXtXtXuXpX].> # I e.e.e.e.e.",
"e.e.e.t.` ` ` ] E 5   | |.pXpXpXuXtX[.C o 5 t.e.e.e.e.q.: ; ; ; ; ; 6 P ; 5 e.e.e.e.e.e.q.5 O e !.yXiXiXiXrXQ.; @ z e.e.e.e.e.e.",
"e.e.e.e.e.e.e.e.e.U : o = *.!.].!.%.o O 5 E e.e.e.e.e.e.H ; ; ; ; ; H z ; J e.e.e.e.e.e.e.q.5 #   | &.R.&.C   - z e.e.e.e.e.e.e.",
"e.e.e.e.e.e.e.e.e.e.T 0 -         o ; y q.e.e.e.e.e.e.e.e.z 4 6 6 0 U : 4 q.e.e.e.e.e.e.e.e.E y : +       + ; H e.e.e.e.e.e.e.e.",
"e.e.e.e.e.e.e.e.e.e.e.e.I 0 5 5 5 z U e.e.e.e.e.e.e.e.e.e.e.q.q.q.e.E z J e.e.e.e.e.e.e.e.e.e.e.T H y 5 y J E e.e.e.e.e.e.e.e.e.",
"e.e.e.e.e.e.e.e.e.e.e.e.e.e.e.e.e.e.e.e.e.e.e.e.e.e.e.e.e.e.e.e.e.e.e.e.e.e.e.e.e.e.e.e.e.e.e.e.e.e.e.e.e.e.e.e.e.e.e.e.e.e.e.e.",
"e.e.e.e.e.e.e.e.e.e.e.e.e.e.e.e.e.e.e.e.e.e.e.e.e.e.e.e.e.e.e.e.e.e.e.e.e.e.e.e.e.e.e.e.e.e.e.e.e.e.e.e.e.e.e.e.e.e.e.e.e.e.e.e.",
"e.e.e.e.e.e.e.e.e.e.e.e.e.e.e.e.e.e.e.e.e.e.e.e.e.e.e.e.e.e.e.e.e.e.e.e.e.e.e.e.e.e.e.e.e.e.e.e.e.e.e.e.e.e.e.e.e.e.e.e.e.e.e.e.",
"e.e.e.e.e.e.e.e.e.e.e.e.e.e.e.e.e.e.e.e.e.e.e.e.e.e.e.e.e.e.e.e.e.e.e.e.e.e.e.e.e.e.e.e.e.e.e.e.e.e.e.e.e.e.e.e.e.e.e.e.e.e.e.e.",
"e.e.e.e.e.e.e.e.e.e.e.e.e.e.e.e.e.e.e.e.e.e.e.e.e.e.e.e.e.e.e.e.e.e.e.e.e.e.e.e.e.e.e.e.e.e.e.e.e.e.e.e.e.e.e.e.e.e.e.e.e.e.e.e."
};
