/* XPM */
static char *_6965228b2a94c59c9167e91f018bdf3xgpizPgYFrcCek6G[] = {
/* columns rows colors chars-per-pixel */
"64 64 217 2 ",
"   c #090408",
".  c #0B0817",
"X  c #120E14",
"o  c #131218",
"O  c #0F1311",
"+  c #2E1B16",
"@  c #132C1D",
"#  c #112218",
"$  c #3A231B",
"%  c #243416",
"&  c #000C21",
"*  c #011323",
"=  c #091726",
"-  c #131522",
";  c #161A25",
":  c #191A25",
">  c #161A29",
",  c #1B1C2A",
"<  c #191720",
"1  c #251D27",
"2  c #1C222B",
"3  c #1B2C2D",
"4  c #182727",
"5  c #163529",
"6  c #1B2432",
"7  c #182935",
"8  c #1C3934",
"9  c #0C252C",
"0  c #24232C",
"q  c #2B242C",
"w  c #232B2D",
"e  c #392929",
"r  c #26332A",
"t  c #242433",
"y  c #2D2631",
"u  c #232A33",
"i  c #2A2C37",
"p  c #322B37",
"a  c #233334",
"s  c #253A3B",
"d  c #37353B",
"f  c #41241D",
"g  c #522C1D",
"h  c #452A25",
"j  c #492A25",
"k  c #4C2D2B",
"l  c #442827",
"z  c #4D322D",
"x  c #44322E",
"c  c #54312D",
"v  c #5B322A",
"b  c #4B3A35",
"n  c #483634",
"m  c #5C3D34",
"M  c #533D3A",
"N  c #543833",
"B  c #502F2C",
"V  c #673B32",
"C  c #703E32",
"Z  c #663829",
"A  c #1C4B34",
"S  c #264A36",
"D  c #32433E",
"F  c #21553C",
"G  c #27593E",
"H  c #3F5825",
"J  c #5A433A",
"K  c #63453D",
"L  c #68473A",
"P  c #7A4737",
"I  c #496431",
"U  c #293649",
"Y  c #3B3542",
"T  c #343744",
"R  c #2D3C57",
"E  c #242D40",
"W  c #403A42",
"Q  c #1C5C5B",
"!  c #275845",
"~  c #2E425E",
"^  c #3B495B",
"/  c #354457",
"(  c #2C4943",
")  c #296549",
"_  c #2E6E53",
"`  c #2E7454",
"'  c #2F7D5B",
"]  c #317656",
"[  c #317D59",
"{  c #357956",
"}  c #2F6A49",
"|  c #0B5467",
" . c #155B66",
".. c #165A66",
"X. c #2A4666",
"o. c #364A66",
"O. c #334E73",
"+. c #3B5274",
"@. c #3A5579",
"#. c #305864",
"$. c #1B6366",
"%. c #166C6C",
"&. c #1C736C",
"*. c #15706D",
"=. c #2B6C61",
"-. c #22756A",
";. c #297669",
":. c #26796A",
">. c #357C67",
",. c #397E66",
"<. c #336B62",
"1. c #47454B",
"2. c #5D4743",
"3. c #4B4C54",
"4. c #545658",
"5. c #515250",
"6. c #6A4C43",
"7. c #664941",
"8. c #785747",
"9. c #6D5650",
"0. c #45566A",
"q. c #5E5D65",
"w. c #435874",
"e. c #4D6278",
"r. c #52687E",
"t. c #7F6963",
"y. c #6B6A72",
"u. c #8D4A34",
"i. c #8C4E3A",
"p. c #854936",
"a. c #934D35",
"s. c #934C39",
"d. c #8A523E",
"f. c #94533C",
"g. c #99543C",
"h. c #99583C",
"j. c #924A2C",
"k. c #A35A3E",
"l. c #865A46",
"z. c #9C5B42",
"x. c #995943",
"c. c #A15D45",
"v. c #A15E49",
"b. c #9A674A",
"n. c #9B6A52",
"m. c #A4644A",
"M. c #A6664A",
"N. c #A86E51",
"B. c #AC7351",
"V. c #A8755A",
"C. c #B27556",
"Z. c #AD704F",
"A. c #8E7B75",
"S. c #937970",
"D. c #5C853F",
"F. c #61913F",
"G. c #33835D",
"H. c #35865C",
"J. c #2E8263",
"K. c #328664",
"L. c #368D63",
"P. c #3C8E61",
"I. c #3E9061",
"U. c #44915E",
"Y. c #4A935C",
"T. c #598640",
"R. c #6A9E47",
"E. c #659D4C",
"W. c #679C4A",
"Q. c #6DA245",
"!. c #69A048",
"~. c #67A04A",
"^. c #71A441",
"/. c #419060",
"(. c #408F61",
"). c #B5815E",
"_. c #92817C",
"`. c #A9867A",
"'. c #3D5A83",
"]. c #435D86",
"[. c #47638A",
"{. c #546C83",
"}. c #56718C",
"|. c #466A9B",
" X c #4B6D9D",
".X c #486795",
"XX c #4E709E",
"oX c #57769A",
"OX c #586E90",
"+X c #627E99",
"@X c #4B6EA0",
"#X c #476BA0",
"$X c #4D71A2",
"%X c #4F76AB",
"&X c #5173A1",
"*X c #5B7EA9",
"=X c #597CA5",
"-X c #63829F",
";X c #5D81A8",
":X c #6788A7",
">X c #658BB2",
",X c #678CB5",
"<X c #6E95BA",
"1X c #6C93B6",
"2X c #7294B3",
"3X c #7196BB",
"4X c #749ABB",
"5X c #7A9DBC",
"6X c #749CC1",
"7X c #799DC1",
"8X c #7CA0C4",
"9X c #BB9688",
"0X c #B79389",
"qX c #C49A87",
"wX c #D7A794",
"eX c #C5A291",
"rX c #D5B4A4",
/* pixels */
"L.L.L.L.L.H.L.L.L.L.L.L.L.H.L.L.L.L.L.L.L.L.L.H.L.L.L.L.L.L.L.L.L.L.L.L.H.L.L.L.L.L.L.L.L.K.L.L.L.L.H.L.L.L.L.L.L.K.L.L.L.L.L.L.",
"L.L.L.L.L.L.L.L.L.L.L.L.L.L.L.L.L.L.L.L.L.L.L.L.L.L.L.L.L.L.L.L.P.P.I.L.L.L.L.L.L.L.L.L.L.L.L.L.L.L.L.L.L.L.L.L.L.L.L.L.L.L.L.L.",
"L.L.L.L.L.L.L.L.L.L.L.L.L.L.L.L.L.L.L.L.L.L.L.L.L.H.L.L.L.L.L.I.Q.Q.Q.~.L.H.L.L.L.L.L.L.L.L.L.L.L.L.L.L.L.L.L.L.L.L.L.L.L.L.L.L.",
"L.L.L.L.L.L.L.L.L.P.L.L.L.L.L.L.L.L.L.L.L.L.L.L.P.{ ) S @ @ @ @ % % % % S } ` L.L.L.L.L.L.L.L.L.L.L.P.L.L.L.L.L.L.L.L.L.L.L.L.L.",
"L.L.L.L.L.L.L.L.L.L.L.L.L.L.L.L.L.L.L.L.L.L.' S # X U X.+.r.{.{.{.{.r.0.^ s o O r { L.L.L.L.L.L.L.L.L.L.L.L.L.L.L.L.L.L.L.L.L.L.",
"L.L.L.L.L.L.L.L.L.L.L.L.L.P.P.P.P.P.L.L.] 5 . T r.-X<X<X<X<X<X<X6X3X3X4X2X2X:X{.R . o ) L.L.L.L.L.L.L.L.L.L.L.K.L.L.L.L.L.L.L.L.",
"L.L.L.L.L.L.L.L.L.L.L.L.L.U.R.^.^.E.I.!   T oX2X0X<X>X;X&XXXXXXX$X&X&X=X>X1X3X5X5X+X^   8 G.L.L.L.L.&.&.&.&.&.-.L.L.L.L.L.L.L.L.",
"L.L.L.L.L.L.L.L.L.L.L.L.L.U.Q.Q.^.R.F   0.2X4X<X>X%X#X#XXXXXXXXX X X X X XXX&X;X2X5X5X}.- 4 G.L.L.K.;.;.;.-.&.-.K.L.L.L.L.P.L.L.",
"L.L.L.L.L.L.L.L.L.L.L.L.L.L.P.Y.^.I   r.4X3X>XoX X&XXX X XXX XXXXXXX XXXXXXX&X@X&X*X<X8X+X; 3 K.&.;.W.R.R.W.;.&.L.L.L.L.L.L.L.L.",
"L.L.L.L.L.L.L.L.L.L.L.L.L.L.L./.F.  w.4X<X;X XXX X XXXXXXXXX X X X X X X X X X&XXX&XoX>X8X{.  G.;.>.^.^.^.R.-.&.L.L.L.L.L.L.L.L.",
"L.L.L.L.L.L.L.L.L.L.L.L.L.L.L.L.S u :X1X=X XXXXXXX X XXX X X X X X X X X X X@X X X&X&X*X8X:X. ` W.Q.^.^.^.R.$...K.L.L.L.L.L.L.L.",
"L.L.L.L.L.L.L.L.L.L.L.L.L.L.L.L.A ^ 5X>XXXXXXXXXXX X XXXXX X@X X X X X X X X X X X@X&X*X4X:X. =.!.^.^.^.^.R... .L.L.L.L.L.L.L.L.",
"L.L.L.L.L.L.L.L.L.L.L.L.L.L.L.L.A ^ 4X>XXXXXXX X X X X X X X X@X X#X@X X#X X X X X@X$X*X6XoX  ..P./.^.!./.P... .L.L.L.L.L.L.L.L.",
"L.L.I.L.L.L.L.L.L.L.L.L.L.L.P.I.S ^ 3X,XXXXXXX X X X.X X|. X.X].[..X@X@X X X X X X@X#X*X8X}.   .L.P.Q.!.L.K. ...L.L.L.L.L.L.L.L.",
"L.L.L.L.L.L.L.L.L.L.L.L.L./.Q.Q.I T 3X,XXXXXXX X X X.X@X X+.E , , 6 R ].|. X X X|. X#X;X6Xe.=  .L.L.(.P.$...%.&.L.L.L.L.P.L.L.L.",
"L.L.L.L.L.I.I.I.L.L.L.L.I.Y.^.Q.I U 2X,XXXXX X X.X|.|. XO.. < < ; - X u ].@X|.|.|. X|.>X3Xo.5 $.L.L.L.K.....&.-.L.L.L.L.L.L.L.L.",
"L.L.L./.Q.Q.Q.~.L.L.L./.!.^.^.!.H.0 :X1XoXXX@X|.#X|.#X].> - : > > , : o R |. X|.|.#X|.,X1X3 ` L.L.L.L.L.L.L.L.L.L.L.L.L.L.L.L.L.",
"L.L.L./.Q.Q.^.~.I.I.L.(.^.!.!.E.H.= -X3X&XXX XXX#X#X.XX.X < : < : : < < 6 [.|.|.|.|.$X<X}.# L.L.L.L.L.L.L.L.L.L.L.L.P.(.P.I.L.L.",
"L.L.L.I.I.Y.^.^.Q.~.L.L.I.I.P.L.L.@ e.2X;X$X|. X.X'..XU X X X . X X X . < ].|.|.|.|.;X<X/ F L.H.L.L.L.L.L.L.L.L.L.P.R.!.Q.~.P.L.",
"L.L.L.L.L./.Q.Q.!.E.L.L.L.L.L.` 3 d = U o.'.[..X|.|..X6 ~ '.w.+.@.@.O.+., w.#X|.|.|.oXe.. 5 ` L.L.L.L.L.L.L.L.L.L.U.Q.^.Q.~.I.L.",
"L.L.L.L.L.L.I.I.I.L.L.L.L.L.I.9 S.eX= M b + 2 E ~ O.O.< @.#X@X@X@X@X@X.Xt +.'.@.~ U e   _._.= H.L.L.L.L.L.L.L.P.!.Q.Q.!.U.L.L.L.",
"L.L.L.L.L.L.L.L.L.L.L.L.L.L.L.( eXwX5.M 8.N x $ $ + 1 1 t U R R ~ ~ R U : t q + $ J J q qXrX1.G.L.L.L.L.L.L.L./.!.Q.Q.~.P.L.L.L.",
"L.L.L.L.L.L.L.L.L.L.I.L.L.L.L.S 9XwX`.= 9.K c j k j j l l l l f f l l f h h j l z 6.e t.wXeX5.L.L.L.L.L.L.L.L.L.I.I.I.I.L.L.L.L.",
"L.L.L.L.L.L.L.L.L.L.L.L.L.L.L.) S.wXwX9.n 8.N k k l l k k B k z k B B k k j k l m 2.w 9XwXA.A L.L.L.L.L.L.L.L.L.L.L.L.I.L.L.L.L.",
"L.L.L.L.L.L.L.L.L.L.L.L.L.L.L.L.9 _.wXqX3 K L k k l k k k B k z k B k k k l l k K e t.wX`.a G.L.L.L.L.L.L.L.L.L.L.L.L.L.L.L.L.L.",
"L.L.L.L.L.L.L.L.L.L.L.L.L.L.L.L.` 5 t.0XS.q 6.m l k k k B B z z B z k k k k l m 7.p 9X`.D G.L.L.L.L.L.L.L.L.L.L.L.L.L.L.L.L.L.L.",
"L.L.L.L.L.L.L.L.L.L.L.L.L.L.L.L.L.L.) S 5.3 b 6.c l l k z B z z z B k B k k B 6.x 1.9.5 G.L.L.L.L.L.L.L.L.L.I.L.L.L.L.L.L.L.L.L.",
"L.L.L.L.L.L.L.L.L.L.L.L.L.L.L.L.L.L.L.H.H.) = J 7.k k k k B k k B k l B k l K 2.3 ) K.L.L.L.L.L.L.L.L.L.L.L.L.L.L.L.L.L.L.L.L.L.",
"L.L.L.L.L.L.L.L.L.L.L.L.L.L.L.L.L.L.L.G.S U w.E M L 7.7.6.6.6.6.7.7.7.V m m 6.d 4 } L.L.L.L.L.L.L.L.L.L.L.L.L.L.L.L.L.L.L.L.L.L.",
"L.L.L.L.L.I.L.L.L.L.L.I.L.L.L.L.L.L.` u @.$X$X]., x n b M M M M M M M M M M M i @.~ A ) L.L.L.L.L.L.L.L.L.L.L.L.L.L.L.L.L.L.P.L.",
"L.L.L.L.L.L.L.L.L.L.L.L.L.L.L.L.L.` U [.&XXX XX.e i.s.a.f.f.x.x.f.d.i.p.p.p.f X.$XXX[./ ) L.L.L.L.L.L.L.L.L.L.L.L.L.L.L.L.L.L.L.",
"L.L.L.L.L.L.L.L.L.L.L.L.L.L.L.L.H.a }.%X&X X].= d.h.h.x.x.v.z.z.v.c.c.x.f.s.p.9 [.XXXX;X^ ) L.L.L.L.L.L.L.L.L.L.L.L.L.L.L.L.L.L.",
"L.L.L.L.L.L.L.L.L.L.L.L.L.L.L.L.G.^ :X@X|.#XY e N.g.h.z.z.c.v.v.z.c.c.c.g.s.s.l o.&X$X;XoX5 L.L.L.L.L.L.L.L.P.L.L.L.L.L.L.L.L.L.",
"L.L.L.L.L.L.L.L.L.L.L.L.L.L.L.L.G.o.,X$X XO.Z k N.m.g.z.c.v.m.m.v.m.c.x.x.s.s.Z 7 OX&X,X+X@ L.L.L.L.L.L.L.L.L.L.L.L.L.L.L.L.L.L.",
"L.L.L.L.L.L.L.L.L.L.L.L.L.L.L.L.G.s :X<X&XY p.$ l.C.h.z.c.b.V z N z l.v.g.f.g.P f +.>X3Xr.A L.L.L.L.L.L.L.L.L.L.L.L.L.L.L.L.L.L.",
"L.L.L.L.L.L.L.L.L.L.L.L.I.I.L.L.L.S ^ oXOXg a.v n V.C.h.k.z.V N c k P x.f.f.N.L v o.1X-X( G.L.L.L.L.L.L.L.L.L.L.L.L.L.L.L.L.L.L.",
"L.L.L.I.L.L.L.L.L.L.L.I.^.~.L.L.L.H.a : 9 Z s.P 1 e n.B.C.B.B.N.Z.M.b.m.m.B.n.x P 2 U 4 G.L.L.L.L.P.L.L.L.L.L.L.L.I.L.L.L.L.L.L.",
"L.L.L.L.L.L.L.L.L.L.I.Y.^.~.I.L.L.' w y * L u.a.P q & b 8.n.V.).C.).).C.N.d.w C p.; 1 y ) L.L.L.L.L.L.L.L.L.L.L.L.L.L.L.L.L.L.L.",
"L.L.L.L.L.L.L.L.L./.~.!.^.~.L.L.L.S d p * L g.p.a.i.C l . . * q n J n e 4 1 C a.6.= 1 p s L.L.L.L.L.L.L.L.L.L.L.L.L.L.L.L.L.P.L.",
"L.L.L.L.L.I.L.L.L.Y.^.^.~.E.L.L.L.! T p ; b N.h.i.p.s.i.p.P P V c z v Z P p.j.x.V * q p s L.L.L.L.L.L.L.L.L.L.L.I.L.L.L.L.L.L.L.",
"L.L.L.I.~.~.L.L.L./.^.!./.I.L.L.L.' i d q = 8.B.M.z.i.a.a.g.h.h.f.g.f.i.a.j.x.l.> , y d ! L.L.L.L.L.L.L.L.L.L.P.Q.~.P.L.L.L.L.L.",
"L.L.L.Y.^.!.I.L.L./.!.~.L.L.L.L.L.K.Q u p 1 * L n.C.Z.M.z.h.h.h.h.h.h.h.b.m.l.1 = 2 i s K.L.L.L.L.L.L.L.L.L.L./.Q.Q.L.L.L.L.L.L.",
"L.L.L.Y.^.Q.Q.~.L.L.P.P.L.L.L.L.&.K.W.T.r , 1 > 0 L l.b.N.B.Z.Z.B.B.B.N.l.J = 1 0 1 : ' L.L.L.I.L.L.L.L.L.I.Q.Q.Q.Q.L.L.L.L.L.L.",
"L.L.L./.Q.Q.^.~.L.L.L.L.L.L.L.L.*.>.!.Q.R., y y y = * ; y b N J J N x 0 & = t q q y : [ I.I.I.(./.L.L.L.L./.Q.^.Q.Q.P.L.L.I.I.I.",
"L.L.L.L.I.Y.^.!.L.L.L.L.L.L.L.L.&.&.:.J.] 2 y q q 1 ; > - * * * * * = - ; : 0 y y y , G.Q.R.Q.Q.Q.~.L.L.L.I.Q.Q./.P.L.L.Q.Q.Q.Q.",
"L.L.L.L.L.I.Q.~.L.L.L.L.L.L.L.K.&.&.*.&.G.w Y W Y 0 ; < ; ; ; ; ; : : : > - y d W d S I.Q.Q.^.^.^.Q./.P.L./.Q.~.L.L.P.U.Q.^.Q.Q.",
"L.L.L.L.L.L.I.I.L.L.L.L.L.L.L.L.L.L.L.L.L.` d d d 3 ; ; > ; ; : ; ; ; ; ; ; a ! ( ( ' L.L./.^.^.^.^.Q.~.P.L.P.I.L.I.R.Q.^.^./.P.",
"L.L.L.L.L.L.L.L.L.L.L.L.L.L.L.K.L.L.L.L.L.L.L.H.K.[ 3 2 2 ; : ; ; : > 4 , 8 L.L.I.L.L.L.L.H.Q.Q.Q.Q.Q.Q.L.L.L.L.L.P.Q.Q.Q.~.L.L.",
"L.L.L.L.L.L.L.L.L.L.L.L.L.K.&.&.&.&.&.;.L.L.L.L.L.L.K.,.H.3 ; ; ; = ! H.G.L.L.L.L.L.L.L.L.L.I.I.P.P.I.P.L.L.L.L.L.L.I.I.I.I.L.L.",
"L.L.L.L.L.L.L.K.K.L.L.L.L.K.;.;.;.-.%.-.L.L.L.L.L.L.L.L.H.3 > ; ; d ) L.L.L.L.L.L.L.L.L.L.L.L.L.L.L.L.L.L.L.L.L.L.L.L.L.L.L.L.L.",
"L.L.L.L.L.L.&.&.&.&.-.&.&.,.~.!.Q.E.| $.L.L.L.L.L.L.L.(.Q.r - - 3.4.F L.L.L.L.L.L.L.L.L.L.L.L.L.L.L.L.L.L.L.L.L.L.L.L.L.L.L.L.L.",
"L.L.L.L.L.K.&.;.&.-.&.&.*.,.^.Q.Q.E...$.L.L.L.L.L.L.L.U.Q.w - 3.y.4.G L.L.L.L.L.L.L.L.L.L.L.L.L.L.L.L.L.L.L.L.L.L.L.L.L.L.L.L.L.",
"L.L.L.K.*.K.W.R.R.E.K.>.| <.!.!./.L.| $.L.L.L.L.L.U.Q.R.^.4 1.y.y.3.F L.L.L.L.L.L.L.L.L.L.L.L.L.L.L.L.L.L.L.L.L.L.L.L.L.L.L.L.L.",
"L.L.L.L.*.K.Q.!.Q.E.P.K.| =.Q.~.K.J...$.L.L.L.L.L./.Q.Q.^.r q.y.y.3.F L.L.L.L.L.L.L.L.L.L.L.L.L.L.L.L.L.L.L.L.L.L.L.L.L.L.L.L.L.",
"L.L.L.L.*.&.;.>.P.Y.!.E.| $.(.P...$.&.&.L.L.L.L.L.L.P././.8 q.y.y.3.F L.L.L.L.L.L.L.L.L.L.L.L.L.L.L.L.L.L.L.L.L.L.L.L.L.L.L.L.L.",
"L.L.L.L.&.&.&.:.L./.!.E...$.L.K. . .&.:.L.L.L.L.L.L.L.L.L.a q.y.q.p ! L.L.L.L.L.L.L.L.L.L.L.L.L.L.L.L.L.L.L.L.I.L.L.L.L.L.L.L.L.",
"L.L.L.L.L.L.L.L.L.L.I.L.L.L.L.L.L.L.K.L.L.L.L.L.L.L.L.L.L.! 3.Y ; = ) L.L.L.L.L.L.L.L.L.L.L.L.L.L.L.L.L.L.L.L.L.L.L.L.L.L.L.L.L.",
"L.L.L.L.L.L.L.L.L.L.L.L.L.L.L.L.L.L.L.L.L.L.L.L.L.L.L.L.L.) > - < 4 [ L.L.L.L.L.L.L.L.L.L.L.L.L.L.L.L.L.L.L.I.L.L.L.L.L.L.L.L.L.",
"L.L.L.L.L.L.L.L.L.L.L.L.L.L.L.L.L.L.L.L.L.L.L.L.L.L.L.L.L.] ; ; : > H.L.L.L.L.L.L.L.L.L.L.L.L.L.L.L.L.L.L.L.L.L.L.L.L.L.L.I.L.L.",
"L.L.L.L.L.L.L.L.L.L.L.L.L.L.L.L.L.L.L.L.L.L.L.L.L.L.L.L.L.K.2 > ; 3 L.L.L.L.L.L.L.L.L.L.L.L.L.L.L.L.L.L.L.L.L.L.L.L.L.L.L.L.L.L.",
"L.L.L.L.L.L.L.L.L.L.L.L.L.L.L.L.L.I.L.L.L.P.L.L.L.L.L.L.L.L._ 8 S { L.L.L.L.L.L.L.L.L.L.L.L.I.L.L.L.L.L.L.L.L.L.L.L.L.L.L.L.L.L.",
"L.L.L.L.L.L.L.L.L.L.L.L.L.L.L.L.L.L.L.L.L.L.L.L.L.L.L.L.L.L.L.L.L.L.P.L.L.L.L.L.I.L.L.L.L.L.L.L.L.L.L.L.L.L.L.L.L.L.L.L.L.L.L.L.",
"L.L.L.L.L.I.L.L.L.L.L.L.L.L.L.L.L.L.L.L.L.L.L.L.L.L.L.L.L.L.L.L.L.L.L.L.L.L.L.L.L.L.L.L.L.L.L.L.L.L.L.L.L.L.L.L.L.L.L.L.L.L.L.L.",
"L.L.L.L.L.L.L.L.L.L.L.L.L.L.L.L.L.L.L.L.L.L.L.L.L.L.L.L.L.L.L.L.L.L.L.L.L.L.L.L.L.L.L.L.L.L.L.L.L.L.L.L.L.L.L.L.L.L.L.L.L.L.L.L."
};
