/* XPM */
static char *_7df55c32f824b9be971d09a046451a96UyfBpRaFpe7twr9[] = {
/* columns rows colors chars-per-pixel */
"64 64 238 2 ",
"   c black",
".  c #03050B",
"X  c #000013",
"o  c #00031A",
"O  c #050A1A",
"+  c #09151B",
"@  c #15171A",
"#  c #130915",
"$  c #261119",
"%  c #061625",
"&  c #161A25",
"*  c #191B26",
"=  c #161B29",
"-  c #1A1D29",
";  c #121522",
":  c #03122B",
">  c #1D222D",
",  c #192729",
"<  c #1C2532",
"1  c #1B3738",
"2  c #16322B",
"3  c #232529",
"4  c #3B2629",
"5  c #2A342D",
"6  c #222433",
"7  c #252B34",
"8  c #2A2B35",
"9  c #2B2E3C",
"0  c #242838",
"q  c #2D313C",
"w  c #263C38",
"e  c #34373C",
"r  c #493738",
"t  c #573D39",
"y  c #40302F",
"u  c #1B463B",
"i  c #3B5724",
"p  c #24473B",
"a  c #27553D",
"s  c #3C5633",
"d  c #4C4E32",
"f  c #476238",
"g  c #507637",
"h  c #18354F",
"j  c #2D3242",
"k  c #24374B",
"l  c #343643",
"z  c #293B58",
"x  c #32354F",
"c  c #033C72",
"v  c #293D64",
"b  c #503E40",
"n  c #1B5248",
"m  c #184E4E",
"M  c #264845",
"N  c #3D414A",
"B  c #275646",
"V  c #3A5A49",
"C  c #2B4058",
"Z  c #344C56",
"A  c #1A625E",
"S  c #2C684B",
"D  c #2C6D52",
"F  c #346A53",
"G  c #2E7B56",
"H  c #2E7E5A",
"J  c #327E5A",
"K  c #367756",
"L  c #326E48",
"P  c #145C66",
"I  c #175B66",
"U  c #0D4F6B",
"Y  c #2E456D",
"T  c #374E6C",
"R  c #3C546B",
"E  c #294778",
"W  c #385578",
"Q  c #2A566E",
"!  c #196767",
"~  c #1C736C",
"^  c #15706D",
"/  c #22756A",
"(  c #297769",
")  c #26796A",
"_  c #367C66",
"`  c #336767",
"'  c #474347",
"]  c #574A49",
"[  c #484554",
"{  c #534754",
"}  c #535554",
"|  c #675756",
" . c #755958",
".. c #66635C",
"X. c #445468",
"o. c #535769",
"O. c #6F5E67",
"+. c #4A6479",
"@. c #497C7B",
"#. c #50677C",
"$. c #686269",
"%. c #736C6F",
"&. c #906058",
"*. c #8A6A69",
"=. c #916E6A",
"-. c #9A7A75",
";. c #8F746E",
":. c #AC786D",
">. c #8B5C56",
",. c #57843D",
"<. c #63933E",
"1. c #33815C",
"2. c #39885D",
"3. c #2F815D",
"4. c #328563",
"5. c #368D63",
"6. c #3C8E61",
"7. c #3E9062",
"8. c #3D9169",
"9. c #2E8265",
"0. c #44915E",
"q. c #4A935C",
"w. c #5A8B45",
"e. c #639441",
"r. c #6A9E46",
"t. c #659D4C",
"y. c #689D4A",
"u. c #658749",
"i. c #6DA245",
"p. c #69A048",
"a. c #67A04A",
"s. c #71A441",
"d. c #488A65",
"f. c #578569",
"g. c #439063",
"h. c #4E8F77",
"j. c #719B73",
"k. c #71A17F",
"l. c #9B837B",
"z. c #A6867C",
"x. c #B5887F",
"c. c #87AC6C",
"v. c #C88878",
"b. c #D88F7D",
"n. c #DA917E",
"m. c #D3907D",
"M. c #1C4A84",
"N. c #395987",
"B. c #375998",
"V. c #285492",
"C. c #3A629A",
"Z. c #3C6BA8",
"A. c #425F81",
"S. c #426383",
"D. c #46688C",
"F. c #536D86",
"G. c #486B98",
"H. c #4C709F",
"J. c #54759A",
"K. c #527090",
"L. c #667E96",
"P. c #6B7B8B",
"I. c #416EAA",
"U. c #476CA5",
"Y. c #4B75AB",
"T. c #4F79AD",
"R. c #4A72A8",
"E. c #537BAC",
"W. c #557AA8",
"Q. c #4F7AB3",
"!. c #537DB2",
"~. c #5177B0",
"^. c #748796",
"/. c #6A8B93",
"(. c #6AA38E",
"). c #5A82AD",
"_. c #5881AB",
"`. c #5681B2",
"'. c #5B85B3",
"]. c #5C88B8",
"[. c #6688A8",
"{. c #648BB6",
"}. c #648DBA",
"|. c #698EB7",
" X c #6C95BD",
".X c #6E99BF",
"XX c #6591BC",
"oX c #729BBE",
"OX c #7296BA",
"+X c #6B96C0",
"@X c #6E99C1",
"#X c #6693C2",
"$X c #749DC2",
"%X c #789FC3",
"&X c #759DC8",
"*X c #76A1C4",
"=X c #79A1C4",
"-X c #7BA2C8",
";X c #75A5CA",
":X c #9A8986",
">X c #A38C84",
",X c #B48B87",
"<X c #AD948B",
"1X c #AA968C",
"2X c #BB9B8D",
"3X c #B7968B",
"4X c #B99C92",
"5X c #AD9791",
"6X c #94ABAB",
"7X c #B2A7A9",
"8X c #DA9381",
"9X c #DA9B8B",
"0X c #C99D92",
"qX c #D39E94",
"wX c #C69488",
"eX c #C9A89B",
"rX c #D4A79A",
"tX c #CAB09E",
"yX c #CDAEA1",
"uX c #D7ADA2",
"iX c #DBB4A4",
"pX c #D8B4A6",
"aX c #CFB2A5",
"sX c #E9B9AA",
"dX c #E3A08D",
"fX c #E6C1B1",
"gX c #85A8CA",
"hX c #8DB1D1",
"jX c #9BB9D5",
"kX c #98B2C9",
"lX c #A1BED8",
"zX c #B2C9DE",
"xX c #BCD2E5",
"cX c #AFC9E1",
"vX c #C3D5E6",
"bX c #C3D6E8",
"nX c #C5D8EB",
"mX c #C7D9E8",
/* pixels */
"5.5.5.5.2.5.5.5.5.5.5.2.5.5.5.5.5.2.5.5.5.5.5.2.5.5.5.5.5.5.5.2.4.5.2.5.5.5.5.4.5.5.4.5.5.2.5.5.5.5.4.2.5.5.5.5.4.5.5.5.5.5.5.5.",
"5.5.5.5.5.5.5.5.5.5.5.5.5.5.5.5.5.5.5.5.5.5.5.5.5.5.5.5.5.5.5.5.7.7.7.7.5.5.5.5.5.5.5.5.5.5.5.5.5.5.5.5.5.5.5.5.5.5.5.5.5.5.5.5.",
"5.5.5.5.5.5.5.5.5.5.5.5.5.5.5.5.5.5.5.5.5.5.5.5.5.5.5.5.5.5.5.0.i.i.i.a.5.5.5.5.5.5.5.5.5.5.5.5.5.5.5.5.5.5.5.5.5.5.5.5.5.5.5.5.",
"5.5.5.5.5.5.5.5.5.5.5.5.5.5.5.5.5.5.5.5.5.5.5.5.7.5.5.5.5.5.5.0.i.p.s.p.7.7.5.5.5.5.5.5.5.5.5.5.5.5.5.5.5.5.5.5.5.5.5.5.5.5.5.5.",
"5.5.5.5.5.5.5.5.5.5.5.5.5.5.5.5.5.5.5.5.5.5.2.7.i.y.5.5.5.5.2.5.2.q.s.s.i.a.5.5.5.5.5.5.5.5.5.5.5.5.5.5.5.5.5.5.5.5.5.5.5.5.5.5.",
"5.5.5.5.5.5.5.5.5.5.5.5.5.6.g.2.6.6.5.5.5.5.5.0.s.p.5.4.3.3.1.J 3.2.<.<.<.e.5.5.5.5.5.5.5.5.5.5.5.5.5.5.5.5.5.5.5.5.5.5.5.5.5.5.",
"5.5.5.5.5.5.5.5.5.5.5.5.5.0.i.i.s.a.5.5.5.0.i.r.,.f M V R +.+.@.#.F.#.+.X.Z B 2 n ! ~ ~ 5.5.5.5.5.5.~ ^ ^ ~ ~ / 5.5.6.5.5.5.5.5.",
"5.5.5.5.5.5.5.5.5.5.5.5.5.0.i.i.s.p.7.5.5.L i } #./.[.OX%X=X=X-XgX-X-X-X%XOX[.[.F.R 1 n 4.5.5.5.5.4.9.) ) ( ~ ~ 4.5.5.5.5.5.5.5.",
"5.5.5.5.5.5.5.5.5.5.5.5.5.5.5.q.s.s.i.g 2 X.[.OXgX-X-X*X%X*X*X*X*X*X*X*X*X-X=X-X-XoXJ.R 7 u 5.5./ ( y.r.r.y.( ~ 5.5.5.5.5.5.5.5.",
"5.5.5.5.5.5.5.5.5.5.5.5.5.5.5.0.i.i.i k K.&X;X-X%X%X%X*X=X*X%X*X%X%X*X*X=X=X=X%X=X%X&X].H.z 2 4.( _ i.s.s.y./ ~ 5.5.5.5.5.5.5.5.",
"5.5.5.5.5.5.5.5.5.5.5.5.5.5.5.5.7.a z R.#X$X$X*X%X$X%X*X%X%X*X*X%X%X=X%XoX=X*X$X&X%X%X@X`.E.C , y.i.s.s.s.r.I ! 4.5.5.5.5.5.5.5.",
"5.5.5.5.5.5.5.5.5.5.5.5.5.5.5.5.a 0 G.`.$X$XoX*X$X%X%X*X$X$X&X$X$X$X*XoX%X*X*X&X$X%X%X%X{.!.H.0 g s.s.s.s.y.I P 5.5.5.5.5.5.5.5.",
"5.5.5.5.5.5.5.5.5.5.5.5.5.5.7.5., W I.'.$XoX$X%X%X$X%XoXoX$XgXgXhXhXgX-X*X$XoX$X%XoX%X-X{.E.T.k L q.i.i.g.6.I I 5.7.5.5.5.5.5.5.",
"5.5.5.5.5.5.5.5.5.5.5.5.5.5.6.5.< N.I.'..XoX$XoX$XoX$XgXlXzXxXxXxXbXbXxXzXjXgXoX%X%XoX&X}.T.H.k _ 2.i.p.5.4.I P 5.5.5.5.5.5.5.5.",
"5.5.5.5.5.5.5.5.5.5.5.5.4.0.i.i.3 N.Z.`.@X.XoX%X$XhXzXvXnXvXbXbXbXbXvXnXvXbXxXlXgX$XoX$X`.T.N.& 5.5.7.5.I I ^ ~ 5.5.5.5.5.5.5.5.",
"5.5.5.7.6.6.7.7.5.5.5.5.7.q.s.i.i z U.R. X*X$X$X$XcXmXvXvXnXvXvXbXvXvXvXvXvXvXnXjXoX$X{.T.R.k m 5.5.5.5.I I ~ ~ 5.5.5.5.5.6.5.5.",
"5.5.5.0.i.i.i.a.5.5.5.0.i.i.s.p.1., W I.~.+X$X$X@XjXnXvXvXbXbXvXvXvXvXbXbXvXvXvXgX$X|.~.!.W 2 4.5.5.5.5.5.5.5.5.5.5.5.5.5.5.5.5.",
"5.5.5.q.i.i.s.a.7.6.5.0.i.i.i.a.2.L = D.R.~.#X$X$XgXxXbXbXbXbXbXvXvXbXbXvXbXbXzX%XXXE.E.D.1 2.5.5.5.5.5.5.7.5.5.5.5.6.6.7.5.5.5.",
"5.5.5.5.7.q.s.s.p.a.5.5.6.6.6.5.G M Y C.Y.W.J.W.[.{.kXzXxXbXbXnXnXnXnXmXnXbXvXgX[.R.Y.U.k w G 5.5.5.5.5.5.5.5.5.4.7.p.i.i.p.7.5.",
"5.5.5.5.5.0.i.i.p.a.5.5.5.5.5.5.1 W U.`.+XOXOXOX[.{././.P.P.P.P.^.^.^.^.^.^.^.[.[.{.}.~.U.D.k B 5.5.5.5.5.5.5.5.5.g.i.s.i.i.7.5.",
"5.5.5.5.5.5.7.7.7.7.5.5.5.5.5.2.k B.E.XX|. X@X$X$X*X*X;X$X$X.X.XXX X X X@X@X$X$X$X$X.X}.Y.I.z @ 5.5.5.5.5.5.5.2.p.i.s.p.7.7.5.5.",
"5.5.5.5.5.5.5.5.5.5.5.5.5.5.5.1.% Y T.}.#X+X X.X.X.X.X$X@X$XoXoXoXoX$X$X.X$X@X@X XXXXX{.R.N.< 1 5.5.5.5.5.5.5.g.p.s.i.a.2.5.5.5.",
"5.5.5.5.5.5.5.5.5.5.5.5.5.5.S e f.V Y L.}.+X+X X X X.X@X@X.X.X.X@X@X XoX.X.X.X.X@X+X+XU.E : @ D 5.5.5.5.5.5.5.5.7.6.7.7.5.5.5.5.",
"5.5.5.5.5.5.5.5.5.5.5.5.5.5.u f.g.g.5 0 T S.W.{.XX XXX+XXX.X.X.X+X@X@X@X@X.X X|._.K.X.: ] 4X<Xp 5.5.5.5.5.5.5.5.5.5.5.5.5.5.5.5.",
"5.5.5.5.5.5.5.5.5.5.5.5.5.5.a g.g.d.V 4 $ t  .{ { X.X.W W D.N.D.D.D.N.+.W R X.{ |  .4 $ -.5XeX..7.5.5.5.5.5.5.5.5.5.5.5.5.5.5.5.",
"5.5.5.5.5.5.5.5.5.5.5.5.5.5.S f.8.D O r t | qXwX:.O.z.-.-.=.;.=.=.;.:.-.z.3X-.,XuX,Xr 4 b ,XuX| 5.5.5.5.5.5.5.5.5.5.5.5.5.5.5.5.",
"5.5.5.5.5.5.5.5.5.5.5.5.5.5.2.K k.K f.e d y l.pX3XX  .eXuXrXqXqXqXqXrXrXuX;.. <XyX] t 8 < ,X0XV 5.5.5.5.5.5.5.5.5.5.5.5.5.5.5.5.",
"5.5.5.5.5.5.5.5.5.5.5.7.5.5.5.3.} K (.F t t e l.aX;.. >XpXrX9X9X9X9XrXeX4X  %.5Xb d y >X5X5X$.1.5.5.5.5.5.5.5.5.5.5.5.5.5.5.5.5.",
"5.5.5.5.5.5.5.5.5.5.5.5.5.5.5.5.1.L V a 3 d r $.4XiX<X1X,Xn.n.n.8X8X8X=.:X>XeX:Xr t ] 4Xl.} G 5.5.5.5.5.5.5.5.5.5.5.7.5.5.5.5.5.",
"5.5.5.5.5.5.5.5.5.5.5.5.5.5.5.5.5.1.M T E 6 { ;.tXiXuX:.m.b.8Xn.8X8X8Xv.%.fX1X;.| 6 z X.h n 5.2.5.5.5.5.5.5.5.5.5.5.5.5.5.5.5.5.",
"5.5.5.5.5.5.5.5.5.5.5.5.5.5.5.5.D R J.'.~.E l ,XiXiXz.:.dXdX8X8X8X8X8X8X .tXpX| N E I.'._.W m 1.5.5.5.5.5.5.5.5.5.5.5.5.5.5.5.5.",
"5.5.5.5.5.5.5.5.5.5.5.5.5.5.5.L C E.'.`.!.~.V.{ <XiX%.v.fXsX8X8X8X8X8Xb.&.<X>Xz M.Z._._._.`.N.M 5.7.5.5.5.5.5.5.5.5.5.5.5.5.5.5.",
"5.5.5.5.5.5.5.5.5.5.5.5.5.5.5.M N.`.`.`.W.H.G.C.c $.[ :.sXsX8Xn.8Xn.8X8X>.h c B.B.G.).).).'.U.v F 5.5.5.5.5.5.5.5.5.5.5.5.5.5.5.",
"5.5.5.5.5.5.5.5.5.5.5.5.5.5.5.z B.E._.`.).W.+.D.Q.B.M.r v.9X8Xn.n.8X8X:.x B.U.I.` [.).).).).U.E S 5.5.5.5.5.5.5.5.5.5.5.5.5.5.5.",
"5.5.5.5.5.5.5.5.5.5.5.5.5.5.5.M N.U.'.`.'.'.'.W W.].E.E r :.m.m.b.v.>.x V.I.#XX.K.].'.'.'.T.C.Y F 5.5.5.5.5.5.5.5.5.5.5.5.5.5.5.",
"5.5.5.5.5.5.5.5.5.5.5.5.7.2.5.S v M.N.S.S.N.G.Q J.}.{.`.V.c x { { x U V.I.!.}.v W C.+.N.D.N.M.M 5.5.5.5.5.5.5.5.5.5.5.5.5.5.5.5.",
"5.5.5.5.5.5.5.5.5.5.5.0.i.a.5.5.e *.:.4X0X2X3X;.X.'.[.}.].Q.Z.Z.Z.Y.Q.].#X}.W.{ z.3X2X0X2Xz.| n 5.5.5.5.5.5.5.5.5.5.5.5.5.5.5.5.",
"5.5.5.5.5.5.5.5.5.5.7.q.s.y.5.1.' ,XwXrXiXyXpXiX<Xk x R +.F.K.H.K.J.J.K.A.X.$.yXiXtXpXrXqX3X*.1 5.5.5.5.5.5.7.5.5.5.5.5.8.5.5.5.",
"5.5.5.5.5.5.5.5.5.0.p.i.s.y.5.p & % *.rXiX4X>XiXaX]     O # # @ @ @ .       >XsXpX;.iXrX3Xr % = F 5.5.5.5.5.5.5.5.5.5.5.5.5.5.5.",
"5.5.5.7.6.5.5.5.5.q.s.i.i.t.5.5 & O r z.4Xl.$.4Xz., %./.F.2 < 0 < o :XkX6X%  .4X>X| 4X3X=.@ ; & S 5.5.5.5.5.5.5.7.7.5.5.5.5.5.5.",
"5.5.5.7.i.a.5.5.5.0.s.p.7.7.5.p & & O o o o O o o . @./.p.,.> < < % (.6X(.j : X X O o o o = & & L 5.5.5.5.5.5.6.p.p.5.5.5.5.5.5.",
"5.5.5.q.s.p.7.5.5.g.i.t.5.5.4.S - , & & = & * & * * * o f s.u.g n @.h.+ O 6 * * - - * & & & 1 p 5.5.5.5.5.5.6.7.i.i.7.5.5.5.5.5.",
"5.5.5.0.s.i.i.a.5.5.7.6.5.5.5.4.! F & = = 0 9 9 9 j j 8 i c.c.g f j.F m q l j j j 9 0 & = , 5.5.5.5.5.5.5.6.p.i.s.i.7.5.5.5.5.5.",
"5.5.5.0.i.i.s.a.5.5.5.5.5.5.5.5.~ _ 5 & = 9 9 j q j j 6 e.r.. * @ O A ! 9 j q 9 9 j 6 * & p 7.2.7.5.5.5.5.7.i.s.i.p.5.5.7.7.7.7.",
"5.5.5.5.7.q.s.p.5.5.5.5.5.5.5.5.~ ~ ( < * - 7 9 7 7 6 s 6.K * * @ * m P M > - 6 6 - * & 5 <.i.i.i.p.5.5.5.6.s.i.7.5.5.6.p.p.i.i.",
"5.5.5.5.5.7.i.a.5.5.5.5.5.5.5.4.~ ~ ~ 1 - - = * - - * w.5.B * * & , I ! G - 6 - - - > > w.i.s.s.s.i.7.7.5.6.p.i.7.2.6.7.s.s.i.i.",
"5.5.5.5.5.5.7.5.5.5.5.5.5.5.5.5.5.5.5.B , q 6 8 7 q 7 2.5.M = + e N G 4.J 6 9 e 9 9 q 7 K 0.i.s.s.s.s.p.7.5.6.6.5.6.i.i.s.i.7.6.",
"5.5.5.5.5.5.5.5.5.5.5.5.5.5.5.4.5.5.5.4.B 8 q 8 q p F 5.5.B ; 8 o.' H 5.5.D p q 9 w M K 4.7.i.i.i.i.i.p.6.5.5.5.5.6.p.i.i.i.5.5.",
"5.5.5.5.5.5.5.5.5.5.5.5.5.5.~ ~ ~ ~ ~ ) 5.4.J J J 5.5.5.5.u 6 o.$.s 3.5.5.5.5.5.5.5.5.5.5.5.7.7.6.6.7.6.5.5.5.5.5.7.7.7.7.5.5.5.",
"5.5.5.5.5.5.5.5.5.5.5.5.4.4.( ( ( / ! / 5.5.5.5.5.5.5.5.g.B { $.o.5 3.5.5.5.5.5.5.5.7.5.5.5.5.5.5.5.5.5.5.5.5.5.5.5.5.5.5.5.5.5.",
"5.5.5.5.5.4.~ ~ ^ ~ ~ ~ ~ _ a.p.i.t.I ! 5.5.5.5.5.5.5.g.s.f o.$.[ ; 1.5.5.5.5.5.5.5.5.5.5.5.5.5.5.5.5.5.5.5.5.5.5.5.5.5.5.5.5.5.",
"5.5.5.5.5.5.~ / / ~ ~ ~ ^ _ s.s.i.e.I I 5.5.5.5.5.5.5.0.s.f o.[ ; = 3.5.5.5.5.5.5.5.5.5.5.5.5.5.5.5.5.5.5.5.5.5.5.5.5.5.5.5.5.5.",
"5.7.5.5.^ 4.y.y.t.t.4._ U ( s.r.0.5.U I 5.5.5.5.5.g.i.i.i.f N & * & J 5.5.5.5.5.5.5.5.5.5.5.5.5.5.5.5.5.5.5.5.5.5.5.5.5.5.7.5.5.",
"5.5.5.4.^ 4.i.i.p.a.7.4.U ` i.y.5.9.P ! 5.5.5.5.5.0.i.i.i.s & & & = J 5.5.5.5.5.5.5.5.5.5.5.5.5.5.5.5.5.5.5.5.5.5.5.5.5.5.5.5.5.",
"5.5.5.5.~ ~ ( _ 7.q.i.t.U ! 7.2.P I ^ ~ 5.5.5.5.4.5.7.7.0.p & & = & J 5.5.5.5.5.5.5.5.5.7.5.5.5.5.5.5.5.5.5.5.5.5.7.5.5.5.5.5.5.",
"5.5.5.5.~ ~ ~ ) 5.0.i.e.P ! 5.4.P ! ~ ) 5.5.5.5.5.5.5.5.5.a & & * * J 5.5.5.5.5.5.5.5.5.5.5.5.5.5.5.5.5.5.5.5.5.5.5.5.5.5.5.5.5.",
"5.5.5.5.5.5.5.5.5.5.7.7.4.5.5.5.5.5.5.5.5.5.5.5.5.5.5.5.5.B * & & - 1.5.5.5.5.5.5.5.5.5.5.5.5.5.5.5.5.5.5.5.5.5.5.5.5.5.5.5.5.5.",
"5.5.5.5.5.5.5.5.5.5.5.5.5.5.5.5.5.5.5.5.5.5.5.5.5.5.5.5.5.B - & & 6 2.5.5.5.5.5.5.5.5.5.5.5.5.5.5.5.5.7.5.5.5.5.5.5.5.5.5.5.5.5.",
"5.5.5.5.5.5.5.5.5.5.5.5.5.5.5.5.5.5.5.5.5.5.5.5.5.5.5.5.5.F & & & 1 5.5.5.5.5.5.5.5.5.5.5.5.5.5.5.5.5.5.5.5.5.5.5.5.5.5.5.5.5.5.",
"5.5.5.5.5.5.5.5.5.5.5.5.5.5.5.5.5.5.5.5.5.5.5.5.5.5.5.5.5.1.& & & p 5.5.5.5.5.5.5.5.5.5.5.5.5.5.5.5.5.5.5.5.5.5.5.5.5.5.5.5.5.5.",
"5.5.5.5.5.5.5.5.5.5.5.5.5.5.5.5.5.5.5.5.5.5.5.5.5.5.5.5.5.2.S B B 1.5.5.5.5.5.5.5.5.5.5.5.5.5.5.5.5.5.5.5.5.5.5.5.5.5.5.5.5.5.5.",
"5.5.5.5.5.5.5.5.5.5.5.5.5.5.5.5.5.5.5.5.5.5.5.5.5.5.5.5.5.5.5.5.5.5.5.5.5.5.5.5.5.7.5.5.5.5.5.5.5.5.5.5.5.5.5.5.5.5.5.5.5.5.5.5.",
"5.5.5.5.5.5.5.5.5.5.5.5.5.5.5.5.5.5.5.5.5.7.5.5.5.5.5.5.5.5.5.5.5.5.5.5.5.5.5.5.5.5.5.5.5.5.5.5.5.5.5.5.5.5.5.5.5.5.5.5.5.5.5.5.",
"5.5.5.5.5.5.5.5.5.5.5.5.5.5.5.5.5.5.5.5.5.5.5.5.5.5.5.5.5.5.5.5.5.5.7.5.5.5.5.5.5.5.5.5.5.5.5.5.5.5.5.5.5.5.5.5.5.5.7.5.5.5.5.5."
};
