/* XPM */
static char *_61b80162f7047a1b06e54eb0a310a4a1iE2KaVOPKkgofbl[] = {
/* columns rows colors chars-per-pixel */
"64 64 227 2 ",
"   c #000001",
".  c #00000C",
"X  c #080C0A",
"o  c #000013",
"O  c #02041A",
"+  c #040A1B",
"@  c #0B0E1C",
"#  c #0A121B",
"$  c #17131B",
"%  c #121010",
"&  c #0A1724",
"*  c #141522",
"=  c #161925",
"-  c #191A25",
";  c #1A1D2A",
":  c #191927",
">  c #0A1126",
",  c #251C2B",
"<  c #251A24",
"1  c #311E2E",
"2  c #1B222A",
"3  c #1B2A2C",
"4  c #162329",
"5  c #18372C",
"6  c #1B2733",
"7  c #143433",
"8  c #1D3934",
"9  c #0B292F",
"0  c #24252A",
"q  c #382629",
"w  c #2A382C",
"e  c #232632",
"r  c #2B2332",
"t  c #272B37",
"y  c #332936",
"u  c #243838",
"i  c #3B333B",
"p  c #34343C",
"a  c #4A271E",
"s  c #54312C",
"d  c #45373A",
"f  c #583637",
"g  c #4F2A2C",
"h  c #673A35",
"j  c #6B342A",
"k  c #1A4738",
"l  c #23443A",
"z  c #244A3E",
"x  c #2F4A32",
"c  c #505137",
"v  c #67443B",
"b  c #77473A",
"n  c #7E432C",
"m  c #4D7037",
"M  c #272E45",
"N  c #273649",
"B  c #393844",
"V  c #263956",
"C  c #37374C",
"Z  c #1D3754",
"A  c #443A44",
"S  c #493D4A",
"D  c #443746",
"F  c #513C53",
"G  c #184843",
"H  c #1D5744",
"J  c #195651",
"K  c #264A45",
"L  c #265343",
"P  c #2A5D49",
"I  c #275946",
"U  c #2D4658",
"Y  c #344659",
"T  c #35504C",
"R  c #2B6B4D",
"E  c #29644B",
"W  c #2C6B52",
"Q  c #2D7455",
"!  c #2F7A55",
"~  c #327D5A",
"^  c #347856",
"/  c #336C4D",
"(  c #145C66",
")  c #1A5D65",
"_  c #374769",
"`  c #385076",
"'  c #1C736C",
"]  c #166F6D",
"[  c #23756A",
"{  c #29766A",
"}  c #297869",
"|  c #347665",
" . c #47444B",
".. c #484955",
"X. c #575358",
"o. c #514E4F",
"O. c #674545",
"+. c #775448",
"@. c #685957",
"#. c #73524E",
"$. c #4B6555",
"%. c #766155",
"&. c #47586C",
"*. c #5C5B61",
"=. c #44597A",
"-. c #414F76",
";. c #546372",
":. c #666569",
">. c #6E6C71",
",. c #74747A",
"<. c #76706D",
"1. c #8C4435",
"2. c #8A4637",
"3. c #944C3C",
"4. c #934638",
"5. c #914D37",
"6. c #905545",
"7. c #A45B43",
"8. c #96624B",
"9. c #A86748",
"0. c #8C7671",
"q. c #A7746B",
"w. c #628E3B",
"e. c #69993E",
"r. c #5B8335",
"t. c #33825D",
"y. c #3C8B5F",
"u. c #368D63",
"i. c #3C8E61",
"p. c #318663",
"a. c #3E9061",
"s. c #44915E",
"d. c #4A935C",
"f. c #588844",
"g. c #669E4B",
"h. c #689C47",
"j. c #6DA245",
"k. c #69A148",
"l. c #67A04B",
"z. c #71A441",
"x. c #429060",
"c. c #99847A",
"v. c #A4877B",
"b. c #BA927F",
"n. c #CE8D7A",
"m. c #3B5587",
"M. c #3E5F99",
"N. c #425987",
"B. c #445E96",
"V. c #576A87",
"C. c #456196",
"Z. c #4A659C",
"A. c #4A6599",
"S. c #597499",
"D. c #577095",
"F. c #657C98",
"G. c #787B84",
"H. c #4C68A2",
"J. c #5875A6",
"K. c #506CA5",
"L. c #627EA9",
"P. c #817F86",
"I. c #6E8399",
"U. c #6585AE",
"Y. c #6C85A0",
"T. c #6B8BB4",
"R. c #7593B6",
"E. c #7695B9",
"W. c #7997BB",
"Q. c #7B99BD",
"!. c #7896B7",
"~. c #7690B0",
"^. c #799AC1",
"/. c #86858A",
"(. c #97959A",
"). c #938C8F",
"_. c #AC938A",
"`. c #B8998A",
"'. c #AE9089",
"]. c #BDA397",
"[. c #9E9EA4",
"{. c #8F9CAF",
"}. c #A8A7AB",
"|. c #AAABB3",
" X c #B1AEB3",
".X c #BCB9BD",
"XX c #B8B4B9",
"oX c #A19FA4",
"OX c #DE9A85",
"+X c #C79D93",
"@X c #C9948B",
"#X c #E29B85",
"$X c #DDA58D",
"%X c #CBA898",
"&X c #D5A99A",
"*X c #DBB69F",
"=X c #E2A38D",
"-X c #E3A994",
";X c #CDB2A4",
":X c #DCB5A4",
">X c #DAB8A8",
",X c #CBAFA1",
"<X c #E1BDAB",
"1X c #E4B8A5",
"2X c #E4C1AE",
"3X c #EAC2AC",
"4X c #E4C3B1",
"5X c #89A5C5",
"6X c #96B0CD",
"7X c #B9BDC6",
"8X c #C2BEC3",
"9X c #B8C8DC",
"0X c #B4C6D3",
"qX c #BACBE3",
"wX c #B5CAE2",
"eX c #C4C1C6",
"rX c #CDC9CD",
"tX c #C9C5CA",
"yX c #D0CBCF",
"uX c #D2CED1",
"iX c #D5D2D5",
"pX c #D8D3D7",
"aX c #DAD6D9",
"sX c #DCD9DC",
"dX c #D6D5D9",
"fX c #CFCDD1",
"gX c #DBD1D6",
/* pixels */
"u.u.u.u.u.u.y.u.u.u.u.y.p.u.u.y.u.u.u.y.u.u.u.u.y.u.u.p.u.u.u.y.p.u.u.u.u.u.u.u.u.u.u.u.u.u.u.p.u.u.u.u.u.u.u.u.u.u.u.u.u.u.p.i.",
"u.u.u.u.u.u.u.u.u.u.u.u.u.u.u.u.u.u.u.u.u.u.u.u.u.u.u.u.u.u.u.u.a.i.a.u.u.u.u.u.u.u.u.u.u.u.u.u.u.u.u.u.u.u.u.u.u.u.u.u.u.u.u.u.",
"u.u.u.u.u.u.u.u.u.u.u.u.u.u.u.u.u.u.u.u.u.u.u.u.u.u.u.u.u.u.u.s.j.j.j.l.u.p.u.u.u.u.u.u.u.u.u.u.u.u.u.u.u.u.u.u.u.u.u.u.u.u.u.u.",
"u.u.u.u.u.u.u.u.u.u.u.u.u.u.u.u.u.u.u.u.u.u.u.u.y.u.u.u.u.u.u.s.j.j.z.j.a.y.u.u.u.u.u.u.u.u.u.u.u.u.u.u.u.u.u.u.u.u.u.u.u.u.u.u.",
"u.u.u.u.u.u.u.u.u.u.u.u.u.u.u.u.u.u.u.u.u.u.u.s.j.l.u.u.u.u.a.u.y./ m r.j.e.a.u.u.u.u.u.u.u.u.u.u.u.u.u.u.u.u.u.u.u.u.u.u.u.u.u.",
"u.u.u.u.u.u.u.u.u.u.u.u.u.u.i.i.a.i.u.u.u.u.u.d.z.k.u.u.u.i.t.5 X e u B 4 x t.u.p.u.u.u.u.u.u.u.u.u.p.u.u.u.p.u.u.u.u.u.u.u.u.u.",
"u.u.u.u.u.u.u.u.u.u.u.u.u.s.j.j.j.l.u.u.u.a.j.j.z.k.u.u.u.R % Y D.~.!.~.Y.&.& E [ ' ' ' u.u.u.u.u.u.[ ' ' ' ' [ u.u.u.u.u.u.u.u.",
"u.u.u.u.u.u.u.u.u.u.u.u.u.s.j.j.z.l.i.i.u.s.z.j.j.l.u.u.E 2 V.!.^.{.Q.^.Q.5XI.X J ' { { p.u.u.u.u.p.{ { { [ ' ' p.u.u.i.u.u.u.u.",
"u.u.u.u.u.u.u.u.u.u.u.u.u.u.i.d.z.z.j.l.u.a.j.j.i.i.u.Q t F.Q.Q.^.W.Q.Q.W.E.6XF.# ) z.h.' ' u.u.] p.g.j.k.g.{ ' u.u.u.u.u.u.u.u.",
"u.u.u.u.u.u.u.u.u.u.u.u.u.u.u.s.j.j.z.l.u.s.j.l.u.p.u.k F.Q.Q.Q.W.Q.Q.W.R.5XwX7X& J j.k.| { u.u.[ ;.j.z.z.g.[ ' u.u.u.u.u.u.u.u.",
"u.u.u.u.u.u.u.u.u.u.u.u.u.u.u.u.i.i.a.u.u.u.i.i.u.u.5 V.W.W.Q.Q.Q.Q.Q.W.5X9XqXqX..G i.s.j.g.} } l.j.z.z.z.k.) ) p.u.u.u.u.u.u.u.",
"u.u.u.u.u.u.u.u.u.u.u.u.u.u.u.u.u.u.u.u.u.u.u.u.y.E _ T.E.E.W.Q.Q.Q.Q.5XqXqXqXqX..G p.x.k.h.[ { j.j.z.z.j.h.) ( u.u.u.u.u.u.u.u.",
"u.u.u.u.u.u.u.u.u.u.u.u.u.u.u.u.u.u.u.u.u.u.y.t.H N S.E.E.W.W.W.Q.Q.W.5XqX9XwXqX..f.[ [ y.y.( ) u.s.z.j.x.u.) ( u.u.u.u.u.u.u.u.",
"u.u.u.u.u.u.u.u.u.u.u.u.u.u.i.i.i.u.u.u.u.y.z U u N.J.E.E.E.W.Q.^.Q.Q.W.0XqXwX7XK g.[ J L z 6 4 L a.j.l.u.p.( ( u.u.u.u.u.u.u.u.",
"u.u.u.u.u.u.u.u.u.u.u.u.u.x.j.j.z.l.u.u.t.K -.A.N.K.J.E.R.E.W.W.Q.Q.W.W.6XqXqX|.% 5 T &.C 2 * - 2 ~ i.i.) ( ] ' p.u.u.u.u.u.u.u.",
"u.u.u.a.a.i.i.i.u.u.u.u.i.d.z.j.z.l.u./ N N.A.A.A.A.H.R.E.E.W.W.Q.W.^.Q.!.{.G.&.=.F.V.C * * - = : W u.p.) ( ' [ u.u.u.u.u.u.i.u.",
"u.u.u.s.j.j.j.l.u.u.u.s.j.j.z.k.a.a.u.u ` C.A.A.Z.H.H.J.~.Q.!.W.^.^.I.&.e Y D.E.!.&.@ $ - - - - : I u.u.u.u.u.u.u.u.u.u.u.u.u.u.",
"u.u.u.d.j.j.z.l.a.u.u.a.j.j.k.l.u.u.u.V C.C.B.Z.H.H.Z.K.J.T.Q.^.R.;.; _ Y.E.^.T.N   $ - - * - - 8 u.u.u.u.u.u.u.u.u.i.i.i.u.u.u.",
"u.u.u.u.a.d.z.z.j.l.u.u.a.a.a.a.u.u.u.P N.B.A.A.m.....N.H.K.L.F.M q M N.A.K.=.& 0.@.O ; - = - z u.u.u.u.u.u.u.u.u.a.j.j.j.j.a.u.",
"u.u.u.u.u.s.j.j.j.l.u.u.u.u.u.u.u.u.u.~ N.C.N.m.%.%X+X@.A.J.N.@ 0.+X'.%.c t f '.&X>X<.. 3 I ~ u.R 5 7 Q u.u.u.u.u.a.z.z.j.j.a.u.",
"u.u.u.u.u.u.a.a.a.a.u.u.u.u.u.u.u.u.u.u.U N.C.V b.&X0.`._ A.9 q.&X&X&X&X+X+X+X&X<X4X<XX.t.u.E u 0.`.v.c u.u.u.a.k.j.z.j.i.i.u.u.",
"u.u.u.u.u.u.u.u.u.u.u.u.u.u.u.u.u.u.u.u.! K ` Z `.1X0.0.<.V O '.:X>X:X:X:X:XP.O.,X4X4X%XG k @.%X4X3Xn.%.u.u.u.a.j.j.j.j.u.u.u.u.",
"u.u.u.u.u.u.u.u.u.u.u.u.u.u.u.u.u.u.u.u.u.u.R & '.`.O.O.'.$ h o.;X4X<X4X2X2X>X<.2 ;X3X;XS q.-X-X3X=X#X%.u.u.u.u.u.a.a.a.u.u.u.u.",
"u.u.u.u.u.u.u.u.u.u.u.u.u.u.u.u.u.u.u.u.u.u.u.p.c.v.B X.+Xd +.f A _.>X<X2X<X3X<X%X>X<X>X@X-X#X=X=X=Xn.O.t.u.u.u.u.u.u.u.u.u.u.u.",
"u.u.u.u.u.u.u.u.u.a.u.u.u.u.u.u.u.u.u.u.u.u.u.u./ `.v.%X%Xd v +.O.* d %.`.2X<X4X4X2X>X$X-X=X$X=X=X#Xb.9 u.u.u.u.u.u.u.u.u.u.u.u.",
"u.u.u.u.u.u.u.u.u.u.u.u.u.u.u.u.u.u.u.u.u.u.u.u.E o.%X*X:X@.s +.6.#.O.o ].2X2X>X2X2X1X=X$X=X=X=X=XOX+.5 u.u.u.u.u.u.u.u.u.u.u.u.",
"u.u.u.u.u.u.u.u.u.u.u.u.u.u.u.u.u.u.u.u.u.u.H 9 f b O.c.q. .q v O.+.v :.;X>X>X<X2X<X-X$X=X$X$X#X#Xq.& t.u.u.u.u.u.u.u.u.u.u.u.u.",
"u.u.u.u.u.u.u.u.u.u.u.u.u.u.u.u.u.u.u.u.u.7 d 6.9.7.5.h j s < g h O.d _.].>X1X>X>X:Xb.n.OXOXOXn.q.q H u.u.u.u.u.u.u.u.u.u.u.u.u.",
"u.u.u.u.u.u.u.u.u.u.u.u.u.u.u.u.u.u.u.u.7 v 9.7.3.5.3.3.3.5.f < g q <.c.:X1X:X>X>X<X0.< O.#.O.f - H u.u.u.u.u.u.u.u.u.u.u.u.u.u.",
"u.u.u.u.u.u.u.u.u.u.u.u.u.u.u.u.u.u.u.E v 9.7.6.3.6.3.5.3.5.4.f & 0.0.%X1X:X*X*X%X0.z t./ H H Q t.y.u.u.u.u.u.u.u.u.u.u.u.u.u.u.",
"u.u.u.u.u.u.u.u.u.u.u.u.u.a.u.u.u.u.u.7 8.9.5.3.3.3.5.2.j f f a @ p :.%X;X%X+Xc. .z u.u.u.u.u.u.u.u.u.u.u.u.u.u.u.u.u.u.u.u.u.u.",
"u.u.u.u.u.u.u.u.u.u.u.u.u.u.u.u.u.u.u.u 8.3.3.3.3.5.n C D.J.U.V.M = + 3 $.P k R u.u.u.u.u.u.u.u.u.u.u.u.u.u.u.u.u.u.u.u.u.u.u.u.",
"u.u.u.u.u.u.u.u.u.u.u.u.u.u.u.u.u.u.u.H 6.4.2.2.h 2.f N.U.U.U.T.S.T V.W p.u.u.u.u.u.u.u.u.u.u.u.u.u.u.u.u.u.u.u.u.u.u.u.u.u.u.u.",
"u.u.u.u.i.u.u.u.u.u.u.u.u.u.u.u.u.u.W 9 q 2.h 1 h 1.F B.J.U.U.T.T.&.F.;.K $.$.$...W u.u.u.u.u.u.u.u.u.u.u.u.u.u.u.u.u.u.u.u.u.u.",
"u.u.u.u.u.u.u.u.u.u.u.u.u.u.u.u.u.7 q 6.6.g 1 j 1.n C B.H.U.L.T.T.F.6 >.`.&X&X&X;X_.H u.u.u.u.u.u.u.u.u.u.u.u.u.u.u.u.u.u.i.u.u.",
"u.u.u.u.u.u.u.u.u.u.u.u.a.i.u.u.E r 8.7.2.2.1.2.1.s & N.B.K.L.L.T.S.  c.1X&X%Xc.>X4XX.6 z R R t.u.u.u.u.u.u.u.u.u.u.u.u.u.u.u.u.",
"u.u.u.u.u.u.u.u.u.u.u.s.w.w k t.H d 9.1.1.1.1.1.j 6 _ V B.B.B.Z.K.N.. i q.@.v.)._.;XT B e $.(.;.u.u.u.u.u.u.u.u.u.u.u.u.u.u.u.u.",
"u.u.u.u.u.u.u.u.u.u.i.d.w.$ $ 3 k y 3.1.2.1.1.1.a V B.N.V m.B.N.` M &._ . + d i y d r D r >.0XG.t.u.u.u.u.u.u.u.u.i.u.u.u.u.u.u.",
"u.u.u.u.u.u.u.u.u.s.j.j.w.4 - : = & b 5.2.2.4.2.< ` B.B.N._ V e N =.T.V.  < @ $ t y B B r # L ~ u.u.u.u.u.y.u.u.u.u.u.u.u.u.u.u.",
"u.u.u.i.u.u.u.u.u.s.w.m 0 @ + : - = < s 2.4.2.j $ m.Z.B.B.B.B.B.H.K.^.R.;.M B y t e $ $ = : L u.I 5 3 4 5 5 R u.i.i.u.u.u.u.u.u.",
"u.u.u.a.j.l.u.u.u.^ 0 .   B T   = = * > r h g & - M N.Z.B.B.B.N._ V &.Y.R.Y :.*.X.t t 6 4 : 8 3 .   + ; o   O 3 f.l.a.u.u.u.u.u.",
"u.u.u.s.z.l.i.u.W 4   :. XyXrX/.o o = ; = & & , , - t ` m.` N < r D d y U  .:. .6 U U V ; : *   :.}.8XtX7X(. .  2 m y.u.u.u.u.u.",
"u.u.u.d.z.z.j.f.2   /.iXsXpXaXaX Xo.  = ; = : : - , < $ : $ < 1 D S  . .r  .B 6 U _ V 6 * =   ).uXsXaXaXsXsXtX,.  3 ~ u.u.u.u.u.",
"u.u.u.s.j.z.z.x   ,.iXaXaXaXaXaXsXrX/.  O = = : : , , , , , 1 1 D D F .. .- 6 V U Y 6 - ;   ).aXpXpXaXaXaXaXaXiX>.  u u.u.a.a.a.",
"u.u.u.u.a.d.h.# p eXaXaXpXsXsXsXpXaXdX|. .+ = = = - , , , , , , r r B  ...y 6 Z U t 2 u   *.uXaXpXpXsXsXaXaXaXaXeXt @ / k.j.j.j.",
"u.u.u.u.u.x.m   P.aXiXaXpX|.(.}.iXaXpXsXXX+ = : = & = = , ; < , r r D F F i ; V M : R l   }.pXpXpXiXXX XtXaXaXaXaX/.  l j.z.j.j.",
"u.u.u.u.u.u.5   }.sXdXiX/.      ,.pXdXdXfXX.. 6 N M 6 ; : : 0 r r D S S S y ; 6 ; E p.& p 8XuXiXuX,.     .XXsXpXsX X  w z.j.s.a.",
"u.u.u.u.u.u.3 & .XdXaX.X  * : *    XaXdXdX,.  ; N M 6 : - - , , r D A A D e = 4 I u.~ o *.rXuXpX(.  * =   X.iXaXaXtXe @ h.k.u.u.",
"u.u.u.u.u.u.4 6 ;XdXaXoX  : : :   (.sXpXaXI.  3 u L P E u $ , , i A A D i - * L u.u.P . >.rXyXiX:.  ; : = O ;XsXdXfXB @ ~ i.u.u.",
"u.u.u.u.u.u.7 * 7XiXpX|.  - - -   [.aXpXgX<.  P u.u.t.P E 2 , < i i i i r E Q u.u.u.R   :.rXrXfX>.. : : * @ tXsXdXfXp & ~ u.u.u.",
"u.u.u.u.u.u.5   [.yXuXrXX.  O    .rXpXpXuX*.o E u.u.l ; m w - - r i y 0 u u.u.u.u.u.t.O ..eXyXiX[.  @ :   >.iXaXdX7XO ; t.u.u.u.",
"u.u.u.u.u.p.G   I.yXyXiX.X>. .>.XXaXiXpX;X> = p.u.u.Q = w m $ 4 - ; - * = P u.u.u.u.t.4 + XXyXrXrX).e # :.eXsXdXsX[.  8 u.u.u.u.",
"u.u.u.u.' p.$.$ p .XyXrXuXuXtXiXuXuXuXuXP.  8 u.u.i.j.x : m 0 $ : - * - - 2 ! u.u.u.u.l   /.yXrXrXyXeX8XyXiXiXiXuX*.o L u.u.u.u.",
"u.u.u.p.] | j.u   ,.rXrXrXrXyXrXrXuXuX X= * Q u.u.x.z.m * w m * - * = - * : z u.u.u.u./ & 0  XyXrXrXyXyXyXiXfXdX(.  - ~ u.u.u.u.",
"u.u.u.p.' ' { W :   /.rXrXyXrXrXuXuX Xp O 8 u.u.u.u.i.y.u - / 3 - = = - : = 8 u.u.u.u.u.l o  ..XyXrXrXyXyXyXiX}.; # L u.u.u.u.u.",
"u.u.a.u.' ' ' [ I *   :.}.eXtXtX.X/.e o 3 t.u.u.u.u.u.u.E * 8 I = * : : = : K u.u.u.u.u.t.3 . B oXeXyXrXyX8X).= + u u.u.u.u.u.i.",
"u.u.u.u.u.u.u.u.u.E : . o  .X.X.e   $ 3 ~ u.u.u.u.u.u.u.y.3 = Q 3 : - = - 3 t.y.u.u.u.u.u.t.3 +   ..,./.>.i   # u t.u.u.u.u.u.u.",
"u.u.u.u.u.u.u.u.u.u.Q 3 = + o O # 3 L t.u.u.u.u.u.u.u.u.y.I 4 z Q u 8 8 l ~ u.u.u.u.u.u.u.u.y.z = O     . @ 4 I y.u.u.u.u.u.u.u.",
"u.u.u.u.u.u.u.u.u.u.u.u.~ P L L Q y.u.u.u.u.u.u.u.u.u.u.u.p.E t.u.u.u.u.u.u.u.u.u.u.u.u.u.u.u.u.t.I z z L P t.u.u.u.u.u.u.u.u.u.",
"u.u.u.u.u.u.u.u.u.u.u.u.u.u.u.u.u.u.u.u.u.u.u.u.u.u.u.u.u.u.u.u.u.u.u.u.u.u.u.u.u.u.u.u.u.u.u.u.u.u.u.u.u.u.u.u.u.u.u.u.u.u.u.u.",
"u.u.u.u.u.u.u.u.u.u.u.u.u.u.u.u.u.u.u.u.u.u.u.u.u.u.u.u.u.u.u.u.u.u.u.u.u.u.u.u.u.u.u.u.u.u.u.u.u.u.u.u.u.u.u.u.u.u.u.u.u.u.u.u.",
"u.u.u.u.u.u.u.u.u.u.u.u.u.u.u.u.u.u.u.u.u.u.u.u.u.u.u.u.u.u.u.u.u.u.u.u.u.u.u.u.u.u.u.u.u.i.u.u.u.u.u.u.u.u.u.u.u.u.u.u.u.u.u.u.",
"u.u.u.u.u.u.u.u.u.u.u.u.u.u.u.u.u.u.u.u.u.u.u.u.u.u.u.u.u.u.u.u.u.u.u.u.u.u.u.u.u.u.u.u.u.u.u.u.u.u.u.u.u.u.u.u.u.u.u.u.u.u.u.u.",
"u.u.u.u.u.u.u.u.u.u.u.u.u.u.u.u.u.u.u.u.u.u.u.u.u.u.u.u.u.u.u.u.u.u.u.u.u.u.u.u.u.u.u.u.u.u.u.u.u.u.u.u.u.u.u.u.u.u.u.u.u.u.u.u."
};
