/* XPM */
static char *_0e333005d52405ba62864eafe3270c3cr7drTzkrcABnmq3[] = {
/* columns rows colors chars-per-pixel */
"64 64 155 2 ",
"   c #6A669F",
".  c #6C6A9F",
"X  c #6A66A0",
"o  c #606AA1",
"O  c #6E6CA0",
"+  c #706FA2",
"@  c #6774A3",
"#  c #6D71A1",
"$  c #7173A2",
"%  c #767AA3",
"&  c #7C7FA8",
"*  c #7F84AA",
"=  c #8187AB",
"-  c #838AAB",
";  c #8793AD",
":  c #8896AB",
">  c #8C9BAE",
",  c #8B9CAE",
"<  c #8C9CAD",
"1  c #8C9DAD",
"2  c #8D9DAD",
"3  c #8C9EAC",
"4  c #8D9FAC",
"5  c #8C9EAD",
"6  c #8D9EAD",
"7  c #8D9FAD",
"8  c #8E9FAD",
"9  c #8C9CAE",
"0  c #8D9CAE",
"q  c #8C9DAE",
"w  c #8D9DAE",
"e  c #8C9CAF",
"r  c #8D9CAF",
"t  c #8D9DAF",
"y  c #8E9DAF",
"u  c #8C9EAE",
"i  c #8D9EAE",
"p  c #8D9FAE",
"a  c #8D9EAF",
"s  c #8D9FAF",
"d  c #8E9EAE",
"f  c #8E9FAE",
"g  c #8E9EAF",
"h  c #8E9FAF",
"j  c #8F9FAF",
"k  c #8D9DAE",
"l  c #868FB0",
"z  c #878FB0",
"x  c #878FB0",
"c  c #8790B0",
"v  c #8890B0",
"b  c #8891B0",
"n  c #8891B1",
"m  c #8992B2",
"M  c #8A93B2",
"N  c #8A93B3",
"B  c #8A94B2",
"V  c #8A94B3",
"C  c #8C96B5",
"Z  c #8891B1",
"A  c #8E9FB0",
"S  c #8F9FB0",
"D  c #8E9FB0",
"F  c #8EA0AE",
"G  c #8FA0AE",
"H  c #8FA1AE",
"J  c #8EA0AF",
"K  c #8FA0AF",
"L  c #8FA1AF",
"P  c #8FA2AE",
"I  c #8FA2AF",
"U  c #8FA1AF",
"Y  c #90A1AF",
"T  c #90A2AF",
"R  c #90A3AF",
"E  c #90A2AF",
"W  c #8FA0B0",
"Q  c #8FA1B0",
"!  c #8FA2B0",
"~  c #8FA0B0",
"^  c #90A1B0",
"/  c #90A1B1",
"(  c #90A2B0",
")  c #91A2B0",
"_  c #90A3B0",
"`  c #90A2B1",
"'  c #91A2B1",
"]  c #90A3B1",
"[  c #91A3B1",
"{  c #91A2B2",
"}  c #91A3B2",
"|  c #91A3B3",
" . c #92A4B2",
".. c #92A5B2",
"X. c #92A4B3",
"o. c #92A4B4",
"O. c #93A5B4",
"+. c #94A6B4",
"@. c #94A6B5",
"#. c #94A7B5",
"$. c #94A6B6",
"%. c #95A7B6",
"&. c #95A7B7",
"*. c #91A3B2",
"=. c #9DADC4",
"-. c #A0B1C5",
";. c #A1B2C5",
":. c #A2B3C5",
">. c #A0B1C7",
",. c #A1B2C6",
"<. c #A1B3C6",
"1. c #A1B3C7",
"2. c #A2B4C6",
"3. c #A2B4C7",
"4. c #A2B5C7",
"5. c #A1B3C7",
"6. c #A0B1C8",
"7. c #A2B3C8",
"8. c #A2B4C8",
"9. c #A3B4C8",
"0. c #A2B5C8",
"q. c #A3B5C8",
"w. c #A3B4C9",
"e. c #A3B5C9",
"r. c #A3B6C8",
"t. c #A3B4CA",
"y. c #A3B5CB",
"u. c #A4B6C8",
"i. c #A4B6C9",
"p. c #A4B7C9",
"a. c #A4B5CA",
"s. c #A4B6CA",
"d. c #A5B6CA",
"f. c #A4B7CA",
"g. c #A5B7CA",
"h. c #A4B6CB",
"j. c #A5B6CB",
"k. c #A4B7CB",
"l. c #A5B7CB",
"z. c #A4B7CC",
"x. c #A5B7CC",
"c. c #A6B7CC",
"v. c #A4B6CA",
"b. c #A5B8CB",
"n. c #A6B8CB",
"m. c #A5B9CD",
"M. c #A6B8CC",
"N. c #A6B9CC",
"B. c #A6B8CD",
"V. c #A7B8CD",
"C. c #A6B9CD",
"Z. c #A7B9CD",
"A. c #A6B8CC",
"S. c #A8BACE",
"D. c #A8BACE",
/* pixels */
"8 < * * * - 8 8 8 8 8 8 8 8 8 8 8 ^ s.2.J :   $ 8 8 8 8 8 8 8 8 8 8 8 8 8 8 8 8 8 8 8 8 8 8 = * = = * * * * * - 8 8 8 8 8 8 8 3 ",
"T 8 = = = - J J J J J W ^ ^ ^ ^ ^ +.M.2.8 :   $ 8 J J J J J J J J J J J J J J J J J J J J 8 - = = = - - - - - - 8 J J J J J W 8 ",
"T , = = = = - - - - J +.M.M.M.M.M.2...> O O   O - - - - J J J J J J J J J J J J J J J 8 - - = = = - 8 8 8 8 8 8 - - 8 J J J J 8 ",
"W > = = = = - - - - 8 o.s.s.s.s.s.-.8 : O . . + = = - - J J 8 8 8 8 8 8 8 8 8 8 J J J 8 - - - - = - J J J J J 8 - - 8 8 8 8 A 8 ",
"- - = = = - 8 A W > - - - - - = $ + . $ * * * * = - 8 8 J 8 - - - - - - - - - - J J J J 8 8 A 8 = - J J J J J 8 - = - - - - - = ",
"- - = = - - J J ^ 8 - - - - - * O . . $ - - - - = - J J J 8 - - - - - - = = = - J J J J J J J 8 - - J J J J 8 8 - - - - - - - = ",
"J < = - 8 8 J J J J 8 8 8 8 J < * - 8 8 8 8 J 8 = - J J J J 8 8 8 8 J > = = = - J J J J J J J J J J J J J 8 - - 8 J 8 8 8 8 J 8 ",
"T 8 = - ^ J J J J J J J J J T 8 = - T J J J J 8 - - 8 J J J J J J J J 8 - - = - J J J J J J J J J J 8 8 8 8 - - J J J J J J J 8 ",
"J , = - T J J J J J J J J J J 8 = - J J J J J J J , - - J J J J J J J J 8 8 = - J J J J J J J J J 8 - - - - 8 J J J J J J J J 8 ",
"J 8 - - J J J J J J J J J J J 8 = - 8 8 J J J J J 8 = - J J J J J J J J J 8 - - 8 J J J J J J J J 8 - = - - J J J J J J J J J 8 ",
"J J 8 8 J J J J J J J J J J J 8 = = - - J J J J J 8 = - J J J J J J J J J J 8 8 - - J J J J J J J 8 - - 8 8 J J J J J J J J J 8 ",
"J J J J J J J J J J J J J J W > = = = - 8 W A A W 8 = - J J J J J J J J J J J 8 = - J J J J J J J 8 - - 8 J J J J J J J J J J 8 ",
"J J J J J J J J J J J J T 8 - - = - = = - - - - - - = - J J J J J J J J J J J 8 - - J J J J J J J 8 - - 8 J J J J J J J J J J 8 ",
"J J J J 8 8 8 J ^ ^ J J J > - - = = - - = = = = = = = - J J J J J J J J J J J 8 = - J J J J J J 8 8 - - 8 J J J J J J J T J J 8 ",
"J J J 8 - - = B n.2.^ 8 - - J 8 = - 8 > = = = = = = = - J J J J J J J J J J T 8 O $ 8 J J J J 8 - - = - 8 J J J J J J J J J J 8 ",
"8 8 J < = - - C M.2.T 8 - - J 8 - - J 8 - - = = - - = - 8 J J J J J J J J J 8 < O $ 8 J 8 8 8 8 - = = - 8 J J J J J J J 8 8 8 8 ",
"- - - - = b s.-.^ ^ J J 8 > - - 8 , - - 8 > = - 8 8 = = - - J J J J J J T 8 # $ * = - - - - - - = = = - 8 J J J J J J 8 - - - = ",
"- - = = = b S.0.J J J J J 8 - - J 8 - - 8 > - - J 8 - - = - 8 J 8 8 8 8 J < O O = = = = - - - - - - - - 8 8 J J J J 8 8 - - - = ",
"8 < = = = b S.2.J J J J J J 8 8 J J 8 > - - 8 8 - - 8 8 = = - - - - - - - - * = = = = - 8 8 8 8 8 8 8 8 - - J J J 8 - - 8 8 8 8 ",
"J 8 - - * b S.2.J J J J J J J J J J J 8 - - J 8 - - 8 8 - - = = = = = = = = = = = = - - J J J J J J J 8 - - J J W 8 - - 8 J J 8 ",
"J J 8 < * b S.0.J J J J J J J T J J J J 8 8 J J W 8 - b s.6.- = = = = = = = = = = - 8 8 J J J J J J J J 8 8 J 8 - - = - 8 J J 8 ",
"J J T 8 = b M.-.J J J J J J J T J J J J J J J J T 8 = l x.-.= * - - - - - - = = = - J J J J J J J J J J J J J 8 - - = - 8 J J 8 ",
"J J T 8 = - ^ ^ J J J J J J J J J J J J J J J J J 8 = = - = o @ 8 ^ s.6.J 8 - = = - 8 J J J J J J J J J J J J J J 8 - - 8 J J 8 ",
"J J J < = - 8 J ..^ T T J J J J J J J J J J J J J 8 - - = * o @ ^ +.n.0.^ 8 - - = - ^ ^ J J J J J J J J J J J J J 8 - - 8 J J 8 ",
"J 8 - - = = = B M.2.J J J J J J J J J J J J J J J J J > = = * - s.s...^ J J J 8 = - s.0.^ J J J J J J J J T J J J J J 8 - - J 8 ",
"J , - - - - = B M.2.^ ^ J J J J J J J J J J J J J J J 8 = = = b M.s.^ J J J J 8 = - M.s.^ J J J J J J J J J T J J J J 8 - - 8 8 ",
"J J 8 8 8 8 8 8 ^ +.x.-.J J J J J J J J J J J J J J J 8 = = = c M.s.^ J J J J 8 = - M.s.^ J J J J J J J J J J J J J J 8 - = - - ",
"J J J J J J J J J o.x.-.J J J J J J J T J J J J J J J 8 = = = l s.0.^ J J J W 8 = - s.s...^ J J J J J J J J J J J J J 8 - = - = ",
"J J J J J J J J J 8 - ; ^ J J J J T J J J J J J J J J 8 = = = - - - J J J 8 - - = - ^ +.s.0.^ J T J J J J J J J J J J 8 - - 8 8 ",
"J J J W ^ ^ J J J 8 - - 8 8 J J T T J J J J J J J J 8 > = = = = - - J J J 8 - - - - 8 ^ M.s.^ J T J J J J J J J J J J 8 - - J 8 ",
"J J J +.M.-.J J J J J : O % J J J J J J J J J J J 8 - - = = = - 8 J J J J J 8 8 J 8 - c M.s.^ J J J J J J J T T J J J 8 - - 8 8 ",
"J J J +.M.-.8 8 J J T <   $ 8 J J J J J J J J J J , = = = = - - J J J J J J J J J J - - 0.0...^ J J J J J J J J J J J 8 - - 8 8 ",
"J J J W ..< O % J J T <   O - - J J J J J J J 8 - - = = = - 8 J J J J J T J J J J J 8 8 - b s.s.^ J J J J J J J J J J 8 - - J 8 ",
"J J J J J < O % J J T <   O - - J J J J J J J 8 = = = = = - J J J J J J T J J J J J J 8 - - s.0.W 8 J J J J J J J J 8 8 - - 8 8 ",
"J J J J J J 8 8 J J ^ <   $ 8 8 J J J 8 - - - - = = = = = - J J J J J J J J J J J J J T 8 8 - - - - J T J J J J J 8 - = = = - = ",
"J J J J J J J J J J 8 :   $ J J J J J 8 = = - - - - - - = - J J J J J J J J J J J J J J T 8 - = * = 8 8 8 8 J J J 8 - - - - - = ",
"J J J J J J J J T < O O   $ J J J J J 8 = - J W A A A < = - J J J J J J J J J J J J J J J J W < O O . $ = - J J J ^ 0.M.M.0.^ 8 ",
"^ ^ 8 8 8 8 8 8 8 : O O . % 8 8 J J J 8 - - T J J J J 8 - - 8 8 J J J J J J J J J J J J J ^ T 8 O   O $ = - J J J ^ s.M.M.s.o.J ",
"M.=.- - - * O O O $ * = * = - - J J J J 8 8 J J J J J J 8 8 - - J J J J J T T J J J J J J J ^ 8 . O > 8 8 8 J J J J ^ ..^ o.s.0.",
"M.>.- - = &     . + = - = = - - J J J J J J J J J J J J J 8 - - 8 J J J J J J J J J J J J J J < O $ 8 T J J J J J J J J J ^ s.s.",
"^ +.s.=.O O   O * * = = = - 8 8 J J J J T J J J J J J J J J 8 8 - - J J J J J J J J J J J 8 - - < 8 J J J J J J J J J J J J ..^ ",
"J o.M.=.  . . $ = = = = - - J J J J J J J J J J J J J J J J J 8 - - 8 J 8 8 J J J J J J J 8 = - J T J J J J J J J J J J J J J 8 ",
"J J ..<   O * = = = = - 8 8 J J J J J J J J J J J J J J J J J J 8 8 - - - - J J J J J J J 8 - - 8 J J J J J J J J J J J J J J 8 ",
"J J T :   + = - = = = - T J J J J J J J J ^ ^ ^ ^ ^ J J J J T J J 8 = = - - J J J J 8 8 8 8 - - ^ ^ J J J J J J J J J J J J J 8 ",
"J J T :   O = = = = = - J J J J J J J J J o.s.n.M.2.^ J J J J J J 8 = - 8 8 J J J 8 - - - - = - s.0.^ J J J J J J J J J J J J 8 ",
"J J T < O $ = = = = = - J J J J J J J J J +.M.M.M.2.W J J J J J J 8 = - J J J J J 8 - - = = = - s.s...^ ^ ^ J J J J J J J J J 8 ",
"J J T 8 * = = = = = = - J J J J J J J J J +.S.s...W - - J J J J J 8 = - J J J J J J 8 8 - = = - ^ +.s.n.n.s.^ J J J J J J J J 8 ",
"J J J < = = - = = = = - J J J J J J J J J o.s.-.8 < * - J J J J J 8 = - 8 J J J J J J 8 - = = - 8 ^ s.s.M.0...^ ....J J J J J 8 ",
"J 8 - - = = = = = = = - ^ J J J J J J J J 8 - = O O . $ J J J J J 8 = = - - J J J J J 8 - = = = - - - - ^ o.s.n.M.s.^ J J J J 8 ",
"J , = = - - = = - - = - 8 8 J J J J J J J 8 - * O O . % J J J J J 8 - = = - 8 J 8 8 J 8 - = = = - - - - 8 ^ s.s.s.6.A 8 8 8 8 8 ",
"T , = - J > = - 8 > = = - - J J J J J J J J 8 8 8 8 8 8 J J J J J 8 = = = = - - - - - - = = = - 8 8 8 8 W 8 - - $ + O O O # = = ",
"W > = - T > = - T 8 - - = - J J J J 8 W W J J J J J J J J J J J J 8 - - - - = = = = = - = = = - J J J T T 8 - * O .   X . O = = ",
"- - 8 > - - 8 8 J J 8 8 8 8 J J J 8 - - - - J J J 8 - - J J T T J J 8 8 8 > - - 8 8 8 > = - 8 8 J J J J J J 8 8 > : . O * = 8 8 ",
"= - J > = - J J J J J J J J J J J 8 - = = - 8 8 8 8 - - J J J J J J 8 8 J 8 = - J J T 8 = - J J J J J J J J J J T 8 O . * - 8 8 ",
"J < - - 8 8 J J J J J J J J J J J J 8 < = = - - - b 0.-.^ J J J J 8 - - - - = - J J J 8 = - J J J J J J J J J J J 8 O . * = - - ",
"J < - - ^ J J J J J J J J J J T J J T 8 - - = = - b M.0.^ J J J J 8 = = = = = - 8 8 J 8 = - J J J J J J J J J J J 8 O . * = - = ",
"- - 8 8 J J J J J J J J J J J J J J J J 8 > = l s.-...^ J J J J J 8 = = = = = = - - - - = - J J J J J T J J J J J 8 O . * - 8 8 ",
"- - T J T J J J J J J J J J J J J J J J J 8 = b M.s.J J J J J J J 8 - - - - = = = = - - - - 8 J J J J T J J J J J 8 O O * - 8 8 ",
"8 8 J J J J J J J J J J J J J J J J J J J 8 = b M.s.^ J J J J J J J 8 8 8 8 - = = - 8 8 8 8 - - J J J J J J J J J 8 = * = = - = ",
"J J J J J J J J J J T T J J J J J J J J J 8 = l s.2.^ J J T J T J J J J J 8 - - - - J J J 8 = - 8 8 J J J J 8 8 A 8 - - - - = * ",
"J J J J J J J J J J J J J J T T J J J J J 8 = - ^ ^ J J J J J J J J J J J J 8 8 8 A J J J 8 - = - - J T T 8 - - - - 8 8 8 8 - * ",
"8 J J J J J J J J J T T J J J J J J J J ^ A = - J J J J J J J J J J J J J J J J J J J J J 8 - = = - 8 8 8 8 - = - - 8 J J 8 - = ",
"- - T J J T J J J J J J J J J J J J J o.n.-.= - J J J J J J J J J J J J J J J J J J J J J 8 - = = = - - - - = - 8 J J J J J J 8 ",
"= - J J J T J J J J J J J J J J J J J +.S.6.= - J J J J J J J J J J J J J J J J J J J J J 8 - = = = = = = = = - J J J J J J J 8 "
};
